<svg width="16" height="15" viewBox="0 0 16 15" fill="none" xmlns="http://www.w3.org/2000/svg">
<path d="M1.99902 6.28943L14.2913 6.28943" stroke="#F8F8F8" stroke-width="1.5" stroke-miterlimit="10" stroke-linecap="round" stroke-linejoin="round"/>
<path d="M7.87474 12.7427L4.73403 12.7427C2.55215 12.7427 1.99902 12.2019 1.99902 10.0446L1.99902 4.99243C1.99902 3.03796 2.45382 2.41105 4.16859 2.31271C4.34069 2.30656 4.53121 2.30042 4.73403 2.30042L11.5624 2.30042C13.7443 2.30042 14.2974 2.84128 14.2974 4.99857L14.2974 7.70903" stroke="#F8F8F8" stroke-width="1.5" stroke-linecap="round" stroke-linejoin="round"/>
<path d="M11.8325 13.6647C13.1903 13.6647 14.2909 12.564 14.2909 11.2063C14.2909 9.84849 13.1903 8.7478 11.8325 8.7478C10.4747 8.7478 9.37402 9.84849 9.37402 11.2063C9.37402 12.564 10.4747 13.6647 11.8325 13.6647Z" stroke="#F8F8F8" stroke-width="1.5" stroke-miterlimit="10" stroke-linecap="round" stroke-linejoin="round"/>
<path d="M12.4907 11.8947L11.1938 10.5917" stroke="#F8F8F8" stroke-width="1.5" stroke-miterlimit="10" stroke-linecap="round" stroke-linejoin="round"/>
<path d="M12.4778 10.6101L11.1748 11.9069" stroke="#F8F8F8" stroke-width="1.5" stroke-miterlimit="10" stroke-linecap="round" stroke-linejoin="round"/>
<path d="M4.45752 9.97705H6.91598" stroke="#F8F8F8" stroke-width="1.5" stroke-miterlimit="10" stroke-linecap="round" stroke-linejoin="round"/>
</svg>
