<svg width="14" height="15" viewBox="0 0 14 15" fill="none" xmlns="http://www.w3.org/2000/svg">
<path fill-rule="evenodd" clip-rule="evenodd" d="M2.99984 0.214844C3.27598 0.214844 3.49984 0.438701 3.49984 0.714844V0.958774C4.25721 0.881491 5.18919 0.8815 6.326 0.881511L7.67367 0.881511C8.81049 0.8815 9.74246 0.881491 10.4998 0.958774V0.714844C10.4998 0.438701 10.7237 0.214844 10.9998 0.214844C11.276 0.214844 11.4998 0.438701 11.4998 0.714844V1.13804C12.0363 1.2901 12.4888 1.53724 12.8655 1.94442C13.3841 2.50507 13.6146 3.21346 13.725 4.10118C13.8332 4.97105 13.8332 6.08583 13.8332 7.50822V7.92147C13.8332 9.34386 13.8332 10.4586 13.725 11.3285C13.6146 12.2162 13.3841 12.9246 12.8655 13.4853C12.3417 14.0515 11.6713 14.3082 10.8323 14.4302C10.0203 14.5482 8.98281 14.5482 7.67368 14.5482H6.326C5.01687 14.5482 3.97938 14.5482 3.16736 14.4302C2.32835 14.3082 1.65793 14.0515 1.1342 13.4853C0.615593 12.9246 0.38507 12.2162 0.27467 11.3285C0.166491 10.4586 0.166497 9.34387 0.166504 7.92149L0.166504 7.5082C0.166497 6.08582 0.166491 4.97105 0.27467 4.10118C0.38507 3.21346 0.615593 2.50507 1.1342 1.94442C1.51084 1.53724 1.96333 1.2901 2.49984 1.13804L2.49984 0.714844C2.49984 0.438701 2.7237 0.214844 2.99984 0.214844ZM2.99984 2.54818C2.77128 2.54818 2.57855 2.39483 2.5189 2.18541C2.24737 2.29345 2.04119 2.43655 1.8683 2.62346C1.55346 2.96382 1.36685 3.43042 1.26824 4.21484L12.7314 4.21484C12.6328 3.43042 12.4462 2.96382 12.1314 2.62346C11.9585 2.43655 11.7523 2.29345 11.4808 2.18541C11.4211 2.39483 11.2284 2.54818 10.9998 2.54818C10.7237 2.54818 10.4998 2.32432 10.4998 2.04818V1.96457C9.7925 1.88255 8.87826 1.88151 7.63317 1.88151L6.3665 1.88151C5.12142 1.88151 4.20717 1.88255 3.49984 1.96457V2.04818C3.49984 2.32432 3.27598 2.54818 2.99984 2.54818ZM12.8072 5.21484L1.19245 5.21484C1.16687 5.85277 1.1665 6.61538 1.1665 7.54367V7.88602C1.1665 9.35155 1.16742 10.4041 1.26703 11.2051C1.36531 11.9954 1.55216 12.4645 1.8683 12.8062C2.17931 13.1425 2.59802 13.3369 3.3112 13.4406C4.04301 13.5469 5.00775 13.5482 6.3665 13.5482H7.63317C8.99192 13.5482 9.95667 13.5469 10.6885 13.4406C11.4017 13.3369 11.8204 13.1425 12.1314 12.8062C12.4475 12.4645 12.6344 11.9954 12.7326 11.2051C12.8323 10.4041 12.8332 9.35155 12.8332 7.88602V7.54367C12.8332 6.61538 12.8328 5.85277 12.8072 5.21484Z" fill="#F8F8F8"/>
</svg>
