<svg width="16" height="15" viewBox="0 0 16 15" fill="none" xmlns="http://www.w3.org/2000/svg">
<path d="M5.74919 6.42445C5.49461 6.42445 5.28823 6.63083 5.28823 6.88541C5.28823 7.13999 5.49461 7.34637 5.74919 7.34637H7.59303C7.84762 7.34637 8.054 7.13999 8.054 6.88541C8.054 6.63083 7.84762 6.42445 7.59303 6.42445H5.74919Z" fill="#F8F8F8"/>
<path d="M5.74919 3.96599C5.49461 3.96599 5.28823 4.17237 5.28823 4.42695C5.28823 4.68153 5.49461 4.88791 5.74919 4.88791L10.0515 4.88791C10.3061 4.88791 10.5125 4.68153 10.5125 4.42695C10.5125 4.17237 10.3061 3.96599 10.0515 3.96599L5.74919 3.96599Z" fill="#F8F8F8"/>
<path fill-rule="evenodd" clip-rule="evenodd" d="M8.17463 0.892883L8.70922 0.892883C9.68884 0.892879 10.4603 0.892875 11.0723 0.956663C11.6972 1.02179 12.2111 1.15767 12.6506 1.46738C12.8853 1.63271 13.0946 1.82945 13.2716 2.05206C13.6065 2.47311 13.7542 2.96822 13.8246 3.56573C13.8929 4.14619 13.8928 4.87604 13.8928 5.79421V7.40503C13.8928 8.30137 13.8928 8.99699 13.8558 9.55835C13.8183 10.1274 13.7413 10.5904 13.5722 11.0172C13.0571 12.317 11.9724 13.3319 10.6108 13.8098C9.76335 14.1073 8.72347 14.1072 6.90091 14.1071L6.67798 14.1071C5.67299 14.1073 5.0467 14.1075 4.53001 13.9261C3.70086 13.635 3.03612 13.0154 2.71958 12.2167C2.61223 11.9458 2.56614 11.6582 2.54405 11.3233C2.52246 10.9959 2.52246 10.593 2.52246 10.0864L2.52246 6.23419C2.52245 5.1063 2.52244 4.21003 2.62273 3.50798C2.72642 2.78209 2.94532 2.19682 3.43257 1.73824C3.91586 1.28338 4.52604 1.0824 5.28358 0.986538C6.02383 0.892869 6.97126 0.892875 8.17463 0.892883ZM5.39932 1.90117C4.73423 1.98533 4.3462 2.14438 4.06442 2.40958C3.78659 2.67107 3.62296 3.0253 3.53539 3.63835C3.44549 4.26768 3.44438 5.09801 3.44438 6.27076L3.44438 10.0702C3.44438 10.5966 3.44462 10.9692 3.46397 11.2626C3.48305 11.5519 3.51931 11.7323 3.57665 11.877C3.78965 12.4145 4.24479 12.8489 4.83538 13.0562C5.18407 13.1786 5.63812 13.1852 6.78286 13.1852C6.97986 13.1852 7.16585 13.1851 7.34175 13.1848C8.19247 13.155 8.873 12.456 8.873 11.598C8.873 11.5076 8.86903 11.4103 8.86396 11.3012L8.86207 11.2607C8.85759 11.1655 8.85272 11.0619 8.85058 10.9586C8.84573 10.725 8.85311 10.4524 8.92362 10.1892C9.06096 9.67663 9.46132 9.27627 9.97389 9.13893C10.237 9.06842 10.5096 9.06104 10.7433 9.06589C10.8466 9.06804 10.9502 9.0729 11.0454 9.07738L11.0859 9.07927C11.195 9.08434 11.2923 9.08832 11.3827 9.08832C12.2596 9.08832 12.9704 8.37745 12.9704 7.50056C12.9704 7.49348 12.9706 7.48644 12.9709 7.47945C12.9709 7.44933 12.9709 7.41893 12.9709 7.38825V5.82377C12.9709 4.86937 12.9702 4.19379 12.9089 3.67347C12.849 3.16397 12.7362 2.85994 12.5501 2.62595C12.4286 2.4732 12.2838 2.33669 12.1196 2.22103C11.8632 2.04038 11.528 1.93108 10.9767 1.87362C10.4181 1.81539 9.69468 1.81481 8.68258 1.81481L8.20765 1.81481C6.964 1.81481 6.07495 1.81568 5.39932 1.90117ZM12.9376 9.47062C12.5101 9.80853 11.9699 10.0102 11.3827 10.0102C11.2685 10.0102 11.152 10.0053 11.0432 10.0002L11.0014 9.99825C10.9051 9.99374 10.8145 9.98949 10.7241 9.98761C10.5148 9.98326 10.3472 9.99334 10.2125 10.0294C10.0181 10.0815 9.86622 10.2334 9.81412 10.4278C9.77803 10.5625 9.76795 10.7301 9.7723 10.9394C9.77418 11.0298 9.77843 11.1204 9.78294 11.2167L9.78489 11.2585C9.78994 11.3673 9.79493 11.4838 9.79493 11.598C9.79493 12.1773 9.59864 12.7108 9.26894 13.1355C9.69497 13.1006 10.0172 13.0411 10.3055 12.9399C11.4285 12.5457 12.3036 11.7161 12.7151 10.6775C12.8342 10.377 12.9014 10.0211 12.9359 9.49768C12.9365 9.4887 12.9371 9.47968 12.9376 9.47062Z" fill="#F8F8F8"/>
</svg>
