<svg width="14" height="14" viewBox="0 0 14 14" fill="none" xmlns="http://www.w3.org/2000/svg">
<path fill-rule="evenodd" clip-rule="evenodd" d="M7.37518 13.6072C3.72617 13.6072 0.768066 10.6491 0.768066 7.00005C0.768066 3.35105 3.72617 0.392944 7.37518 0.392944C11.0242 0.392944 13.9823 3.35105 13.9823 7.00005C13.9823 10.6491 11.0242 13.6072 7.37518 13.6072ZM1.68999 7.00005C1.68999 10.1399 4.23533 12.6852 7.37518 12.6852C8.77916 12.6852 10.0643 12.1763 11.0561 11.3329L3.04235 3.31912C2.19891 4.31096 1.68999 5.59607 1.68999 7.00005ZM11.708 10.681C12.5514 9.68915 13.0604 8.40404 13.0604 7.00005C13.0604 3.86021 10.515 1.31487 7.37518 1.31487C5.9712 1.31487 4.68608 1.82379 3.69425 2.66723L11.708 10.681Z" fill="#EC2D30"/>
</svg>
