<svg width="20" height="20" viewBox="0 0 20 20" fill="none" xmlns="http://www.w3.org/2000/svg">
<path d="M7.34712 9.17131C7.00898 9.17131 6.73487 9.44543 6.73487 9.78356C6.73487 10.1217 7.00898 10.3958 7.34712 10.3958H12.2451C12.5832 10.3958 12.8573 10.1217 12.8573 9.78356C12.8573 9.44543 12.5832 9.17131 12.2451 9.17131L7.34712 9.17131Z" fill="#EC2D30"/>
<path d="M8.57161 12.3709C8.23347 12.3709 7.95936 12.645 7.95936 12.9831C7.95936 13.3212 8.23347 13.5953 8.57161 13.5953H11.0206C11.3587 13.5953 11.6328 13.3212 11.6328 12.9831C11.6328 12.645 11.3587 12.3709 11.0206 12.3709H8.57161Z" fill="#EC2D30"/>
<path fill-rule="evenodd" clip-rule="evenodd" d="M9.85 1.22449H9.79772C9.38525 1.22448 9.03535 1.22447 8.74499 1.2509C8.43687 1.27895 8.14986 1.3397 7.87232 1.48728C7.76279 1.54552 7.65828 1.61274 7.55985 1.68825C7.31045 1.87957 7.13613 2.11554 6.98281 2.38427C6.83832 2.63751 6.69321 2.95588 6.52213 3.33121L6.18007 4.08163L2.44916 4.08163C2.11103 4.08163 1.83691 4.35574 1.83691 4.69388C1.83691 5.03201 2.11103 5.30612 2.44916 5.30612H3.09725L3.55798 12.938C3.61956 13.9581 3.66842 14.7676 3.77009 15.4143C3.87434 16.0774 4.04197 16.6297 4.37821 17.1129C4.6858 17.5549 5.08209 17.9279 5.54183 18.2083C6.04437 18.5149 6.60576 18.6489 7.27396 18.713C7.92553 18.7755 8.73647 18.7755 9.75841 18.7755H9.82182C10.8424 18.7755 11.6524 18.7755 12.3032 18.7131C12.9706 18.6491 13.5314 18.5153 14.0336 18.2094C14.493 17.9295 14.8892 17.5571 15.1969 17.1158C15.5332 16.6334 15.7014 16.082 15.8064 15.4198C15.9088 14.774 15.9588 13.9657 16.0218 12.947L16.4941 5.30612H17.143C17.4812 5.30612 17.7553 5.03201 17.7553 4.69388C17.7553 4.35574 17.4812 4.08163 17.143 4.08163L13.4903 4.08163L13.0891 3.25394C12.9136 2.89195 12.7647 2.58462 12.618 2.34031C12.4624 2.08096 12.2873 1.85367 12.0409 1.66988C11.9436 1.59725 11.8404 1.53265 11.7326 1.4767C11.4597 1.33514 11.1789 1.2768 10.8776 1.24985C10.5938 1.22447 10.2523 1.22448 9.85 1.22449ZM12.1296 4.08163L7.52577 4.08163L7.62537 3.86313C7.81035 3.45733 7.93276 3.19019 8.04637 2.99108C8.15421 2.80206 8.23158 2.71623 8.30517 2.65978C8.34991 2.62546 8.39742 2.5949 8.44721 2.56843C8.5291 2.52488 8.63929 2.49008 8.85601 2.47035C9.0843 2.44956 9.37815 2.44898 9.82413 2.44898C10.2592 2.44898 10.5457 2.44954 10.7685 2.46947C10.9799 2.48838 11.088 2.52176 11.1687 2.56362C11.2177 2.58905 11.2646 2.61842 11.3089 2.65143C11.3817 2.70578 11.4589 2.78847 11.5681 2.97048C11.6833 3.1623 11.8087 3.4198 11.9985 3.81133L12.1296 4.08163ZM4.77834 12.8326L4.32397 5.30612L15.2673 5.30612L14.8016 12.8398C14.7362 13.8972 14.6892 14.6469 14.597 15.2279C14.5064 15.7991 14.3802 16.1461 14.1925 16.4154C13.9819 16.7174 13.7109 16.9722 13.3965 17.1637C13.1162 17.3345 12.762 17.439 12.1863 17.4942C11.6008 17.5504 10.8495 17.551 9.79017 17.551C8.72944 17.551 7.97719 17.5504 7.3909 17.4941C6.81451 17.4388 6.45995 17.3341 6.17943 17.163C5.86488 16.9711 5.59373 16.7158 5.38327 16.4134C5.19558 16.1437 5.06965 15.7961 4.97972 15.2241C4.88824 14.6423 4.84226 13.8914 4.77834 12.8326Z" fill="#EC2D30"/>
</svg>
