<svg width="16" height="17" viewBox="0 0 16 17" fill="none" xmlns="http://www.w3.org/2000/svg">
<path fill-rule="evenodd" clip-rule="evenodd" d="M5.66683 6.71484C5.66683 5.42618 6.7115 4.38151 8.00016 4.38151C9.28883 4.38151 10.3335 5.42618 10.3335 6.71484C10.3335 8.00351 9.28883 9.04818 8.00016 9.04818C6.7115 9.04818 5.66683 8.00351 5.66683 6.71484ZM8.00016 5.38151C7.26378 5.38151 6.66683 5.97846 6.66683 6.71484C6.66683 7.45122 7.26378 8.04818 8.00016 8.04818C8.73654 8.04818 9.3335 7.45122 9.3335 6.71484C9.3335 5.97846 8.73654 5.38151 8.00016 5.38151Z" fill="#F8F8F8"/>
<path fill-rule="evenodd" clip-rule="evenodd" d="M0.833496 8.38151C0.833496 4.42347 4.04212 1.21484 8.00016 1.21484C11.9582 1.21484 15.1668 4.42347 15.1668 8.38151C15.1668 12.3396 11.9582 15.5482 8.00016 15.5482C4.04212 15.5482 0.833496 12.3396 0.833496 8.38151ZM8.00016 2.21484C4.59441 2.21484 1.8335 4.97575 1.8335 8.38151C1.8335 9.96248 2.42843 11.4045 3.40664 12.4959L3.60639 12.1463C4.28889 10.9519 5.55904 10.2148 6.93466 10.2148H9.06584C10.4415 10.2148 11.7116 10.9519 12.3941 12.1463L12.5938 12.4958C13.5719 11.4044 14.1668 9.96242 14.1668 8.38151C14.1668 4.97575 11.4059 2.21484 8.00016 2.21484ZM11.8459 13.2024L11.5259 12.6425C11.0214 11.7597 10.0826 11.2148 9.06584 11.2148H6.93466C5.9179 11.2148 4.97909 11.7597 4.47463 12.6425L4.15459 13.2025C5.209 14.0447 6.54578 14.5482 8.00016 14.5482C9.4546 14.5482 10.7914 14.0447 11.8459 13.2024Z" fill="#F8F8F8"/>
</svg>
