<svg width="180" height="75" viewBox="0 0 180 75" fill="none" xmlns="http://www.w3.org/2000/svg">
<path d="M0.00493029 74.8477V47.3463H10.6306C17.3198 47.3463 21.1083 50.5774 21.1083 56.2652C21.1083 59.8317 19.584 62.3574 16.5354 63.9212L21.3648 74.8477H14.7891L10.6651 65.2235H6.01826V74.8477H0H0.00493029ZM6.02319 59.9452H10.5961C13.2352 59.9452 14.7595 58.6083 14.7595 56.2652C14.7595 53.922 13.3092 52.6986 10.6355 52.6986H6.02812V59.9452H6.02319Z" fill="#F8F8F8"/>
<path d="M27.4273 74.8477V47.3463H44.8951V52.9206H33.4505V58.3074H43.5977V63.5857H33.4505V69.2735H44.8951V74.8477H27.4273Z" fill="#F8F8F8"/>
<path d="M51.6928 74.8477V47.3463H69.1605V52.9206H57.716V58.3074H67.8632V63.5857H57.716V69.2735H69.1605V74.8477H51.6928Z" fill="#F8F8F8"/>
<path d="M73.4675 47.3463H79.8952L85.0995 61.2426C85.7309 62.9543 86.2538 64.6611 86.8458 67.0388C87.5512 64.3997 88.0741 62.8754 88.6661 61.2426L93.7964 47.3463H100.076L89.9684 74.8477H83.7627L73.4675 47.3463Z" fill="#F8F8F8"/>
<path d="M105.162 74.8477V47.3463H122.63V52.9206H111.185V58.3074H121.332V63.5857H111.185V69.2735H122.63V74.8477H105.162Z" fill="#F8F8F8"/>
<path d="M129.427 74.8477V47.3463H135.372L146.964 64.8486V47.3463H152.908V74.8477H146.964L135.372 57.38V74.8477H129.427Z" fill="#F8F8F8"/>
<path d="M158.374 47.3463H180V52.9206H172.196V74.8477H166.178V52.9206H158.374V47.3463Z" fill="#F8F8F8"/>
<path d="M88.8239 30.732V16.6729H85.4941C85.4842 18.286 85.4793 19.8991 85.4694 21.5122C85.4447 22.0302 85.1438 26.8102 81.1432 29.3507C78.9726 30.727 76.7676 30.7764 75.8007 30.732V10.7632C75.8007 10.1269 75.8501 5.34185 79.7175 2.2982C82.036 0.472991 84.5371 0.201674 85.5681 0.152344C85.5533 2.68297 85.5385 5.21853 85.5335 7.75902C85.5237 10.5067 85.5187 13.2445 85.5237 15.9725C86.6237 15.9873 87.7238 16.007 88.8239 16.0218V4.45391C90.0374 4.65123 93.377 5.35665 96.3269 8.21779C99.4594 11.2565 100.199 14.8329 100.392 16.0218H88.8239C88.8239 16.0218 88.8485 16.0218 88.8633 16.0267C90.0867 16.0366 94.8766 16.2191 99.045 19.9238C103.702 24.0626 104.136 29.5431 104.2 30.6136C99.0746 30.653 93.9492 30.6974 88.8239 30.7369V30.732Z" fill="#F8F8F8"/>
</svg>
