<svg width="122" height="64" viewBox="0 0 122 64" fill="none" xmlns="http://www.w3.org/2000/svg">
<path d="M107.277 33.1306C107.235 32.2832 106.943 31.4615 106.425 30.7978C103.429 26.9055 99.268 25.5845 97.3217 25.1141C96.6513 24.9497 95.9712 24.8498 95.2879 24.7886C92.8299 24.5727 91.9199 24.3923 91.5798 24.1668C87.3795 21.3668 82.8133 19.1822 78.1207 17.3231C76.848 16.8204 75.5429 16.4112 74.2054 16.1341C71.7701 15.6283 69.3023 15.3157 66.8249 15.1192C64.3248 14.9194 61.8117 14.8518 59.3052 14.9033C56.8115 14.9549 54.3179 15.0515 51.8372 15.3318C50.5224 15.4801 49.2108 15.6702 47.9122 15.9376C46.5715 16.2147 45.2631 16.6239 43.9969 17.1265C39.3043 18.9857 34.7381 21.1702 30.5378 23.9702C30.1945 24.1958 29.2845 24.373 26.8232 24.5921C26.1399 24.6533 25.4663 24.7564 24.7959 24.9175C22.8496 25.3879 18.6882 26.709 15.6861 30.598C15.1712 31.2682 14.8829 32.0898 14.8376 32.9372C14.7664 34.3034 14.7113 36.43 14.6886 37.5609C14.6692 38.2376 14.8991 38.8884 15.3493 39.3975C15.4562 39.5135 15.576 39.6424 15.7152 39.7616C16.2787 40.2707 17.0009 40.5671 17.7587 40.6283C18.6266 40.7057 19.8702 40.8249 19.8702 40.8249C19.8702 40.8249 20.1163 41.5144 20.709 42.4585C23.6139 47.0918 29.8998 48.4257 34.3851 45.2778C35.6707 44.3724 36.7394 43.0739 37.1313 41.2083C37.1993 40.725 39.4824 34.9736 34.0159 31.2489C31.804 29.7442 29.0869 29.2158 26.4799 29.8312C23.7758 30.4691 20.6312 32.3959 19.6629 38.2247C19.6629 38.2247 17.4672 38.0958 17.4672 38.0893L17.7652 31.5936C17.7943 31.5711 23.3807 27.2374 27.2539 27.2374C27.3835 27.1955 30.1718 27.2374 31.8072 26.1645C33.909 24.7822 36.0464 23.5288 38.336 22.4526C43.116 20.2004 48.2555 18.5217 53.5374 17.9965C60.0532 17.3489 66.7051 17.4262 73.0849 19.0276C73.1497 19.0437 73.2144 19.0598 73.2792 19.0759C74.05 19.2724 74.8142 19.4851 75.572 19.7171C79.9634 21.0446 84.2447 22.8457 88.2442 25.0818C88.7591 25.3686 89.2708 25.6618 89.7663 25.9808C89.8634 26.042 90.2877 26.2353 90.3136 26.3674C91.9458 27.4372 94.7406 27.3921 94.8701 27.4372C98.7369 27.4372 104.333 31.7709 104.359 31.7934C104.359 31.7934 104.657 38.2891 104.657 38.2923L102.455 38.4212C101.972 35.5085 100.946 33.5656 99.6987 32.2767C98.4551 30.9879 96.9946 30.3467 95.6409 30.0277C93.0339 29.4155 90.3168 29.9407 88.1082 31.4454C82.6416 35.1701 84.9248 40.9215 84.9863 41.4049C85.3814 43.2704 86.4501 44.5689 87.7358 45.4743C92.2211 48.6223 98.507 47.2916 101.412 42.655C102.005 41.7109 102.251 41.0214 102.251 41.0214C102.251 41.0214 103.494 40.9022 104.362 40.8281C105.12 40.7604 105.842 40.464 106.406 39.9549C106.545 39.8357 106.665 39.7068 106.772 39.5908C107.218 39.0882 107.445 38.4309 107.432 37.7542C107.403 36.6265 107.348 34.5032 107.277 33.1306ZM28.585 33.079C31.5967 33.079 34.0418 35.5793 34.0418 38.6661C34.0418 41.7464 31.5935 44.2499 28.585 44.2499C25.5699 44.2499 23.1216 41.7496 23.1216 38.6661C23.1216 35.5826 25.5699 33.079 28.585 33.079ZM93.5229 44.4465C90.5079 44.4465 88.0661 41.9462 88.0661 38.8626C88.0661 35.7759 90.5079 33.2788 93.5229 33.2788C96.538 33.2788 98.9863 35.7759 98.9863 38.8626C98.9863 41.9462 96.538 44.4465 93.5229 44.4465Z" fill="#272F67"/>
<path d="M68.1016 24.8038C68.1209 24.7941 68.1694 24.8071 68.2373 24.8525C68.1888 24.8362 68.1468 24.8168 68.1016 24.8038Z" fill="white"/>
<path d="M75.505 29.626C75.3366 29.5841 71.5217 26.0366 68.2411 24.8477C68.9827 25.2923 72.1467 28.9204 67.2695 39.1343H76.1851C76.1851 39.1375 78.18 34.1917 75.505 29.626ZM74.5723 32.7224C74.5399 31.5496 73.9376 30.8278 73.9376 30.7634C73.7497 32.2874 72.4867 34.8135 72.409 34.994C72.9207 33.4538 72.3993 29.9321 72.3993 29.5003C71.5994 34.5944 70.0805 35.7318 69.8279 35.9509C71.1946 33.196 71.133 27.5252 71.133 27.5252L74.9868 30.6925C74.9868 30.6957 74.6338 32.8835 74.5723 32.7224Z" fill="url(#paint0_linear_3241_23818)"/>
<path d="M64.9702 38.9884H66.3077C66.3077 38.9884 69.0863 33.7493 69.1219 29.493C69.1413 27.2343 68.2637 23.603 65.226 24.9337C64.0148 25.4654 62.9979 26.3708 62.1656 27.3954C60.9188 28.9291 59.9117 30.727 59.0599 32.5088C58.5547 33.5624 58.1143 34.6451 57.7322 35.7502C57.3889 36.7426 56.9258 37.9509 56.9258 38.9916C56.9258 38.9401 60.1092 38.9916 60.1092 38.9916C60.1092 38.9916 62.1106 31.3102 65.851 29.5606C66.3692 29.319 66.9877 29.5187 67.2403 30.0311C67.548 30.6594 67.7488 31.8064 67.2663 33.8685C67.4023 33.8653 66.3919 37.2678 64.9702 38.9884Z" fill="url(#paint1_linear_3241_23818)"/>
<path d="M61.9553 39.1404H61C61 39.1404 62.4346 33.5211 66.0326 31.43C66.0326 31.3977 63.39 34.2718 61.9553 39.1404Z" fill="url(#paint2_linear_3241_23818)"/>
<path d="M42.8274 35.9375H39.793V39.4206H42.8274V35.9375Z" fill="url(#paint3_linear_3241_23818)"/>
<path d="M41.3101 29.0078C41.3101 29.0433 38.946 29.2044 38.2594 31.6048C38.0781 32.246 38.1946 32.9291 38.58 33.4704C39.0949 34.2018 39.788 35.4326 39.788 35.4326H42.8257L44.3024 33.0676V31.2858C44.3024 31.289 43.7195 29.0819 41.3101 29.0078ZM42.4435 34.1277L40.2576 34.1535L39.0496 32.2202L40.2576 30.1678H42.3205L43.4475 32.2202L42.4435 34.1277Z" fill="url(#paint4_linear_3241_23818)"/>
<path d="M49.0116 39.728L50.443 39.4187C50.443 39.4187 50.5596 36.1289 49.0116 33.8928C49.0991 34.0378 49.0116 31.6857 49.0116 31.6857C49.0116 31.6857 49.0116 30.9897 47.347 30.6417C47.0847 30.5547 46.7933 29.4528 47.347 29.1886C47.4928 29.1886 47.4053 25.9375 47.4053 25.9375H46.8807C46.8807 25.9375 46.1229 28.1446 46.0938 30.4677C46.1229 30.6127 46.0938 32.8327 46.0938 32.8327C46.0938 32.8327 46.6767 33.7478 47.6709 33.7768C47.8458 33.8058 47.9041 35.1107 47.9041 35.1107C47.9041 35.1107 48.895 36.5349 49.0116 39.728Z" fill="url(#paint5_linear_3241_23818)"/>
<path d="M46.0928 39.4146L44.7812 38.5929C44.7812 38.5929 45.0727 34.7329 46.3001 33.5117C46.1252 33.5987 47.5825 34.1497 47.5825 34.1497C47.5825 34.1497 46.0054 36.8981 46.0928 39.4146Z" fill="url(#paint6_linear_3241_23818)"/>
<path d="M47.9922 30.1681C47.9922 30.1681 48.7208 30.6707 49.2455 31.2797C49.158 31.0767 49.2455 29.5946 49.2455 29.5946C49.2455 29.5946 48.2837 26.4885 48.3711 25.9375C48.2837 26.1115 47.9922 25.9375 47.9922 25.9375V29.1886C47.9922 29.1886 48.2545 29.8104 47.9922 30.1681Z" fill="url(#paint7_linear_3241_23818)"/>
<path d="M52.0415 39.4166H55.6588V38.9139H55.2508V38.6529H55.6588V38.1019H55.2508V37.8377H55.6588V37.3738H55.3091V36.7938H56.2741V35.2859H55.3674V34.4707H56.2741V33.1367H55.3674V29.9727H52.2455V33.0787H51.3711V34.4707H52.4495V35.1989H51.4877V36.9452H52.4786V37.3738H51.9249V37.8087H52.5078V38.1019H51.8666V38.6239H52.4204V39.0589H51.8666L52.0415 39.4166Z" fill="url(#paint8_linear_3241_23818)"/>
<path d="M52.3047 26.5403H55.2226V26.0763H54.5522V24.2494H54.7854V22.7383H52.8585V24.2494L53.26 24.649V25.9313H52.3047V26.5403Z" fill="url(#paint9_linear_3241_23818)"/>
<path d="M55.4729 26.6758H52.2344V27.2847H55.4729V26.6758Z" fill="url(#paint10_linear_3241_23818)"/>
<path d="M55.4729 27.4844H52.2344V28.0934H55.4729V27.4844Z" fill="url(#paint11_linear_3241_23818)"/>
<path d="M55.4729 28.2891H52.2344V28.898H55.4729V28.2891Z" fill="url(#paint12_linear_3241_23818)"/>
<path d="M55.4729 29.0977H52.2344V29.7066H55.4729V29.0977Z" fill="url(#paint13_linear_3241_23818)"/>
<path d="M77.8606 29.6124C77.9513 28.9777 78.2266 26.1326 78.2266 26.1326C78.2266 26.1326 81.8958 25.9457 84.1756 26.7351C84.1141 26.7738 83.8388 29.5899 83.7806 30.1956C83.7741 30.26 83.719 30.3116 83.6542 30.3116L83.2818 30.318C83.2818 30.318 83.3595 29.3708 82.6633 29.1452C82.6665 29.1742 82.7928 27.7694 82.8511 27.1153C82.8673 26.9349 82.7345 26.7738 82.5532 26.7544L79.7875 26.458C79.6029 26.4387 79.4378 26.5708 79.4183 26.7544L79.1851 28.8198C79.1851 28.8198 78.4532 28.9229 78.3593 29.8154C78.3302 29.8154 78.1132 29.7832 77.9675 29.7606C77.8995 29.7477 77.8509 29.6833 77.8606 29.6124Z" fill="url(#paint14_linear_3241_23818)"/>
<path d="M80.0127 26.7354L82.3476 26.9545C82.5031 26.9706 82.6164 27.106 82.6002 27.2606C82.5387 27.8277 82.4092 29.065 82.4286 29.0875C82.3217 29.0747 82.2051 29.1198 82.0918 29.1874C81.7841 29.3807 81.5995 29.7158 81.5672 30.0767C81.5348 30.4891 81.4862 31.0788 81.483 31.2753L81.0328 36.4725L81.0166 36.6465C80.9907 36.8592 80.9745 37.0525 80.968 37.2233C80.9389 37.8709 81.0134 38.2124 81.0166 38.1802C81.9104 38.8762 81.972 39.2403 81.972 39.2403L82.1307 39.2371C82.2958 39.2338 82.4254 39.3724 82.4092 39.5335L82.2213 41.5473C82.2084 41.6826 82.0983 41.7889 81.959 41.7954C81.8619 41.7986 81.7712 41.7986 81.7647 41.7761C79.3553 43.777 77.8915 41.4216 77.8915 41.4216L77.6551 41.4152C77.4996 41.412 77.3798 41.2734 77.396 41.1188L77.613 39.1533C77.6292 38.9986 77.7781 38.8891 77.9303 38.9213C78.021 38.9374 78.1052 38.96 78.1408 38.9825C78.3157 38.4702 79.3974 37.8935 79.3974 37.8935C79.3974 37.8935 79.4913 37.3425 79.5625 36.9011L79.9285 30.9918C79.9576 30.6889 80.0159 30.0896 80.0451 29.9156C80.0613 29.8286 80.071 29.7384 80.0677 29.6514C80.0418 28.9973 79.4686 28.7589 79.4686 28.7589L79.705 26.9706C79.7309 26.8289 79.8637 26.7225 80.0127 26.7354ZM78.7108 41.3669C79.3002 42.0403 80.3236 42.1112 81.0004 41.5247C81.6773 40.9415 81.7485 39.9201 81.1591 39.2467C80.5697 38.5733 79.5463 38.5024 78.8695 39.0856C78.1959 39.6753 78.1247 40.6934 78.7108 41.3669ZM80.5924 28.4528C80.7737 28.6654 81.1008 28.6912 81.321 28.5043C81.5413 28.3175 81.5704 27.9953 81.3858 27.7794C81.2044 27.5635 80.8774 27.5409 80.6571 27.7278C80.4369 27.9147 80.4078 28.2401 80.5924 28.4528Z" fill="url(#paint15_linear_3241_23818)"/>
<path d="M84.0724 26.4775C83.5607 26.3647 80.6201 25.7525 78.418 25.9265C78.3435 25.9329 78.2755 25.9007 78.2334 25.8395C78.2075 25.8008 78.1945 25.759 78.2237 25.7074C78.256 25.6494 78.3208 25.6172 78.3856 25.6172C78.4018 25.6172 78.418 25.6172 78.4309 25.6172C78.4504 25.6172 78.4698 25.6172 78.4892 25.6172C78.5119 25.6172 78.5346 25.6172 78.554 25.6172C78.5799 25.6172 78.6026 25.6172 78.6285 25.6172C78.6576 25.6172 78.6835 25.6172 78.7127 25.6172C78.7451 25.6172 78.7742 25.6172 78.8066 25.6172C78.839 25.6172 78.8746 25.6172 78.907 25.6172C78.9426 25.6172 78.9782 25.6172 79.0139 25.6204C79.0527 25.6204 79.0916 25.6204 79.1304 25.6236C79.1725 25.6236 79.2114 25.6269 79.2535 25.6269C79.2956 25.6269 79.3409 25.6301 79.383 25.6301C79.4284 25.6301 79.4737 25.6333 79.5191 25.6333C79.5676 25.6365 79.613 25.6365 79.6616 25.6397C79.7101 25.643 79.7587 25.643 79.8105 25.6462C79.8623 25.6494 79.9141 25.6526 79.9627 25.6526C80.0145 25.6558 80.0696 25.6591 80.1214 25.6623C80.1765 25.6655 80.2315 25.6687 80.2833 25.672C80.3384 25.6752 80.3934 25.6784 80.4517 25.6816C80.51 25.6848 80.5651 25.6913 80.6234 25.6945C80.6817 25.6977 80.74 25.7042 80.7983 25.7074C80.8566 25.7138 80.9181 25.7171 80.9764 25.7235C81.0379 25.73 81.0962 25.7332 81.1577 25.7396C81.2193 25.7461 81.2808 25.7525 81.3423 25.759C81.4039 25.7654 81.4654 25.7718 81.5301 25.7783C81.5917 25.7847 81.6565 25.7912 81.718 25.8008C81.7828 25.8073 81.8443 25.817 81.9091 25.8234C81.9738 25.8331 82.0354 25.8395 82.1001 25.8492C82.1649 25.8588 82.2297 25.8653 82.2912 25.8749C82.356 25.8846 82.4207 25.8943 82.4855 25.9039C82.5503 25.9136 82.615 25.9233 82.6798 25.9362C82.7446 25.9458 82.8094 25.9587 82.8741 25.9684C82.9389 25.9813 83.0037 25.9909 83.0684 26.0038C83.1332 26.0167 83.198 26.0296 83.2595 26.0425C83.3243 26.0554 83.3858 26.0683 83.4506 26.0812C83.5153 26.0941 83.5769 26.1102 83.6416 26.1231C83.7032 26.1359 83.7679 26.152 83.8295 26.1682C83.891 26.1843 83.9525 26.2004 84.0173 26.2165C84.0529 26.2229 84.0853 26.2326 84.1209 26.2455C84.1468 26.2552 84.176 26.2584 84.2019 26.2648C84.231 26.2745 84.2537 26.2938 84.2731 26.3196C84.2861 26.3357 84.2958 26.355 84.2893 26.3776C84.2861 26.4034 84.2667 26.4227 84.2505 26.4388C84.2019 26.4743 84.1339 26.4904 84.0724 26.4775Z" fill="url(#paint16_linear_3241_23818)"/>
<path d="M78.332 25.4639L78.4842 23.7723C78.4842 23.7723 82.4611 23.5467 84.3718 24.4199C84.3167 24.3877 84.2261 26.047 84.2261 26.047C84.2261 26.047 80.6087 25.2254 78.332 25.4639Z" fill="url(#paint17_linear_3241_23818)"/>
<path d="M80.6695 36.0156C80.6113 36.2057 80.5629 36.3765 80.5273 36.5312L80.6695 36.0156Z" fill="url(#paint18_linear_3241_23818)"/>
<path d="M80.7101 35.8633L80.668 36.0184C80.6842 35.9699 80.7004 35.9182 80.7198 35.8633C80.7198 35.8633 80.7166 35.8633 80.7101 35.8633Z" fill="url(#paint19_linear_3241_23818)"/>
<path d="M117.009 0H4.99049C2.24426 0 0 2.24256 0 4.97166V59.0348C0 61.7671 2.24102 64 4.99049 64H117.009C119.743 64 122 61.7703 122 59.0348V4.96843C122 2.24256 119.743 0 117.009 0ZM114.561 52.4167C114.561 55.6967 111.88 58.3678 108.58 58.3678H11.8723C8.58197 58.3678 5.87784 55.6999 5.87784 52.4167V11.6929C5.87784 8.43216 8.57873 5.74173 11.8723 5.74173H108.58C111.877 5.74173 114.561 8.42894 114.561 11.6929V52.4167Z" fill="url(#paint20_linear_3241_23818)"/>
<defs>
<linearGradient id="paint0_linear_3241_23818" x1="67.2683" y1="31.9929" x2="76.9001" y2="31.9929" gradientUnits="userSpaceOnUse">
<stop offset="1.11884e-07" stop-color="#00A19A"/>
<stop offset="1" stop-color="#95C11F"/>
</linearGradient>
<linearGradient id="paint1_linear_3241_23818" x1="56.9236" y1="31.8185" x2="69.1219" y2="31.8185" gradientUnits="userSpaceOnUse">
<stop offset="1.11884e-07" stop-color="#00A19A"/>
<stop offset="1" stop-color="#95C11F"/>
</linearGradient>
<linearGradient id="paint2_linear_3241_23818" x1="61.0005" y1="35.2851" x2="66.0325" y2="35.2851" gradientUnits="userSpaceOnUse">
<stop offset="1.11884e-07" stop-color="#00A19A"/>
<stop offset="1" stop-color="#95C11F"/>
</linearGradient>
<linearGradient id="paint3_linear_3241_23818" x1="39.7924" y1="37.6788" x2="42.8271" y2="37.6788" gradientUnits="userSpaceOnUse">
<stop offset="1.11884e-07" stop-color="#00A19A"/>
<stop offset="1" stop-color="#95C11F"/>
</linearGradient>
<linearGradient id="paint4_linear_3241_23818" x1="38.1768" y1="32.2197" x2="44.302" y2="32.2197" gradientUnits="userSpaceOnUse">
<stop offset="1.11884e-07" stop-color="#00A19A"/>
<stop offset="1" stop-color="#95C11F"/>
</linearGradient>
<linearGradient id="paint5_linear_3241_23818" x1="46.0939" y1="32.8334" x2="50.4437" y2="32.8334" gradientUnits="userSpaceOnUse">
<stop offset="1.11884e-07" stop-color="#00A19A"/>
<stop offset="1" stop-color="#95C11F"/>
</linearGradient>
<linearGradient id="paint6_linear_3241_23818" x1="44.7799" y1="36.4631" x2="47.5812" y2="36.4631" gradientUnits="userSpaceOnUse">
<stop offset="1.11884e-07" stop-color="#00A19A"/>
<stop offset="1" stop-color="#95C11F"/>
</linearGradient>
<linearGradient id="paint7_linear_3241_23818" x1="47.9913" y1="28.6092" x2="49.246" y2="28.6092" gradientUnits="userSpaceOnUse">
<stop offset="1.11884e-07" stop-color="#00A19A"/>
<stop offset="1" stop-color="#95C11F"/>
</linearGradient>
<linearGradient id="paint8_linear_3241_23818" x1="51.3708" y1="34.6942" x2="56.273" y2="34.6942" gradientUnits="userSpaceOnUse">
<stop offset="1.11884e-07" stop-color="#00A19A"/>
<stop offset="1" stop-color="#95C11F"/>
</linearGradient>
<linearGradient id="paint9_linear_3241_23818" x1="52.3055" y1="24.6402" x2="55.2235" y2="24.6402" gradientUnits="userSpaceOnUse">
<stop offset="1.11884e-07" stop-color="#00A19A"/>
<stop offset="1" stop-color="#95C11F"/>
</linearGradient>
<linearGradient id="paint10_linear_3241_23818" x1="52.2339" y1="26.9807" x2="55.4728" y2="26.9807" gradientUnits="userSpaceOnUse">
<stop offset="1.11884e-07" stop-color="#00A19A"/>
<stop offset="1" stop-color="#95C11F"/>
</linearGradient>
<linearGradient id="paint11_linear_3241_23818" x1="52.2339" y1="27.7902" x2="55.4728" y2="27.7902" gradientUnits="userSpaceOnUse">
<stop offset="1.11884e-07" stop-color="#00A19A"/>
<stop offset="1" stop-color="#95C11F"/>
</linearGradient>
<linearGradient id="paint12_linear_3241_23818" x1="52.2339" y1="28.5942" x2="55.4728" y2="28.5942" gradientUnits="userSpaceOnUse">
<stop offset="1.11884e-07" stop-color="#00A19A"/>
<stop offset="1" stop-color="#95C11F"/>
</linearGradient>
<linearGradient id="paint13_linear_3241_23818" x1="52.2339" y1="29.4037" x2="55.4728" y2="29.4037" gradientUnits="userSpaceOnUse">
<stop offset="1.11884e-07" stop-color="#00A19A"/>
<stop offset="1" stop-color="#95C11F"/>
</linearGradient>
<linearGradient id="paint14_linear_3241_23818" x1="77.8595" y1="28.2174" x2="84.1767" y2="28.2174" gradientUnits="userSpaceOnUse">
<stop offset="1.11884e-07" stop-color="#00A19A"/>
<stop offset="1" stop-color="#95C11F"/>
</linearGradient>
<linearGradient id="paint15_linear_3241_23818" x1="77.3965" y1="34.6612" x2="82.6033" y2="34.6612" gradientUnits="userSpaceOnUse">
<stop offset="1.11884e-07" stop-color="#00A19A"/>
<stop offset="1" stop-color="#95C11F"/>
</linearGradient>
<linearGradient id="paint16_linear_3241_23818" x1="78.206" y1="26.0463" x2="84.2845" y2="26.0463" gradientUnits="userSpaceOnUse">
<stop offset="1.11884e-07" stop-color="#00A19A"/>
<stop offset="1" stop-color="#95C11F"/>
</linearGradient>
<linearGradient id="paint17_linear_3241_23818" x1="78.3324" y1="24.8968" x2="84.3714" y2="24.8968" gradientUnits="userSpaceOnUse">
<stop offset="1.11884e-07" stop-color="#00A19A"/>
<stop offset="1" stop-color="#95C11F"/>
</linearGradient>
<linearGradient id="paint18_linear_3241_23818" x1="80.5281" y1="36.2737" x2="80.6691" y2="36.2737" gradientUnits="userSpaceOnUse">
<stop offset="1.11884e-07" stop-color="#00A19A"/>
<stop offset="1" stop-color="#95C11F"/>
</linearGradient>
<linearGradient id="paint19_linear_3241_23818" x1="80.6675" y1="35.9407" x2="80.7185" y2="35.9407" gradientUnits="userSpaceOnUse">
<stop offset="1.11884e-07" stop-color="#00A19A"/>
<stop offset="1" stop-color="#95C11F"/>
</linearGradient>
<linearGradient id="paint20_linear_3241_23818" x1="0.00174878" y1="31.9971" x2="121.999" y2="31.9971" gradientUnits="userSpaceOnUse">
<stop stop-color="#E21876"/>
<stop offset="1" stop-color="#313482"/>
</linearGradient>
</defs>
</svg>
