<svg width="12" height="12" viewBox="0 0 12 12" fill="none" xmlns="http://www.w3.org/2000/svg">
<path d="M6.00261 6.65042C5.93761 6.65042 5.8726 6.63543 5.8126 6.60043L1.39761 4.04544C1.21761 3.94044 1.1576 3.71042 1.2626 3.53042C1.3676 3.35042 1.5926 3.29041 1.7776 3.39541L6.00261 5.84042L10.2026 3.41043C10.3826 3.30543 10.6126 3.37044 10.7176 3.54544C10.8226 3.72544 10.7576 3.95542 10.5826 4.06042L6.19761 6.60043C6.13261 6.63043 6.06761 6.65042 6.00261 6.65042Z" fill="#313482"/>
<path d="M6 11.1795C5.795 11.1795 5.625 11.0095 5.625 10.8045V6.26953C5.625 6.06453 5.795 5.89453 6 5.89453C6.205 5.89453 6.375 6.06453 6.375 6.26953V10.8045C6.375 11.0095 6.205 11.1795 6 11.1795Z" fill="#313482"/>
<path d="M5.9975 11.3761C5.5575 11.3761 5.1175 11.2811 4.7775 11.0861L2.1075 9.60611C1.3825 9.20611 0.8125 8.2411 0.8125 7.4111V4.58108C0.8125 3.75108 1.3825 2.7911 2.1075 2.3861L4.7775 0.906094C5.4575 0.526094 6.52749 0.526094 7.21249 0.906094L9.88249 2.3861C10.6075 2.7861 11.1775 3.75108 11.1775 4.58108V7.4111C11.1775 7.4461 11.1775 7.49609 11.1625 7.56109C11.1325 7.69109 11.0375 7.79609 10.9125 7.83609C10.7875 7.87609 10.6475 7.8511 10.5475 7.7611C9.9775 7.2611 9.08749 7.2411 8.47749 7.7261C8.09249 8.0311 7.86749 8.49609 7.86749 8.99109C7.86749 9.28609 7.94749 9.57611 8.10249 9.82611C8.14249 9.89611 8.18249 9.95109 8.22749 10.0011C8.30249 10.0861 8.3325 10.2011 8.3125 10.3111C8.2925 10.4211 8.2225 10.5211 8.1225 10.5711L7.2075 11.0761C6.8725 11.2811 6.4375 11.3761 5.9975 11.3761ZM5.9975 1.37609C5.6875 1.37609 5.37249 1.4411 5.14749 1.5661L2.47749 3.04611C1.99249 3.31611 1.57249 4.03108 1.57249 4.58108V7.4111C1.57249 7.9611 1.99749 8.6811 2.47749 8.9461L5.14749 10.4261C5.60249 10.6811 6.39749 10.6811 6.85249 10.4261L7.41249 10.1161C7.22749 9.78109 7.1275 9.39108 7.1275 8.99109C7.1275 8.26109 7.4525 7.5861 8.0175 7.1361C8.7025 6.5911 9.67249 6.47609 10.4325 6.80609V4.57611C10.4325 4.02611 10.0075 3.3061 9.5275 3.0411L6.8575 1.56109C6.6225 1.44109 6.3075 1.37609 5.9975 1.37609Z" fill="#313482"/>
<path d="M9.5 11.375C8.19 11.375 7.125 10.31 7.125 9C7.125 8.27 7.45 7.59499 8.015 7.14499C8.435 6.80999 8.965 6.625 9.5 6.625C10.81 6.625 11.875 7.69 11.875 9C11.875 9.68 11.58 10.33 11.065 10.78C10.63 11.165 10.075 11.375 9.5 11.375ZM9.5 7.375C9.13 7.375 8.78 7.49999 8.485 7.73499C8.1 8.03999 7.875 8.505 7.875 9C7.875 9.895 8.605 10.625 9.5 10.625C9.89 10.625 10.27 10.48 10.575 10.22C10.925 9.91 11.125 9.47 11.125 9C11.125 8.105 10.395 7.375 9.5 7.375Z" fill="#313482"/>
<path d="M8.99799 9.875C8.87299 9.875 8.74799 9.81001 8.67799 9.69501C8.57299 9.51501 8.62799 9.28499 8.80799 9.17999L9.253 8.91501V8.375C9.253 8.17 9.423 8 9.628 8C9.833 8 10.003 8.17 10.003 8.375V9.125C10.003 9.255 9.93299 9.38001 9.82299 9.44501L9.19799 9.82001C9.12799 9.86001 9.06299 9.875 8.99799 9.875Z" fill="#313482"/>
</svg>
