<svg width="330" height="290" viewBox="0 0 330 290" fill="none" xmlns="http://www.w3.org/2000/svg">
<path d="M7.68773 122.096C12.6094 127.016 19.2853 129.78 26.2466 129.78C31.4764 129.78 36.5438 128.22 40.8286 125.358L22.1448 144.032C17.2231 148.952 14.4571 155.624 14.4571 162.582C14.4571 169.54 17.2221 176.212 22.1448 181.132C27.0665 186.051 33.7423 188.815 40.7036 188.815C45.9324 188.815 51.0008 187.255 55.2857 184.394L45.4796 194.195C40.5579 199.114 37.7919 205.787 37.7919 212.745C37.7919 219.703 40.5569 226.375 45.4796 231.294C50.4014 236.214 57.0772 238.978 64.0385 238.978C69.2673 238.978 74.3357 237.418 78.6205 234.557L76.2246 236.952C71.3029 241.871 68.5369 248.543 68.5369 255.501C68.5369 262.459 71.3019 269.131 76.2246 274.051C81.1464 278.97 87.8222 281.735 94.7835 281.735C101.745 281.735 108.421 278.971 113.342 274.051L138.214 249.192C135.35 253.474 133.79 258.54 133.79 263.767C133.79 270.724 136.555 277.397 141.478 282.316C146.4 287.235 153.075 290 160.037 290C166.998 290 173.674 287.236 178.595 282.316L216.385 244.545C213.522 248.828 211.962 253.894 211.962 259.12C211.962 266.078 214.727 272.75 219.65 277.669C224.571 282.589 231.247 285.353 238.208 285.353C245.17 285.353 251.845 282.59 256.767 277.669L315.598 218.867C320.52 213.948 323.286 207.276 323.286 200.318C323.286 193.36 320.521 186.687 315.598 181.768C310.677 176.849 304.001 174.084 297.04 174.084C291.811 174.084 286.742 175.645 282.458 178.506L294.773 166.197C299.694 161.277 302.46 154.605 302.46 147.647C302.46 140.689 299.695 134.017 294.773 129.097C289.851 124.178 283.175 121.414 276.214 121.414C270.985 121.414 265.917 122.974 261.632 125.835L286.503 100.976C291.425 96.0567 294.191 89.3842 294.191 82.4264C294.191 75.4685 291.426 68.796 286.503 63.8768C281.581 58.9575 274.906 56.1929 267.944 56.1929C262.716 56.1929 257.647 57.7533 253.362 60.6143L269.201 44.7831C274.123 39.8638 276.889 33.1913 276.889 26.2335C276.889 19.2757 274.124 12.6032 269.201 7.6839C264.28 2.76463 257.604 0 250.643 0C243.681 0 237.005 2.76365 232.084 7.6839L196.803 42.9472C199.666 38.6645 201.226 33.5986 201.226 28.3724C201.226 21.4146 198.461 14.7421 193.539 9.8228C188.617 4.90353 181.941 2.1389 174.98 2.1389C168.019 2.1389 161.343 4.90254 156.421 9.8228L106.9 59.3195C109.763 55.0368 111.324 49.971 111.324 44.7437C111.324 37.7859 108.559 31.1134 103.637 26.1941C98.7149 21.2749 92.0391 18.5102 85.0778 18.5102C78.1166 18.5102 71.4407 21.2739 66.519 26.1941L7.68773 84.9972C2.76601 89.9164 0 96.5889 0 103.547C0 110.505 2.76502 117.177 7.68773 122.096Z" fill="#E6E6E6"/>
<path d="M322.511 233.916L320.694 235.732C319.985 236.441 319.985 237.591 320.694 238.3C321.404 239.01 322.555 239.01 323.265 238.3L325.081 236.485L326.897 238.3C327.606 239.01 328.757 239.01 329.467 238.3C330.177 237.591 330.177 236.441 329.467 235.732L327.651 233.916L329.467 232.101C330.177 231.392 330.177 230.242 329.467 229.532C329.112 229.177 328.647 229 328.181 229C327.716 229 327.251 229.177 326.896 229.532L325.08 231.347L323.264 229.532C322.908 229.177 322.444 229 321.978 229C321.512 229 321.048 229.177 320.692 229.532C319.983 230.242 319.983 231.392 320.692 232.101L322.509 233.916H322.511Z" fill="url(#paint0_linear_1583_13777)"/>
<path d="M63.0144 273.018L61.1983 274.833C60.4886 275.542 60.4886 276.693 61.1983 277.402C61.908 278.111 63.0587 278.111 63.7684 277.402L65.5846 275.587L67.4007 277.402C68.1104 278.111 69.2611 278.111 69.9708 277.402C70.6805 276.693 70.6805 275.542 69.9708 274.833L68.1547 273.018L69.9708 271.203C70.6805 270.493 70.6805 269.343 69.9708 268.634C69.6154 268.279 69.1508 268.102 68.6852 268.102C68.2196 268.102 67.755 268.279 67.3997 268.634L65.5836 270.449L63.7675 268.634C63.4121 268.279 62.9475 268.102 62.4819 268.102C62.0163 268.102 61.5517 268.279 61.1963 268.634C60.4866 269.343 60.4866 270.493 61.1963 271.203L63.0125 273.018H63.0144Z" fill="url(#paint1_linear_1583_13777)"/>
<path d="M16.5457 112.123L14.7296 113.939C14.0199 114.648 14.0199 115.798 14.7296 116.507C15.4393 117.217 16.59 117.217 17.2997 116.507L19.1158 114.692L20.9319 116.507C21.6416 117.217 22.7923 117.217 23.502 116.507C24.2118 115.798 24.2118 114.648 23.502 113.939L21.6859 112.123L23.502 110.308C24.2118 109.599 24.2118 108.449 23.502 107.739C23.1467 107.384 22.6821 107.207 22.2165 107.207C21.7509 107.207 21.2863 107.384 20.9309 107.739L19.1148 109.555L17.2987 107.739C16.9434 107.384 16.4787 107.207 16.0131 107.207C15.5476 107.207 15.0829 107.384 14.7276 107.739C14.0179 108.449 14.0179 109.599 14.7276 110.308L16.5437 112.123H16.5457Z" fill="url(#paint2_linear_1583_13777)"/>
<path d="M235.128 18.8421L233.312 20.6573C232.602 21.3667 232.602 22.5168 233.312 23.2262C234.021 23.9355 235.172 23.9355 235.882 23.2262L237.698 21.4109L239.514 23.2262C240.224 23.9355 241.374 23.9355 242.084 23.2262C242.794 22.5168 242.794 21.3667 242.084 20.6573L240.268 18.8421L242.084 17.0269C242.794 16.3175 242.794 15.1674 242.084 14.458C241.729 14.1029 241.264 13.9258 240.799 13.9258C240.333 13.9258 239.868 14.1029 239.513 14.458L237.697 16.2733L235.881 14.458C235.525 14.1029 235.061 13.9258 234.595 13.9258C234.13 13.9258 233.665 14.1029 233.31 14.458C232.6 15.1674 232.6 16.3175 233.31 17.0269L235.126 18.8421H235.128Z" fill="url(#paint3_linear_1583_13777)"/>
<path d="M201.876 275.555C204.803 275.555 207.185 277.936 207.185 280.862C207.185 283.788 204.803 286.169 201.876 286.169C198.949 286.169 196.566 283.788 196.566 280.862C196.566 277.936 198.949 275.555 201.876 275.555ZM201.876 282.535C202.799 282.535 203.55 281.784 203.55 280.862C203.55 279.939 202.799 279.188 201.876 279.188C200.953 279.188 200.202 279.939 200.202 280.862C200.202 281.784 200.953 282.535 201.876 282.535Z" fill="url(#paint4_linear_1583_13777)"/>
<path d="M301.942 106.453C304.87 106.453 307.252 108.834 307.252 111.76C307.252 114.686 304.87 117.067 301.942 117.067C299.015 117.067 296.633 114.686 296.633 111.76C296.633 108.834 299.015 106.453 301.942 106.453ZM301.942 113.434C302.866 113.434 303.617 112.683 303.617 111.76C303.617 110.837 302.866 110.086 301.942 110.086C301.019 110.086 300.268 110.837 300.268 111.76C300.268 112.683 301.019 113.434 301.942 113.434Z" fill="url(#paint5_linear_1583_13777)"/>
<path d="M79.6728 21.2734C82.6003 21.2734 84.9824 23.6544 84.9824 26.5803C84.9824 29.5063 82.6003 31.8873 79.6728 31.8873C76.7454 31.8873 74.3633 29.5063 74.3633 26.5803C74.3633 23.6544 76.7454 21.2734 79.6728 21.2734ZM79.6728 28.2539C80.5962 28.2539 81.3472 27.5032 81.3472 26.5803C81.3472 25.6575 80.5962 24.9068 79.6728 24.9068C78.7495 24.9068 77.9985 25.6575 77.9985 26.5803C77.9985 27.5032 78.7495 28.2539 79.6728 28.2539Z" fill="url(#paint6_linear_1583_13777)"/>
<path d="M17.8213 186.977C20.7487 186.977 23.1308 189.357 23.1308 192.283C23.1308 195.209 20.7487 197.59 17.8213 197.59C14.8938 197.59 12.5117 195.209 12.5117 192.283C12.5117 189.357 14.8938 186.977 17.8213 186.977ZM17.8213 193.957C18.7446 193.957 19.4956 193.206 19.4956 192.283C19.4956 191.361 18.7446 190.61 17.8213 190.61C16.898 190.61 16.1469 191.361 16.1469 192.283C16.1469 193.206 16.898 193.957 17.8213 193.957Z" fill="url(#paint7_linear_1583_13777)"/>
<path d="M234.186 52.2852V209.61H191.871L185.197 202.94C184.257 202 183.004 201.483 181.669 201.483C181.518 201.483 181.368 201.49 181.219 201.502C180.52 201.564 179.85 201.77 179.247 202.105C178.846 202.327 178.474 202.607 178.141 202.94L177.824 203.257L174.461 206.618L173.646 205.804L172.358 204.517L173.646 203.229L175.722 201.155L168.858 194.295C168.242 195.053 167.602 195.798 166.941 196.527C166.534 196.976 166.119 197.418 165.693 197.855L164.405 196.567L163.61 195.773L164.773 194.49C165.454 193.737 166.111 192.967 166.743 192.18C167.127 191.703 167.501 191.22 167.866 190.73C168.234 190.237 168.592 189.738 168.943 189.232C171.051 186.178 172.819 182.904 174.224 179.443C176.713 173.306 177.976 166.822 177.976 160.169C177.976 153.516 176.713 147.031 174.224 140.894C171.646 134.538 167.858 128.838 162.966 123.948C158.075 119.059 152.37 115.273 146.012 112.696C139.872 110.208 133.383 108.945 126.728 108.945C120.073 108.945 113.584 110.208 107.444 112.696C105.09 113.65 102.796 114.785 100.623 116.071L97.875 117.698V52.2852H234.186Z" fill="white"/>
<path d="M175.727 201.157L173.651 203.231L172.363 204.519L171.076 205.806L167.74 209.139L160.875 202.278C162.093 201.29 163.272 200.245 164.411 199.144C164.633 198.93 164.855 198.712 165.074 198.493C165.285 198.282 165.494 198.071 165.698 197.857C166.124 197.421 166.539 196.978 166.945 196.529C167.607 195.8 168.247 195.055 168.863 194.297L175.727 201.157Z" fill="#B3B3B3"/>
<path d="M179.25 202.104L177.095 199.951L169.994 192.854L169.17 192.03L168.692 191.554L167.869 190.73L167.392 190.254C167.028 190.744 166.654 191.228 166.27 191.705C165.1 193.167 163.841 194.572 162.496 195.916C162.276 196.135 162.055 196.353 161.832 196.566C160.692 197.668 159.508 198.708 158.283 199.688C157.805 200.071 157.319 200.444 156.828 200.808L169.184 213.157C169.385 212.75 169.656 212.368 169.996 212.029L170.313 211.711L173.649 208.377L178.3 203.729L178.617 203.411C178.952 203.076 179.332 202.804 179.744 202.598L179.25 202.104ZM160.873 202.276C162.09 201.288 163.27 200.243 164.409 199.142C164.631 198.928 164.852 198.71 165.072 198.491C165.283 198.28 165.491 198.069 165.696 197.855C166.121 197.418 166.537 196.976 166.943 196.527C167.605 195.798 168.245 195.053 168.861 194.295L175.725 201.155L173.649 203.229L172.361 204.517L171.074 205.804L167.738 209.137L160.873 202.276Z" fill="#B3B3B3"/>
<path d="M163.782 123.133C153.886 113.241 140.726 107.793 126.73 107.793C116.315 107.793 106.365 110.808 97.8766 116.427C97.2614 116.834 96.655 117.255 96.0555 117.689C93.8093 119.316 91.6762 121.134 89.676 123.133C79.7784 133.026 74.3281 146.178 74.3281 160.168C74.3281 174.159 79.7784 187.311 89.676 197.204C94.6696 202.195 100.501 206.06 107.007 208.692C113.286 211.233 119.922 212.521 126.73 212.521C133.537 212.521 140.172 211.233 146.451 208.692C150.063 207.231 153.466 205.39 156.633 203.188C157.138 202.837 157.636 202.477 158.128 202.108C158.618 201.742 159.1 201.367 159.576 200.982C160.798 199.999 161.98 198.955 163.119 197.854C163.341 197.641 163.563 197.423 163.782 197.204C163.993 196.993 164.202 196.781 164.406 196.567C165.52 195.419 166.573 194.229 167.564 193C167.95 192.524 168.326 192.041 168.691 191.553C169.063 191.062 169.424 190.564 169.774 190.061C175.856 181.352 179.131 171.012 179.131 160.168C179.131 146.178 173.68 133.026 163.782 123.133ZM162.495 195.916C162.275 196.135 162.054 196.353 161.83 196.566C160.691 197.668 159.506 198.708 158.282 199.688C157.803 200.071 157.318 200.444 156.827 200.808C156.332 201.175 155.831 201.532 155.324 201.879C152.344 203.922 149.15 205.637 145.768 207.006C139.707 209.458 133.301 210.701 126.73 210.701C120.158 210.701 113.752 209.458 107.691 207.006C101.411 204.465 95.7839 200.734 90.9635 195.916C81.4105 186.368 76.1492 173.672 76.1492 160.168C76.1492 146.665 81.4105 133.968 90.9635 124.42C92.5749 122.81 94.2759 121.322 96.0555 119.96C104.824 113.247 115.497 109.613 126.73 109.613C140.24 109.613 152.942 114.872 162.495 124.42C172.049 133.968 177.31 146.664 177.31 160.168C177.31 170.524 174.216 180.403 168.465 188.752C168.117 189.259 167.759 189.759 167.391 190.254C167.027 190.744 166.653 191.228 166.269 191.705C165.098 193.167 163.839 194.572 162.495 195.916Z" fill="url(#paint8_linear_1583_13777)"/>
<path d="M177.313 160.161C177.313 170.516 174.22 180.396 168.468 188.745C168.121 189.251 167.762 189.751 167.394 190.246C167.03 190.736 166.656 191.22 166.272 191.697C165.102 193.159 163.843 194.564 162.498 195.908C162.279 196.128 162.057 196.345 161.834 196.559C160.694 197.66 159.51 198.7 158.285 199.68C157.807 200.063 157.321 200.436 156.83 200.8C156.335 201.167 155.834 201.524 155.327 201.871C152.347 203.915 149.153 205.63 145.771 206.998C139.71 209.45 133.304 210.694 126.733 210.694C120.161 210.694 113.755 209.45 107.694 206.998C101.415 204.457 95.7871 200.726 90.9667 195.908C81.4137 186.36 76.1523 173.664 76.1523 160.161C76.1523 146.657 81.4137 133.961 90.9667 124.412C92.5781 122.802 94.279 121.314 96.0587 119.953C104.827 113.24 115.501 109.605 126.733 109.605C140.243 109.605 152.945 114.864 162.498 124.412C172.052 133.961 177.313 146.656 177.313 160.161Z" fill="url(#paint9_linear_1583_13777)"/>
<g style="mix-blend-mode:multiply">
<path d="M127.245 83.2836H209.943C213.447 83.2836 216.297 80.4343 216.297 76.9328C216.297 73.4313 213.447 70.582 209.943 70.582H127.245C123.741 70.582 120.891 73.4313 120.891 76.9328C120.891 80.4343 123.741 83.2836 127.245 83.2836ZM127.245 74.2223H209.943C211.441 74.2223 212.655 75.4364 212.655 76.9328C212.655 78.4292 211.44 79.6433 209.943 79.6433H127.245C125.746 79.6433 124.533 78.4292 124.533 76.9328C124.533 75.4364 125.747 74.2223 127.245 74.2223Z" fill="#DDDDDD"/>
</g>
<g style="mix-blend-mode:multiply">
<path d="M127.245 103.127H209.943C213.447 103.127 216.297 100.278 216.297 96.7766C216.297 93.275 213.447 90.4258 209.943 90.4258H127.245C123.741 90.4258 120.891 93.275 120.891 96.7766C120.891 100.278 123.741 103.127 127.245 103.127ZM127.245 94.066H209.943C211.441 94.066 212.655 95.2801 212.655 96.7766C212.655 98.273 211.44 99.4871 209.943 99.4871H127.245C125.746 99.4871 124.533 98.273 124.533 96.7766C124.533 95.2801 125.747 94.066 127.245 94.066Z" fill="#DDDDDD"/>
</g>
<g style="mix-blend-mode:multiply">
<path d="M209.938 118.949H182.573C179.069 118.949 176.219 121.798 176.219 125.3C176.219 128.802 179.069 131.651 182.573 131.651H209.938C213.442 131.651 216.292 128.802 216.292 125.3C216.292 121.798 213.442 118.949 209.938 118.949ZM209.938 128.011H182.573C181.075 128.011 179.861 126.796 179.861 125.3C179.861 123.804 181.076 122.589 182.573 122.589H209.938C211.437 122.589 212.65 123.804 212.65 125.3C212.65 126.796 211.436 128.011 209.938 128.011Z" fill="#DDDDDD"/>
</g>
<g style="mix-blend-mode:multiply">
<path d="M209.939 143.133H194.506C191.003 143.133 188.152 145.982 188.152 149.484C188.152 152.985 191.003 155.834 194.506 155.834H209.939C213.442 155.834 216.293 152.985 216.293 149.484C216.293 145.982 213.442 143.133 209.939 143.133ZM209.939 152.194H194.506C193.008 152.194 191.794 150.98 191.794 149.484C191.794 147.987 193.009 146.773 194.506 146.773H209.939C211.437 146.773 212.651 147.987 212.651 149.484C212.651 150.98 211.437 152.194 209.939 152.194Z" fill="#DDDDDD"/>
</g>
<g style="mix-blend-mode:multiply">
<path d="M209.939 167.312H194.506C191.003 167.312 188.152 170.162 188.152 173.663C188.152 177.165 191.003 180.014 194.506 180.014H209.939C213.442 180.014 216.293 177.165 216.293 173.663C216.293 170.162 213.442 167.312 209.939 167.312ZM209.939 176.374H194.506C193.008 176.374 191.794 175.16 191.794 173.663C191.794 172.167 193.009 170.953 194.506 170.953H209.939C211.437 170.953 212.651 172.167 212.651 173.663C212.651 175.16 211.437 176.374 209.939 176.374Z" fill="#DDDDDD"/>
</g>
<path d="M221.532 237.614L186.017 202.117C184.858 200.958 183.315 200.32 181.674 200.32C181.178 200.32 180.691 200.378 180.221 200.492C179.579 200.647 178.968 200.904 178.41 201.256C178.023 201.499 177.662 201.786 177.331 202.117L177.014 202.435L168.71 210.734C168.377 211.068 168.089 211.43 167.849 211.814C167.493 212.38 167.239 212.992 167.086 213.625C166.601 215.636 167.141 217.849 168.71 219.417L204.225 254.913C205.384 256.072 206.928 256.712 208.567 256.712C210.207 256.712 211.752 256.072 212.911 254.913L221.532 246.297C223.927 243.903 223.927 240.008 221.532 237.614ZM220.245 245.01L211.624 253.626C210.808 254.442 209.722 254.891 208.568 254.891C207.415 254.891 206.328 254.442 205.512 253.627L169.998 218.129C169.207 217.338 168.787 216.315 168.739 215.277C168.705 214.549 168.854 213.815 169.186 213.15C169.388 212.742 169.658 212.361 169.998 212.021L170.315 211.704L173.651 208.37L178.302 203.722L178.619 203.404C178.954 203.069 179.334 202.797 179.746 202.591C180.337 202.296 180.993 202.14 181.674 202.14C181.741 202.14 181.808 202.142 181.874 202.144C182.954 202.194 183.961 202.636 184.731 203.405L192.753 211.423L220.245 238.901C221.929 240.586 221.929 243.326 220.245 245.01Z" fill="#EFEFEF"/>
<path d="M220.245 245.018L211.624 253.634C210.808 254.45 209.722 254.899 208.568 254.899C207.415 254.899 206.328 254.45 205.512 253.635L169.998 218.137C169.207 217.346 168.787 216.323 168.739 215.285C168.706 214.557 168.854 213.823 169.186 213.158C169.388 212.75 169.658 212.369 169.998 212.029L170.315 211.711L173.651 208.378L178.302 203.729L178.619 203.412C178.954 203.077 179.334 202.805 179.746 202.599C180.337 202.304 180.993 202.148 181.674 202.148C181.741 202.148 181.808 202.15 181.874 202.152C182.954 202.202 183.961 202.644 184.731 203.413L192.753 211.431L220.245 238.909C221.929 240.594 221.929 243.334 220.245 245.018Z" fill="#EFEFEF"/>
<path d="M124.685 78.905C122.186 78.905 120.152 76.8724 120.152 74.3744C120.152 71.8764 122.186 69.8438 124.685 69.8438H207.384C209.883 69.8438 211.917 71.8764 211.917 74.3744C211.917 76.8724 209.883 78.905 207.384 78.905H124.685Z" fill="url(#paint10_linear_1583_13777)"/>
<path d="M124.685 98.7449C122.186 98.7449 120.152 96.7123 120.152 94.2142C120.152 91.7162 122.186 89.6836 124.685 89.6836H207.384C209.883 89.6836 211.917 91.7162 211.917 94.2142C211.917 96.7123 209.883 98.7449 207.384 98.7449H124.685Z" fill="#B3B3B3"/>
<g style="mix-blend-mode:multiply">
<path d="M172.236 173.663C172.236 170.162 169.385 167.312 165.882 167.312H127.245C123.741 167.312 120.891 170.162 120.891 173.663C120.891 177.165 123.741 180.014 127.245 180.014H165.882C169.385 180.014 172.236 177.165 172.236 173.663ZM124.533 173.663C124.533 172.166 125.747 170.953 127.245 170.953H165.882C167.38 170.953 168.594 172.167 168.594 173.663C168.594 175.16 167.379 176.374 165.882 176.374H127.245C125.746 176.374 124.533 175.16 124.533 173.663Z" fill="#DDDDDD"/>
</g>
<g style="mix-blend-mode:multiply">
<path d="M127.245 155.834H165.314C168.817 155.834 171.668 152.985 171.668 149.484C171.668 145.982 168.817 143.133 165.314 143.133H127.245C123.741 143.133 120.891 145.982 120.891 149.484C120.891 152.985 123.741 155.834 127.245 155.834ZM127.245 146.773H165.314C166.812 146.773 168.026 147.987 168.026 149.484C168.026 150.98 166.811 152.194 165.314 152.194H127.245C125.746 152.194 124.533 150.98 124.533 149.484C124.533 147.987 125.746 146.773 127.245 146.773Z" fill="#DDDDDD"/>
</g>
<g style="mix-blend-mode:multiply">
<path d="M127.245 131.651H141.733C145.236 131.651 148.087 128.802 148.087 125.3C148.087 121.798 145.236 118.949 141.733 118.949H127.245C123.741 118.949 120.891 121.798 120.891 125.3C120.891 128.802 123.741 131.651 127.245 131.651ZM127.245 122.589H141.733C143.231 122.589 144.445 123.804 144.445 125.3C144.445 126.796 143.23 128.011 141.733 128.011H127.245C125.746 128.011 124.533 126.796 124.533 125.3C124.533 123.804 125.746 122.589 127.245 122.589Z" fill="#DDDDDD"/>
</g>
<path d="M180.021 127.272C177.522 127.272 175.488 125.24 175.488 122.742C175.488 120.244 177.522 118.211 180.021 118.211H207.387C209.886 118.211 211.92 120.244 211.92 122.742C211.92 125.24 209.886 127.272 207.387 127.272H180.021Z" fill="#B3B3B3"/>
<path d="M191.951 151.456C189.452 151.456 187.418 149.423 187.418 146.925C187.418 144.427 189.452 142.395 191.951 142.395H207.383C209.883 142.395 211.916 144.427 211.916 146.925C211.916 149.423 209.883 151.456 207.383 151.456H191.951Z" fill="url(#paint11_linear_1583_13777)"/>
<path d="M191.951 175.636C189.452 175.636 187.418 173.603 187.418 171.105C187.418 168.607 189.452 166.574 191.951 166.574H207.383C209.883 166.574 211.916 168.607 211.916 171.105C211.916 173.603 209.883 175.636 207.383 175.636H191.951Z" fill="#B3B3B3"/>
<path d="M124.685 175.636C122.186 175.636 120.152 173.603 120.152 171.105C120.152 168.607 122.186 166.574 124.685 166.574H163.323C165.822 166.574 167.856 168.607 167.856 171.105C167.856 173.603 165.822 175.636 163.323 175.636H124.685Z" fill="white"/>
<path d="M124.685 151.456C122.186 151.456 120.152 149.423 120.152 146.925C120.152 144.427 122.186 142.395 124.685 142.395H162.755C165.254 142.395 167.288 144.427 167.288 146.925C167.288 149.423 165.254 151.456 162.755 151.456H124.685Z" fill="white"/>
<path d="M124.685 127.272C122.186 127.272 120.152 125.24 120.152 122.742C120.152 120.244 122.186 118.211 124.685 118.211H139.174C141.673 118.211 143.707 120.244 143.707 122.742C143.707 125.24 141.673 127.272 139.174 127.272H124.685Z" fill="white"/>
<g style="mix-blend-mode:multiply">
<path d="M238.568 53.0117H98.6149V118.006C95.8981 119.877 93.3309 122.011 90.9478 124.393C80.7057 134.629 75.0664 148.239 75.0664 162.715C75.0664 177.192 80.7057 190.801 90.9478 201.038C96.1146 206.202 102.149 210.202 108.884 212.926C115.38 215.555 122.246 216.888 129.289 216.888C136.332 216.888 143.197 215.555 149.694 212.926C153.534 211.373 157.146 209.405 160.5 207.041L168.193 214.731C167.081 217.585 167.676 220.957 169.978 223.257L205.493 258.754C206.997 260.258 208.996 261.085 211.124 261.085C213.253 261.085 215.251 260.258 216.755 258.754L225.376 250.138C228.48 247.035 228.48 241.985 225.376 238.882L200.459 213.977H238.568V53.0117ZM159.386 203.355C158.891 203.722 158.39 204.079 157.883 204.426C154.904 206.469 151.709 208.184 148.327 209.553C142.267 212.005 135.86 213.248 129.289 213.248C122.718 213.248 116.311 212.005 110.25 209.553C103.971 207.012 98.3432 203.281 93.5229 198.463C83.9698 188.915 78.7085 176.219 78.7085 162.715C78.7085 149.212 83.9698 136.515 93.5229 126.967C95.1342 125.357 96.8352 123.869 98.6149 122.507C107.383 115.794 118.057 112.16 129.289 112.16C142.799 112.16 155.501 117.419 165.054 126.967C174.608 136.515 179.87 149.211 179.87 162.715C179.87 173.071 176.776 182.95 171.024 191.299C170.677 191.806 170.318 192.306 169.95 192.801C169.586 193.291 169.212 193.775 168.828 194.252C167.658 195.714 166.399 197.119 165.054 198.463C164.835 198.682 164.613 198.9 164.39 199.113C163.25 200.215 162.066 201.255 160.841 202.235C160.363 202.618 159.877 202.991 159.386 203.355ZM163.431 204.822C164.649 203.835 165.828 202.79 166.967 201.689C167.189 201.474 167.411 201.257 167.63 201.038C167.841 200.827 168.049 200.615 168.254 200.402C168.679 199.965 169.095 199.522 169.501 199.074C170.163 198.345 170.803 197.6 171.419 196.841L178.283 203.702L176.207 205.776L174.919 207.064L173.632 208.351L170.296 211.684L163.431 204.822ZM222.801 241.455C224.485 243.14 224.485 245.88 222.801 247.564L214.18 256.18C213.364 256.996 212.278 257.445 211.124 257.445C209.971 257.445 208.884 256.996 208.068 256.181L172.554 220.683C171.762 219.892 171.343 218.869 171.295 217.831C171.261 217.103 171.41 216.369 171.742 215.704C171.944 215.297 172.214 214.915 172.554 214.575L172.871 214.258L176.207 210.924L180.858 206.276L181.175 205.958C181.51 205.623 181.89 205.351 182.302 205.145C182.893 204.85 183.549 204.695 184.23 204.695C184.297 204.695 184.364 204.697 184.43 204.698C185.51 204.748 186.517 205.19 187.287 205.959L195.309 213.977L222.801 241.455ZM234.926 210.337H196.817L189.862 203.385C188.358 201.882 186.357 201.054 184.23 201.054C183.22 201.054 182.24 201.24 181.327 201.597L173.641 193.914C180.056 184.846 183.512 174.047 183.512 162.715C183.512 148.239 177.871 134.629 167.63 124.393C157.388 114.156 143.772 108.52 129.289 108.52C119.647 108.52 110.391 111.018 102.257 115.709V56.652H234.926V210.337Z" fill="#DDDDDD"/>
</g>
<path d="M96.0625 50.4609V119.956C104.831 113.244 115.504 109.609 126.737 109.609C140.247 109.609 152.949 114.868 162.502 124.416C172.056 133.965 177.317 146.66 177.317 160.165C177.317 170.52 174.223 180.4 168.472 188.749C168.124 189.255 167.766 189.755 167.398 190.25C167.034 190.74 166.66 191.224 166.276 191.701C165.105 193.163 163.846 194.568 162.502 195.912C162.282 196.131 162.061 196.349 161.837 196.562L164.414 199.138C164.637 198.924 164.858 198.706 165.078 198.487C165.288 198.276 165.497 198.065 165.702 197.851C166.127 197.414 166.543 196.972 166.949 196.523L166.132 195.706C166.793 194.977 167.431 194.232 168.047 193.471C168.432 192.996 168.808 192.514 169.176 192.026C169.547 191.535 169.908 191.038 170.259 190.535C172.527 187.297 174.421 183.817 175.919 180.123C178.498 173.767 179.806 167.053 179.806 160.165C179.806 153.277 178.498 146.561 175.919 140.205C173.249 133.624 169.327 127.72 164.262 122.657C159.197 117.594 153.29 113.675 146.705 111.005C140.346 108.428 133.628 107.121 126.737 107.121C119.845 107.121 113.126 108.428 106.767 111.005C104.316 111.999 101.96 113.166 99.7046 114.501V54.1012H232.373V207.786H192.634L186.493 201.649C185.166 200.322 183.422 199.659 181.678 199.659C181.005 199.659 180.333 199.757 179.684 199.956C179.072 200.141 178.481 200.415 177.931 200.777C177.553 201.026 177.195 201.317 176.862 201.649L176.545 201.966L174.469 204.041L173.654 203.225L172.367 204.513L171.079 205.8L173.654 208.374L178.305 203.725L178.622 203.407C178.958 203.073 179.338 202.8 179.749 202.594C180.341 202.299 180.997 202.144 181.678 202.144C181.745 202.144 181.812 202.146 181.878 202.148C182.957 202.197 183.964 202.64 184.734 203.408L192.757 211.426H236.016V50.4609H96.0625Z" fill="#333333"/>
<path d="M169.028 210.415L167.741 209.127L160.876 202.265L159.58 200.971L158.348 199.74L158.286 199.678C157.808 200.06 157.322 200.433 156.831 200.797C156.336 201.164 155.835 201.521 155.328 201.869L155.773 202.313L156.637 203.177L157.945 204.484L165.638 212.174L167.087 213.622L168.74 215.274C168.706 214.546 168.855 213.812 169.187 213.147C169.389 212.739 169.659 212.358 169.999 212.018L170.316 211.7L169.028 210.415ZM181.225 201.492L181.035 201.302L180.222 200.489L179.682 199.949L178.772 199.04L171.085 191.357L170.257 190.529L169.778 190.051L168.469 188.742C168.122 189.249 167.763 189.749 167.395 190.244C167.031 190.734 166.657 191.218 166.273 191.695L178.303 203.718L178.62 203.401C178.955 203.066 179.335 202.794 179.747 202.588C180.338 202.293 180.994 202.137 181.675 202.137C181.742 202.137 181.809 202.139 181.875 202.141L181.225 201.492Z" fill="#333333"/>
<path d="M165.076 121.842C154.833 111.605 141.217 105.969 126.734 105.969C117.093 105.969 107.836 108.467 99.7023 113.158C99.089 113.51 98.4817 113.877 97.8812 114.256C97.267 114.642 96.6596 115.043 96.0602 115.455C93.3434 117.326 90.7762 119.46 88.3931 121.842C78.151 132.078 72.5117 145.688 72.5117 160.164C72.5117 174.641 78.151 188.25 88.3931 198.487C93.56 203.651 99.594 207.651 106.329 210.375C112.826 213.004 119.691 214.337 126.734 214.337C133.777 214.337 140.642 213.004 147.14 210.375C150.98 208.822 154.591 206.854 157.945 204.49C158.447 204.138 158.943 203.776 159.433 203.404C159.92 203.036 160.401 202.659 160.876 202.271C162.094 201.284 163.273 200.239 164.412 199.138C164.635 198.923 164.856 198.706 165.076 198.487C165.286 198.276 165.495 198.064 165.7 197.851C166.125 197.414 166.54 196.971 166.947 196.523C167.608 195.794 168.248 195.049 168.864 194.29C169.251 193.816 169.629 193.336 169.997 192.85C170.37 192.36 170.734 191.864 171.086 191.363C177.501 182.295 180.957 171.495 180.957 160.164C180.957 145.688 175.317 132.078 165.076 121.842ZM161.835 196.562C160.695 197.664 159.511 198.704 158.286 199.684C157.808 200.067 157.323 200.439 156.832 200.803C156.336 201.17 155.835 201.528 155.329 201.875C152.349 203.918 149.155 205.633 145.773 207.002C139.712 209.454 133.306 210.697 126.734 210.697C120.163 210.697 113.757 209.454 107.695 207.002C101.416 204.46 95.7885 200.73 90.9682 195.912C81.4151 186.363 76.1538 173.668 76.1538 160.164C76.1538 146.661 81.4151 133.964 90.9682 124.416C92.5795 122.805 94.2805 121.318 96.0602 119.956C104.829 113.243 115.502 109.609 126.734 109.609C140.244 109.609 152.946 114.868 162.499 124.416C172.054 133.964 177.315 146.66 177.315 160.164C177.315 170.519 174.221 180.399 168.47 188.748C168.122 189.255 167.764 189.755 167.396 190.25C167.031 190.74 166.657 191.224 166.273 191.701C165.103 193.163 163.844 194.568 162.499 195.912C162.28 196.131 162.058 196.349 161.835 196.562Z" fill="#333333"/>
<path d="M222.824 236.327L197.907 211.423L194.265 207.783L187.309 200.831C185.805 199.327 183.805 198.5 181.678 198.5C180.668 198.5 179.688 198.686 178.775 199.043C178.185 199.273 177.623 199.574 177.101 199.943C176.729 200.206 176.376 200.501 176.048 200.83L175.731 201.148L173.655 203.222L172.367 204.509L171.08 205.796L167.744 209.13L167.427 209.446C167.096 209.777 166.8 210.13 166.54 210.501C166.169 211.028 165.868 211.591 165.641 212.177C164.529 215.031 165.124 218.402 167.426 220.703L202.941 256.2C204.445 257.703 206.444 258.531 208.572 258.531C210.7 258.531 212.699 257.703 214.203 256.2L222.824 247.584C223.147 247.26 223.438 246.914 223.695 246.551C224.474 245.451 224.94 244.197 225.094 242.911C225.376 240.568 224.619 238.122 222.824 236.327ZM220.249 245.01L218.706 246.551L211.628 253.625C210.812 254.442 209.726 254.891 208.572 254.891C207.419 254.891 206.332 254.442 205.516 253.626L194.795 242.911L170.002 218.129C169.21 217.338 168.791 216.315 168.743 215.277C168.709 214.549 168.858 213.815 169.19 213.15C169.391 212.742 169.662 212.361 170.002 212.021L170.319 211.703L173.655 208.37L178.306 203.721L178.623 203.404C178.958 203.069 179.338 202.797 179.75 202.591C180.341 202.296 180.997 202.14 181.678 202.14C181.745 202.14 181.812 202.142 181.878 202.144C182.958 202.193 183.965 202.636 184.734 203.405L192.757 211.423L220.249 238.901C221.335 239.987 221.72 241.513 221.405 242.911C221.232 243.681 220.846 244.412 220.249 245.01Z" fill="#333333"/>
<path d="M207.381 71.6754C208.879 71.6754 210.093 72.8895 210.093 74.3859C210.093 75.8824 208.878 77.0965 207.381 77.0965H124.682C123.184 77.0965 121.97 75.8824 121.97 74.3859C121.97 72.8895 123.185 71.6754 124.682 71.6754H207.381ZM207.381 68.0352H124.682C121.179 68.0352 118.328 70.8844 118.328 74.3859C118.328 77.8875 121.179 80.7367 124.682 80.7367H207.381C210.884 80.7367 213.735 77.8875 213.735 74.3859C213.735 70.8844 210.884 68.0352 207.381 68.0352Z" fill="#333333"/>
<path d="M207.381 91.4996C208.879 91.4996 210.093 92.7137 210.093 94.2102C210.093 95.7066 208.878 96.9207 207.381 96.9207H124.682C123.184 96.9207 121.97 95.7066 121.97 94.2102C121.97 92.7137 123.185 91.4996 124.682 91.4996H207.381ZM207.381 87.8594H124.682C121.179 87.8594 118.328 90.7086 118.328 94.2102C118.328 97.7117 121.179 100.561 124.682 100.561H207.381C210.884 100.561 213.735 97.7117 213.735 94.2102C213.735 90.7086 210.884 87.8594 207.381 87.8594Z" fill="#333333"/>
<path d="M207.384 120.023C208.882 120.023 210.096 121.237 210.096 122.734C210.096 124.23 208.881 125.444 207.384 125.444H180.018C178.52 125.444 177.306 124.23 177.306 122.734C177.306 121.237 178.521 120.023 180.018 120.023H207.384ZM207.384 116.383H180.018C176.515 116.383 173.664 119.232 173.664 122.734C173.664 126.235 176.515 129.084 180.018 129.084H207.384C210.887 129.084 213.738 126.235 213.738 122.734C213.738 119.232 210.887 116.383 207.384 116.383Z" fill="#333333"/>
<path d="M207.384 144.207C208.882 144.207 210.096 145.421 210.096 146.917C210.096 148.414 208.882 149.628 207.384 149.628H191.952C190.453 149.628 189.24 148.414 189.24 146.917C189.24 145.421 190.454 144.207 191.952 144.207H207.384ZM207.384 140.566H191.952C188.448 140.566 185.598 143.416 185.598 146.917C185.598 150.419 188.448 153.268 191.952 153.268H207.384C210.887 153.268 213.738 150.419 213.738 146.917C213.738 143.416 210.887 140.566 207.384 140.566Z" fill="#333333"/>
<path d="M207.384 168.39C208.882 168.39 210.096 169.604 210.096 171.101C210.096 172.597 208.882 173.811 207.384 173.811H191.952C190.453 173.811 189.24 172.597 189.24 171.101C189.24 169.604 190.454 168.39 191.952 168.39H207.384ZM207.384 164.75H191.952C188.448 164.75 185.598 167.599 185.598 171.101C185.598 174.602 188.448 177.452 191.952 177.452H207.384C210.887 177.452 213.738 174.602 213.738 171.101C213.738 167.599 210.887 164.75 207.384 164.75Z" fill="#333333"/>
<path d="M163.32 168.39C164.818 168.39 166.031 169.604 166.031 171.101C166.031 172.597 164.817 173.811 163.32 173.811H124.682C123.184 173.811 121.97 172.597 121.97 171.101C121.97 169.604 123.185 168.39 124.682 168.39H163.32ZM163.32 164.75H124.682C121.179 164.75 118.328 167.599 118.328 171.101C118.328 174.602 121.179 177.452 124.682 177.452H163.32C166.823 177.452 169.673 174.602 169.673 171.101C169.673 167.599 166.823 164.75 163.32 164.75Z" fill="#333333"/>
<path d="M162.752 144.207C164.25 144.207 165.463 145.421 165.463 146.917C165.463 148.414 164.249 149.628 162.752 149.628H124.682C123.184 149.628 121.97 148.414 121.97 146.917C121.97 145.421 123.184 144.207 124.682 144.207H162.752ZM162.752 140.566H124.682C121.179 140.566 118.328 143.416 118.328 146.917C118.328 150.419 121.179 153.268 124.682 153.268H162.752C166.255 153.268 169.106 150.419 169.106 146.917C169.106 143.416 166.255 140.566 162.752 140.566Z" fill="#333333"/>
<path d="M139.171 120.023C140.669 120.023 141.882 121.237 141.882 122.734C141.882 124.23 140.668 125.444 139.171 125.444H124.682C123.184 125.444 121.97 124.23 121.97 122.734C121.97 121.237 123.184 120.023 124.682 120.023H139.171ZM139.171 116.383H124.682C121.179 116.383 118.328 119.232 118.328 122.734C118.328 126.235 121.179 129.084 124.682 129.084H139.171C142.674 129.084 145.525 126.235 145.525 122.734C145.525 119.232 142.674 116.383 139.171 116.383Z" fill="#333333"/>
<path d="M194.793 242.918L198.435 246.558H60.9421C59.9371 246.558 59.1211 245.744 59.1211 244.738C59.1211 243.733 59.9371 242.918 60.9421 242.918H194.793Z" fill="#333333"/>
<path d="M264.173 244.738C264.173 245.744 263.357 246.558 262.352 246.558H218.703L220.246 245.017C220.843 244.418 221.229 243.687 221.402 242.918H262.352C263.357 242.918 264.173 243.733 264.173 244.738Z" fill="#333333"/>
<path d="M53.4276 246.558H45.1335C44.1275 246.558 43.3125 245.744 43.3125 244.738C43.3125 243.733 44.1275 242.918 45.1335 242.918H53.4276C54.4336 242.918 55.2487 243.733 55.2487 244.738C55.2487 245.744 54.4336 246.558 53.4276 246.558Z" fill="#333333"/>
<path d="M94.244 237.636H85.9499C84.9439 237.636 84.1289 236.822 84.1289 235.816C84.1289 234.811 84.9439 233.996 85.9499 233.996H94.244C95.25 233.996 96.0651 234.811 96.0651 235.816C96.0651 236.822 95.25 237.636 94.244 237.636Z" fill="#333333"/>
<path d="M78.4393 237.636H70.1453C69.1393 237.636 68.3242 236.822 68.3242 235.816C68.3242 234.811 69.1393 233.996 70.1453 233.996H78.4393C79.4453 233.996 80.2604 234.811 80.2604 235.816C80.2604 236.822 79.4453 237.636 78.4393 237.636Z" fill="#333333"/>
<path d="M237.33 237.636H229.036C228.03 237.636 227.215 236.822 227.215 235.816C227.215 234.811 228.03 233.996 229.036 233.996H237.33C238.336 233.996 239.151 234.811 239.151 235.816C239.151 236.822 238.336 237.636 237.33 237.636Z" fill="#333333"/>
<path d="M253.145 237.636H244.852C243.846 237.636 243.031 236.822 243.031 235.816C243.031 234.811 243.846 233.996 244.852 233.996H253.145C254.151 233.996 254.966 234.811 254.966 235.816C254.966 236.822 254.151 237.636 253.145 237.636Z" fill="#333333"/>
<path d="M278.157 246.558H269.864C268.858 246.558 268.043 245.744 268.043 244.738C268.043 243.733 268.858 242.918 269.864 242.918H278.157C279.163 242.918 279.978 243.733 279.978 244.738C279.978 245.744 279.163 246.558 278.157 246.558Z" fill="#333333"/>
<defs>
<linearGradient id="paint0_linear_1583_13777" x1="320.16" y1="233.916" x2="329.999" y2="233.916" gradientUnits="userSpaceOnUse">
<stop stop-color="#E21876"/>
<stop offset="1" stop-color="#313482"/>
</linearGradient>
<linearGradient id="paint1_linear_1583_13777" x1="60.6642" y1="273.017" x2="70.503" y2="273.017" gradientUnits="userSpaceOnUse">
<stop stop-color="#E21876"/>
<stop offset="1" stop-color="#313482"/>
</linearGradient>
<linearGradient id="paint2_linear_1583_13777" x1="14.1955" y1="112.123" x2="24.0343" y2="112.123" gradientUnits="userSpaceOnUse">
<stop stop-color="#E21876"/>
<stop offset="1" stop-color="#313482"/>
</linearGradient>
<linearGradient id="paint3_linear_1583_13777" x1="232.777" y1="18.8415" x2="242.616" y2="18.8415" gradientUnits="userSpaceOnUse">
<stop stop-color="#E21876"/>
<stop offset="1" stop-color="#313482"/>
</linearGradient>
<linearGradient id="paint4_linear_1583_13777" x1="196.567" y1="280.861" x2="207.185" y2="280.861" gradientUnits="userSpaceOnUse">
<stop stop-color="#E21876"/>
<stop offset="1" stop-color="#313482"/>
</linearGradient>
<linearGradient id="paint5_linear_1583_13777" x1="296.633" y1="111.76" x2="307.252" y2="111.76" gradientUnits="userSpaceOnUse">
<stop stop-color="#E21876"/>
<stop offset="1" stop-color="#313482"/>
</linearGradient>
<linearGradient id="paint6_linear_1583_13777" x1="74.3634" y1="26.5799" x2="84.9823" y2="26.5799" gradientUnits="userSpaceOnUse">
<stop stop-color="#E21876"/>
<stop offset="1" stop-color="#313482"/>
</linearGradient>
<linearGradient id="paint7_linear_1583_13777" x1="12.5119" y1="192.283" x2="23.1307" y2="192.283" gradientUnits="userSpaceOnUse">
<stop stop-color="#E21876"/>
<stop offset="1" stop-color="#313482"/>
</linearGradient>
<linearGradient id="paint8_linear_1583_13777" x1="74.3296" y1="160.152" x2="179.131" y2="160.152" gradientUnits="userSpaceOnUse">
<stop stop-color="#E21876"/>
<stop offset="1" stop-color="#313482"/>
</linearGradient>
<linearGradient id="paint9_linear_1583_13777" x1="76.1538" y1="160.145" x2="177.313" y2="160.145" gradientUnits="userSpaceOnUse">
<stop stop-color="#E21876"/>
<stop offset="1" stop-color="#313482"/>
</linearGradient>
<linearGradient id="paint10_linear_1583_13777" x1="120.154" y1="74.374" x2="211.916" y2="74.374" gradientUnits="userSpaceOnUse">
<stop stop-color="#E21876"/>
<stop offset="1" stop-color="#313482"/>
</linearGradient>
<linearGradient id="paint11_linear_1583_13777" x1="187.418" y1="146.925" x2="211.916" y2="146.925" gradientUnits="userSpaceOnUse">
<stop stop-color="#E21876"/>
<stop offset="1" stop-color="#313482"/>
</linearGradient>
</defs>
</svg>
