<svg width="14" height="16" viewBox="0 0 14 16" fill="none" xmlns="http://www.w3.org/2000/svg">
<path d="M8.69807 14.0271C8.44869 14.58 8.28385 15.1801 8.2207 15.8094L13.4979 14.6876C13.7473 14.1347 13.912 13.5345 13.9753 12.9053L8.69807 14.0271Z" fill="#F8F8F8"/>
<path d="M13.4972 11.3267C13.7466 10.7739 13.9115 10.1737 13.9746 9.54441L9.8638 10.4187V8.73799L13.4971 7.96588C13.7465 7.41305 13.9113 6.81287 13.9745 6.18359L9.86367 7.05714V1.01276C9.23377 1.36643 8.67436 1.83721 8.21962 2.39252V7.40671L6.57557 7.75616V0.190674C5.94568 0.544222 5.38626 1.01512 4.93153 1.57043V8.10548L1.25296 8.88716C1.00358 9.43999 0.83862 10.0402 0.775345 10.6694L4.93153 9.7862V11.9028L0.477365 12.8493C0.227991 13.4021 0.0631514 14.0023 0 14.6316L4.66226 13.6408C5.04179 13.5619 5.36799 13.3375 5.58007 13.0287L6.4351 11.761V11.7608C6.52386 11.6296 6.57557 11.4715 6.57557 11.3012V9.43676L8.21962 9.08731V12.4488L13.4971 11.3264L13.4972 11.3267Z" fill="#F8F8F8"/>
</svg>
