<svg width="18" height="18" viewBox="0 0 18 18" fill="none" xmlns="http://www.w3.org/2000/svg">
<path d="M9.48047 11.5196H9.89833C10.3162 11.5196 10.6633 11.1468 10.6633 10.6968C10.6633 10.1375 10.464 10.0282 10.1362 9.9125L9.4869 9.6875V11.5196H9.48047Z" fill="#313482"/>
<path d="M8.9763 1.28517C4.71804 1.3006 1.26978 4.7643 1.28521 9.02257C1.30064 13.2808 4.76433 16.7291 9.02258 16.7137C13.2808 16.6982 16.7291 13.2345 16.7137 8.97628C16.6982 4.71801 13.2346 1.27745 8.9763 1.28517ZM10.7429 9.07657C11.3446 9.28485 12.1546 9.73228 12.1546 11.1131C12.1546 12.3011 11.2211 13.2577 10.0794 13.2577H9.57801V13.7051C9.57801 14.0214 9.31573 14.2837 8.99944 14.2837C8.68316 14.2837 8.42087 14.0214 8.42087 13.7051V13.2577H8.14316C6.87803 13.2577 5.85203 12.1931 5.85203 10.8817C5.85203 10.5654 6.11432 10.3031 6.4306 10.3031C6.74689 10.3031 7.00917 10.5654 7.00917 10.8817C7.00917 11.5528 7.51831 12.1006 8.14316 12.1006H8.42087V9.49313L7.25603 9.07657C6.65431 8.86828 5.84432 8.42085 5.84432 7.04C5.84432 5.85201 6.77774 4.89544 7.91945 4.89544H8.42087V4.44801C8.42087 4.13173 8.68316 3.86944 8.99944 3.86944C9.31573 3.86944 9.57801 4.13173 9.57801 4.44801V4.89544H9.85572C11.1209 4.89544 12.1468 5.96001 12.1468 7.27143C12.1468 7.58771 11.8846 7.85 11.5683 7.85C11.252 7.85 10.9897 7.58771 10.9897 7.27143C10.9897 6.60029 10.4806 6.05258 9.85572 6.05258H9.57801V8.66L10.7429 9.07657Z" fill="#313482"/>
<path d="M7.33984 7.30975C7.33984 7.86904 7.53913 7.97833 7.86699 8.09404L8.51627 8.31904V6.48047H8.09842C7.68056 6.48047 7.33984 6.85333 7.33984 7.30975Z" fill="#313482"/>
</svg>
