<svg width="330" height="290" viewBox="0 0 330 290" fill="none" xmlns="http://www.w3.org/2000/svg">
<path d="M7.68777 122.096C12.6095 127.016 19.2854 129.78 26.2467 129.78C31.4765 129.78 36.544 128.22 40.8289 125.358L22.1449 144.032C17.2232 148.952 14.4571 155.624 14.4571 162.582C14.4571 169.54 17.2222 176.212 22.1449 181.132C27.0667 186.051 33.7425 188.815 40.7038 188.815C45.9327 188.815 51.0011 187.255 55.286 184.394L45.4799 194.195C40.5582 199.114 37.7921 205.787 37.7921 212.745C37.7921 219.703 40.5572 226.375 45.4799 231.294C50.4017 236.214 57.0775 238.978 64.0388 238.978C69.2677 238.978 74.3361 237.418 78.621 234.557L76.2251 236.952C71.3033 241.871 68.5373 248.543 68.5373 255.501C68.5373 262.459 71.3023 269.131 76.2251 274.051C81.1468 278.97 87.8227 281.735 94.784 281.735C101.745 281.735 108.421 278.971 113.343 274.051L138.214 249.192C135.351 253.474 133.791 258.54 133.791 263.767C133.791 270.724 136.556 277.397 141.479 282.316C146.4 287.235 153.076 290 160.038 290C166.999 290 173.675 287.236 178.596 282.316L216.387 244.545C213.523 248.828 211.963 253.894 211.963 259.12C211.963 266.078 214.728 272.75 219.651 277.669C224.572 282.589 231.248 285.353 238.21 285.353C245.171 285.353 251.847 282.59 256.769 277.669L315.6 218.867C320.522 213.948 323.288 207.276 323.288 200.318C323.288 193.36 320.523 186.687 315.6 181.768C310.678 176.849 304.003 174.084 297.041 174.084C291.812 174.084 286.744 175.645 282.459 178.506L294.774 166.197C299.696 161.277 302.462 154.605 302.462 147.647C302.462 140.689 299.697 134.017 294.774 129.097C289.853 124.178 283.177 121.414 276.215 121.414C270.987 121.414 265.918 122.974 261.633 125.835L286.505 100.976C291.427 96.0567 294.193 89.3842 294.193 82.4264C294.193 75.4685 291.428 68.796 286.505 63.8768C281.583 58.9575 274.907 56.1929 267.946 56.1929C262.717 56.1929 257.649 57.7533 253.364 60.6143L269.203 44.7831C274.125 39.8638 276.891 33.1913 276.891 26.2335C276.891 19.2757 274.126 12.6032 269.203 7.6839C264.281 2.76463 257.605 0 250.644 0C243.683 0 237.007 2.76365 232.085 7.6839L196.804 42.9472C199.667 38.6645 201.228 33.5986 201.228 28.3724C201.228 21.4146 198.463 14.7421 193.54 9.8228C188.618 4.90353 181.942 2.1389 174.981 2.1389C168.02 2.1389 161.344 4.90254 156.422 9.8228L106.9 59.3195C109.764 55.0368 111.325 49.971 111.325 44.7437C111.325 37.7859 108.56 31.1134 103.637 26.1941C98.7155 21.2749 92.0396 18.5102 85.0783 18.5102C78.117 18.5102 71.4411 21.2739 66.5194 26.1941L7.68777 84.9972C2.76602 89.9164 0 96.5889 0 103.547C0 110.505 2.76504 117.177 7.68777 122.096Z" fill="white"/>
<path d="M322.511 233.912L320.694 235.728C319.985 236.437 319.985 237.587 320.694 238.296C321.404 239.006 322.555 239.006 323.265 238.296L325.081 236.481L326.897 238.296C327.607 239.006 328.757 239.006 329.467 238.296C330.177 237.587 330.177 236.437 329.467 235.728L327.651 233.912L329.467 232.097C330.177 231.388 330.177 230.238 329.467 229.528C329.112 229.173 328.647 228.996 328.181 228.996C327.716 228.996 327.251 229.173 326.896 229.528L325.08 231.344L323.264 229.528C322.908 229.173 322.444 228.996 321.978 228.996C321.512 228.996 321.048 229.173 320.692 229.528C319.983 230.238 319.983 231.388 320.692 232.097L322.509 233.912H322.511Z" fill="white"/>
<path d="M63.0144 273.018L61.1983 274.833C60.4886 275.542 60.4886 276.693 61.1983 277.402C61.908 278.111 63.0587 278.111 63.7685 277.402L65.5846 275.587L67.4007 277.402C68.1104 278.111 69.2611 278.111 69.9708 277.402C70.6806 276.693 70.6806 275.542 69.9708 274.833L68.1547 273.018L69.9708 271.203C70.6806 270.493 70.6806 269.343 69.9708 268.634C69.6155 268.279 69.1509 268.102 68.6853 268.102C68.2197 268.102 67.7551 268.279 67.3997 268.634L65.5836 270.449L63.7675 268.634C63.4121 268.279 62.9475 268.102 62.4819 268.102C62.0163 268.102 61.5517 268.279 61.1963 268.634C60.4866 269.343 60.4866 270.493 61.1963 271.203L63.0125 273.018H63.0144Z" fill="white"/>
<path d="M16.5457 112.127L14.7296 113.942C14.0199 114.652 14.0199 115.802 14.7296 116.511C15.4393 117.221 16.59 117.221 17.2997 116.511L19.1158 114.696L20.932 116.511C21.6417 117.221 22.7924 117.221 23.5021 116.511C24.2118 115.802 24.2118 114.652 23.5021 113.942L21.686 112.127L23.5021 110.312C24.2118 109.603 24.2118 108.453 23.5021 107.743C23.1467 107.388 22.6821 107.211 22.2165 107.211C21.7509 107.211 21.2863 107.388 20.931 107.743L19.1148 109.558L17.2987 107.743C16.9434 107.388 16.4788 107.211 16.0132 107.211C15.5476 107.211 15.0829 107.388 14.7276 107.743C14.0179 108.453 14.0179 109.603 14.7276 110.312L16.5437 112.127H16.5457Z" fill="white"/>
<path d="M235.128 18.8421L233.312 20.6573C232.602 21.3667 232.602 22.5168 233.312 23.2262C234.021 23.9355 235.172 23.9355 235.882 23.2262L237.698 21.4109L239.514 23.2262C240.224 23.9355 241.374 23.9355 242.084 23.2262C242.794 22.5168 242.794 21.3667 242.084 20.6573L240.268 18.8421L242.084 17.0269C242.794 16.3175 242.794 15.1674 242.084 14.4581C241.729 14.1029 241.264 13.9258 240.799 13.9258C240.333 13.9258 239.868 14.1029 239.513 14.4581L237.697 16.2733L235.881 14.4581C235.525 14.1029 235.061 13.9258 234.595 13.9258C234.13 13.9258 233.665 14.1029 233.31 14.4581C232.6 15.1674 232.6 16.3175 233.31 17.0269L235.126 18.8421H235.128Z" fill="white"/>
<path d="M201.88 275.551C204.807 275.551 207.189 277.932 207.189 280.858C207.189 283.784 204.807 286.165 201.88 286.165C198.952 286.165 196.57 283.784 196.57 280.858C196.57 277.932 198.952 275.551 201.88 275.551ZM201.88 282.531C202.803 282.531 203.554 281.781 203.554 280.858C203.554 279.935 202.803 279.184 201.88 279.184C200.957 279.184 200.206 279.935 200.206 280.858C200.206 281.781 200.957 282.531 201.88 282.531Z" fill="white"/>
<path d="M301.95 106.449C304.878 106.449 307.26 108.83 307.26 111.756C307.26 114.682 304.878 117.063 301.95 117.063C299.023 117.063 296.641 114.682 296.641 111.756C296.641 108.83 299.023 106.449 301.95 106.449ZM301.95 113.43C302.874 113.43 303.625 112.679 303.625 111.756C303.625 110.833 302.874 110.083 301.95 110.083C301.027 110.083 300.276 110.833 300.276 111.756C300.276 112.679 301.027 113.43 301.95 113.43Z" fill="white"/>
<path d="M79.6729 21.2812C82.6003 21.2812 84.9824 23.6622 84.9824 26.5882C84.9824 29.5141 82.6003 31.8951 79.6729 31.8951C76.7454 31.8951 74.3633 29.5141 74.3633 26.5882C74.3633 23.6622 76.7454 21.2812 79.6729 21.2812ZM79.6729 28.2617C80.5962 28.2617 81.3473 27.511 81.3473 26.5882C81.3473 25.6653 80.5962 24.9146 79.6729 24.9146C78.7496 24.9146 77.9985 25.6653 77.9985 26.5882C77.9985 27.511 78.7496 28.2617 79.6729 28.2617Z" fill="white"/>
<path d="M17.8213 186.973C20.7488 186.973 23.1309 189.354 23.1309 192.28C23.1309 195.206 20.7488 197.586 17.8213 197.586C14.8938 197.586 12.5117 195.206 12.5117 192.28C12.5117 189.354 14.8938 186.973 17.8213 186.973ZM17.8213 193.953C18.7446 193.953 19.4957 193.202 19.4957 192.28C19.4957 191.357 18.7446 190.606 17.8213 190.606C16.898 190.606 16.1469 191.357 16.1469 192.28C16.1469 193.202 16.898 193.953 17.8213 193.953Z" fill="white"/>
<path d="M7.68777 122.096C12.6095 127.016 19.2854 129.78 26.2467 129.78C31.4765 129.78 36.544 128.22 40.8289 125.358L22.1449 144.032C17.2232 148.952 14.4571 155.624 14.4571 162.582C14.4571 169.54 17.2222 176.212 22.1449 181.132C27.0667 186.051 33.7425 188.815 40.7038 188.815C45.9327 188.815 51.0011 187.255 55.286 184.394L45.4799 194.195C40.5582 199.114 37.7921 205.787 37.7921 212.745C37.7921 219.703 40.5572 226.375 45.4799 231.294C50.4017 236.214 57.0775 238.978 64.0388 238.978C69.2677 238.978 74.3361 237.418 78.621 234.557L76.2251 236.952C71.3033 241.871 68.5373 248.543 68.5373 255.501C68.5373 262.459 71.3023 269.131 76.2251 274.051C81.1468 278.97 87.8227 281.735 94.784 281.735C101.745 281.735 108.421 278.971 113.343 274.051L138.214 249.192C135.351 253.474 133.791 258.54 133.791 263.767C133.791 270.724 136.556 277.397 141.479 282.316C146.4 287.235 153.076 290 160.038 290C166.999 290 173.675 287.236 178.596 282.316L216.387 244.545C213.523 248.828 211.963 253.894 211.963 259.12C211.963 266.078 214.728 272.75 219.651 277.669C224.572 282.589 231.248 285.353 238.21 285.353C245.171 285.353 251.847 282.59 256.769 277.669L315.6 218.867C320.522 213.948 323.288 207.276 323.288 200.318C323.288 193.36 320.523 186.687 315.6 181.768C310.678 176.849 304.003 174.084 297.041 174.084C291.812 174.084 286.744 175.645 282.459 178.506L294.774 166.197C299.696 161.277 302.462 154.605 302.462 147.647C302.462 140.689 299.697 134.017 294.774 129.097C289.853 124.178 283.177 121.414 276.215 121.414C270.987 121.414 265.918 122.974 261.633 125.835L286.505 100.976C291.427 96.0567 294.193 89.3842 294.193 82.4264C294.193 75.4685 291.428 68.796 286.505 63.8768C281.583 58.9575 274.907 56.1929 267.946 56.1929C262.717 56.1929 257.649 57.7533 253.364 60.6143L269.203 44.7831C274.125 39.8638 276.891 33.1913 276.891 26.2335C276.891 19.2757 274.126 12.6032 269.203 7.6839C264.281 2.76463 257.605 0 250.644 0C243.683 0 237.007 2.76365 232.085 7.6839L196.804 42.9472C199.667 38.6645 201.228 33.5986 201.228 28.3724C201.228 21.4146 198.463 14.7421 193.54 9.8228C188.618 4.90353 181.942 2.1389 174.981 2.1389C168.02 2.1389 161.344 4.90254 156.422 9.8228L106.9 59.3195C109.764 55.0368 111.325 49.971 111.325 44.7437C111.325 37.7859 108.56 31.1134 103.637 26.1941C98.7155 21.2749 92.0396 18.5102 85.0783 18.5102C78.117 18.5102 71.4411 21.2739 66.5194 26.1941L7.68777 84.9972C2.76602 89.9164 0 96.5889 0 103.547C0 110.505 2.76504 117.177 7.68777 122.096Z" fill="#E6E6E6"/>
<path d="M322.511 233.912L320.694 235.728C319.985 236.437 319.985 237.587 320.694 238.296C321.404 239.006 322.555 239.006 323.265 238.296L325.081 236.481L326.897 238.296C327.607 239.006 328.757 239.006 329.467 238.296C330.177 237.587 330.177 236.437 329.467 235.728L327.651 233.912L329.467 232.097C330.177 231.388 330.177 230.238 329.467 229.528C329.112 229.173 328.647 228.996 328.181 228.996C327.716 228.996 327.251 229.173 326.896 229.528L325.08 231.344L323.264 229.528C322.908 229.173 322.444 228.996 321.978 228.996C321.512 228.996 321.048 229.173 320.692 229.528C319.983 230.238 319.983 231.388 320.692 232.097L322.509 233.912H322.511Z" fill="url(#paint0_linear_1582_11509)"/>
<path d="M63.0144 273.018L61.1983 274.833C60.4886 275.542 60.4886 276.693 61.1983 277.402C61.908 278.111 63.0587 278.111 63.7685 277.402L65.5846 275.587L67.4007 277.402C68.1104 278.111 69.2611 278.111 69.9708 277.402C70.6806 276.693 70.6806 275.542 69.9708 274.833L68.1547 273.018L69.9708 271.203C70.6806 270.493 70.6806 269.343 69.9708 268.634C69.6155 268.279 69.1509 268.102 68.6853 268.102C68.2197 268.102 67.7551 268.279 67.3997 268.634L65.5836 270.449L63.7675 268.634C63.4121 268.279 62.9475 268.102 62.4819 268.102C62.0163 268.102 61.5517 268.279 61.1963 268.634C60.4866 269.343 60.4866 270.493 61.1963 271.203L63.0125 273.018H63.0144Z" fill="url(#paint1_linear_1582_11509)"/>
<path d="M16.5457 112.127L14.7296 113.942C14.0199 114.652 14.0199 115.802 14.7296 116.511C15.4393 117.221 16.59 117.221 17.2997 116.511L19.1158 114.696L20.932 116.511C21.6417 117.221 22.7924 117.221 23.5021 116.511C24.2118 115.802 24.2118 114.652 23.5021 113.942L21.686 112.127L23.5021 110.312C24.2118 109.603 24.2118 108.453 23.5021 107.743C23.1467 107.388 22.6821 107.211 22.2165 107.211C21.7509 107.211 21.2863 107.388 20.931 107.743L19.1148 109.558L17.2987 107.743C16.9434 107.388 16.4788 107.211 16.0132 107.211C15.5476 107.211 15.0829 107.388 14.7276 107.743C14.0179 108.453 14.0179 109.603 14.7276 110.312L16.5437 112.127H16.5457Z" fill="url(#paint2_linear_1582_11509)"/>
<path d="M235.128 18.8421L233.312 20.6573C232.602 21.3667 232.602 22.5168 233.312 23.2262C234.021 23.9355 235.172 23.9355 235.882 23.2262L237.698 21.4109L239.514 23.2262C240.224 23.9355 241.374 23.9355 242.084 23.2262C242.794 22.5168 242.794 21.3667 242.084 20.6573L240.268 18.8421L242.084 17.0269C242.794 16.3175 242.794 15.1674 242.084 14.4581C241.729 14.1029 241.264 13.9258 240.799 13.9258C240.333 13.9258 239.868 14.1029 239.513 14.4581L237.697 16.2733L235.881 14.4581C235.525 14.1029 235.061 13.9258 234.595 13.9258C234.13 13.9258 233.665 14.1029 233.31 14.4581C232.6 15.1674 232.6 16.3175 233.31 17.0269L235.126 18.8421H235.128Z" fill="url(#paint3_linear_1582_11509)"/>
<path d="M201.88 275.551C204.807 275.551 207.189 277.932 207.189 280.858C207.189 283.784 204.807 286.165 201.88 286.165C198.952 286.165 196.57 283.784 196.57 280.858C196.57 277.932 198.952 275.551 201.88 275.551ZM201.88 282.531C202.803 282.531 203.554 281.781 203.554 280.858C203.554 279.935 202.803 279.184 201.88 279.184C200.957 279.184 200.206 279.935 200.206 280.858C200.206 281.781 200.957 282.531 201.88 282.531Z" fill="url(#paint4_linear_1582_11509)"/>
<path d="M301.95 106.449C304.878 106.449 307.26 108.83 307.26 111.756C307.26 114.682 304.878 117.063 301.95 117.063C299.023 117.063 296.641 114.682 296.641 111.756C296.641 108.83 299.023 106.449 301.95 106.449ZM301.95 113.43C302.874 113.43 303.625 112.679 303.625 111.756C303.625 110.833 302.874 110.083 301.95 110.083C301.027 110.083 300.276 110.833 300.276 111.756C300.276 112.679 301.027 113.43 301.95 113.43Z" fill="url(#paint5_linear_1582_11509)"/>
<path d="M79.6729 21.2812C82.6003 21.2812 84.9824 23.6622 84.9824 26.5882C84.9824 29.5141 82.6003 31.8951 79.6729 31.8951C76.7454 31.8951 74.3633 29.5141 74.3633 26.5882C74.3633 23.6622 76.7454 21.2812 79.6729 21.2812ZM79.6729 28.2617C80.5962 28.2617 81.3473 27.511 81.3473 26.5882C81.3473 25.6653 80.5962 24.9146 79.6729 24.9146C78.7496 24.9146 77.9985 25.6653 77.9985 26.5882C77.9985 27.511 78.7496 28.2617 79.6729 28.2617Z" fill="url(#paint6_linear_1582_11509)"/>
<path d="M17.8213 186.973C20.7488 186.973 23.1309 189.354 23.1309 192.28C23.1309 195.206 20.7488 197.586 17.8213 197.586C14.8938 197.586 12.5117 195.206 12.5117 192.28C12.5117 189.354 14.8938 186.973 17.8213 186.973ZM17.8213 193.953C18.7446 193.953 19.4957 193.202 19.4957 192.28C19.4957 191.357 18.7446 190.606 17.8213 190.606C16.898 190.606 16.1469 191.357 16.1469 192.28C16.1469 193.202 16.898 193.953 17.8213 193.953Z" fill="url(#paint7_linear_1582_11509)"/>
<path d="M161.646 235.621C149.415 235.621 137.543 233.226 126.358 228.5C115.562 223.932 105.869 217.398 97.547 209.081C89.2253 200.763 82.6882 191.075 78.1179 180.286C73.3901 169.105 70.9922 157.239 70.9922 145.014C70.9922 132.79 73.3891 120.924 78.1169 109.744C82.6892 98.9483 89.2263 89.2583 97.546 80.9428C105.863 72.6302 115.556 66.0984 126.356 61.5284C137.542 56.8019 149.414 54.4062 161.645 54.4062C173.875 54.4062 185.748 56.8019 196.933 61.5284C207.739 66.1013 217.434 72.6331 225.749 80.9428C234.071 89.2613 240.606 98.9512 245.173 109.743C249.901 120.924 252.299 132.79 252.299 145.013C252.299 157.237 249.902 169.104 245.173 180.284C240.608 191.072 234.073 200.76 225.749 209.08C217.429 217.396 207.734 223.929 196.934 228.499C185.748 233.226 173.875 235.621 161.645 235.621H161.646Z" fill="white"/>
<g style="mix-blend-mode:multiply">
<path d="M156.785 77.7757C156.504 75.2511 155.078 73.1112 153.058 71.847C151.922 71.1366 150.599 70.7027 149.185 70.6348C149.053 70.628 148.921 70.625 148.788 70.625H148.787C148.495 70.625 148.199 70.6417 147.906 70.6732H147.903L147.899 70.6742C147.346 70.7362 146.792 70.806 146.237 70.8867C134.365 72.5888 122.29 78.3778 112.056 87.3043C101.345 96.6489 93.7681 108.455 90.7225 120.551C90.5266 121.327 90.4488 122.115 90.4853 122.893C90.5453 124.202 90.9282 125.483 91.6192 126.639C91.6488 126.688 91.6793 126.738 91.7098 126.786C92.8172 128.552 94.5339 129.801 96.5616 130.311C97.2054 130.472 97.8669 130.554 98.5254 130.554C102.217 130.554 105.424 128.055 106.325 124.475C111.038 105.756 130.487 88.7919 149.679 86.6569C151.816 86.4188 153.732 85.3641 155.073 83.6867C156.415 82.0102 157.022 79.9106 156.785 77.7757ZM113.817 103.093C108.566 109.225 104.632 116.281 102.793 123.587C102.3 125.546 100.545 126.913 98.5254 126.913C98.1652 126.913 97.8029 126.868 97.4495 126.779C96.9593 126.656 96.5026 126.454 96.0931 126.183C95.5497 125.825 95.0891 125.346 94.7455 124.77C94.6117 124.547 94.4994 124.315 94.4079 124.077C94.088 123.24 94.0309 122.326 94.2543 121.439C97.1208 110.056 104.293 98.9079 114.451 90.0473C124.609 81.1857 136.631 75.5905 148.303 74.2918C148.465 74.2741 148.628 74.2653 148.787 74.2653H148.788C149.337 74.2653 149.865 74.3676 150.355 74.5545C151.216 74.8831 151.955 75.4754 152.463 76.2418C152.837 76.8046 153.085 77.4628 153.165 78.179C153.296 79.3469 152.963 80.496 152.228 81.414C151.493 82.3319 150.446 82.9084 149.277 83.0393C139.594 84.1156 129.852 88.7122 121.724 95.3689C118.864 97.7095 116.204 100.306 113.817 103.093Z" fill="#DDDDDD"/>
</g>
<g style="mix-blend-mode:multiply">
<path d="M213.242 108.317C212.812 107.888 212.362 107.484 211.893 107.109C210.671 106.131 209.322 105.341 207.861 104.75C206.717 104.288 205.536 103.959 204.328 103.766C203.479 103.63 202.616 103.562 201.745 103.562C199.635 103.562 197.577 103.962 195.629 104.75C193.609 105.568 191.798 106.768 190.249 108.316L146.219 152.328L144.956 151.066L143.669 149.778L137.997 144.11C136.481 142.632 134.722 141.483 132.764 140.692C131.624 140.231 130.446 139.903 129.241 139.71C128.389 139.574 127.524 139.506 126.65 139.506C124.541 139.506 122.483 139.904 120.535 140.691C118.515 141.509 116.705 142.707 115.156 144.254C112.085 147.323 110.395 151.404 110.395 155.747C110.395 156.617 110.462 157.476 110.595 158.318C111.127 161.682 112.7 164.782 115.155 167.236L134.978 187.048C137.981 190.05 141.972 191.703 146.219 191.703C150.465 191.703 154.453 190.05 157.456 187.048L213.241 131.291C219.576 124.96 219.577 114.654 213.241 108.317H213.242ZM146.219 188.063C144.635 188.063 143.097 187.765 141.669 187.193C140.146 186.586 138.748 185.669 137.553 184.475L117.73 164.662L117.686 164.617C115.331 162.241 114.037 159.094 114.037 155.747C114.037 152.4 115.348 149.21 117.73 146.829C120.19 144.374 123.42 143.146 126.65 143.146C129.88 143.146 133.109 144.374 135.566 146.829L143.669 154.927L146.219 157.476L192.824 110.89C195.284 108.432 198.514 107.203 201.745 107.203C204.406 107.203 207.067 108.036 209.296 109.705C209.774 110.061 210.231 110.456 210.665 110.89C211.921 112.147 212.856 113.605 213.47 115.161C215.259 119.694 214.324 125.062 210.665 128.718L154.881 184.475C152.566 186.789 149.489 188.063 146.219 188.063Z" fill="#DDDDDD"/>
</g>
<path d="M95.9708 126.187C95.4609 126.187 94.9491 126.123 94.45 125.998C92.8377 125.593 91.4802 124.584 90.6268 123.157C89.7734 121.731 89.5273 120.058 89.9328 118.447C92.8879 106.708 100.263 95.2307 110.698 86.1281C121.132 77.0255 133.508 71.2749 145.546 69.9358C145.775 69.9102 146.005 69.8984 146.232 69.8984C149.408 69.8984 152.068 72.2764 152.419 75.4307C152.603 77.0816 152.133 78.7059 151.094 80.0036C150.057 81.3013 148.575 82.1169 146.923 82.3009C127.037 84.5126 106.886 102.09 102.003 121.484C101.306 124.252 98.8255 126.187 95.9699 126.187H95.9708Z" fill="#B3B3B3"/>
<path d="M143.664 187.327C139.903 187.327 136.369 185.863 133.71 183.206L113.887 163.393C111.161 160.669 109.66 157.046 109.66 153.193C109.66 149.339 111.161 145.711 113.887 142.987C116.611 140.268 120.235 138.77 124.095 138.77C127.954 138.77 131.579 140.268 134.299 142.987L143.665 152.347L188.982 107.049C191.705 104.328 195.33 102.828 199.191 102.828C203.051 102.828 206.677 104.327 209.399 107.048C215.025 112.676 215.025 121.827 209.399 127.45L153.614 183.207C150.956 185.864 147.422 187.328 143.666 187.328L143.664 187.327Z" fill="url(#paint8_linear_1582_11509)"/>
<g style="mix-blend-mode:multiply">
<path d="M249.399 111.578C244.74 100.567 238.074 90.6834 229.584 82.1987C229.164 81.7796 228.741 81.3644 228.315 80.9551C220.122 73.0675 210.669 66.8289 200.192 62.3947C195.612 60.4604 190.92 58.9069 186.136 57.743C179 56.0045 171.662 55.1289 164.192 55.1289C151.718 55.1289 139.606 57.5728 128.196 62.3937C117.177 67.0562 107.289 73.7188 98.8061 82.1987C90.32 90.6805 83.652 100.564 78.9882 111.576C74.1639 122.982 71.7188 135.088 71.7188 147.556C71.7188 155.022 72.5948 162.357 74.3342 169.49C75.4996 174.27 77.052 178.96 78.9872 183.536C83.4158 193.991 89.6526 203.431 97.5412 211.621C97.9576 212.055 98.3799 212.485 98.8061 212.911C107.294 221.394 117.182 228.059 128.194 232.719C129.077 233.091 129.963 233.451 130.854 233.795C134.672 235.271 138.564 236.486 142.518 237.435H185.869C189.822 236.486 193.713 235.271 197.53 233.795C198.421 233.451 199.308 233.092 200.19 232.72C211.209 228.057 221.098 221.392 229.584 212.911C238.076 204.424 244.742 194.54 249.398 183.536C254.222 172.131 256.667 160.026 256.667 147.556C256.667 135.087 254.222 122.982 249.399 111.578ZM142.956 233.795C142.018 233.565 141.083 233.319 140.152 233.057C136.579 232.055 133.062 230.824 129.614 229.367C119.038 224.891 109.538 218.489 101.381 210.337C100.954 209.91 100.532 209.479 100.115 209.045C92.5594 201.186 86.5854 192.135 82.3419 182.118C77.7115 171.17 75.3608 159.54 75.3608 147.556C75.3608 135.572 77.7115 123.944 82.3419 112.995C86.8197 102.425 93.2248 92.9257 101.381 84.7725C109.538 76.6192 119.038 70.2222 129.614 65.7467C140.568 61.1186 152.203 58.7692 164.192 58.7692C176.182 58.7692 187.818 61.1186 198.772 65.7467C208.8 69.991 217.865 75.963 225.732 83.522C226.161 83.9342 226.586 84.3504 227.009 84.7725C235.166 92.9257 241.571 102.425 246.044 112.995C247.501 116.44 248.732 119.951 249.734 123.521C251.921 131.296 253.025 139.343 253.025 147.556C253.025 159.54 250.674 171.17 246.044 182.118C241.571 192.689 235.166 202.184 227.009 210.337C218.851 218.489 209.348 224.891 198.772 229.367C194.425 231.203 189.971 232.681 185.429 233.795C178.528 235.489 171.425 236.344 164.192 236.344C156.96 236.344 149.858 235.489 142.956 233.795Z" fill="#DDDDDD"/>
</g>
<path d="M246.852 109.032C242.43 98.5821 236.2 89.146 228.32 80.9584C227.897 80.5196 227.47 80.0837 227.038 79.6518C218.557 71.1749 208.668 64.5122 197.645 59.8488C186.233 55.0269 174.121 52.582 161.647 52.582C149.172 52.582 137.061 55.0269 125.65 59.8478C114.63 64.5103 104.743 71.1729 96.2602 79.6518C87.7731 88.1336 81.1061 98.0184 76.4423 109.03C71.618 120.437 69.1719 132.542 69.1719 145.01C69.1719 157.479 71.618 169.584 76.4413 180.989C81.1042 191.997 87.7712 201.88 96.2602 210.364C96.6854 210.789 97.1136 211.209 97.5458 211.624C105.741 219.511 115.187 225.745 125.648 230.172C128.994 231.585 132.399 232.795 135.857 233.798C144.193 236.216 152.829 237.438 161.647 237.438C170.464 237.438 179.1 236.216 187.436 233.798C190.893 232.795 194.298 231.586 197.643 230.173C208.663 225.51 218.552 218.846 227.038 210.364C235.524 201.882 242.196 191.994 246.852 180.99C251.675 169.584 254.121 157.479 254.121 145.01C254.121 132.542 251.675 120.437 246.852 109.032ZM72.814 145.01C72.814 133.026 75.1656 121.398 79.796 110.448C84.2728 99.8779 90.6779 90.3788 98.8352 82.2256C106.993 74.0724 116.492 67.6753 127.067 63.2008C138.022 58.5727 149.656 56.2223 161.647 56.2223C173.637 56.2223 185.271 58.5727 196.226 63.2008C206.802 67.6753 216.306 74.0724 224.463 82.2256C224.892 82.6545 225.317 83.0884 225.737 83.5252C233.289 91.3823 239.26 100.435 243.497 110.448C248.128 121.398 250.479 133.026 250.479 145.01C250.479 156.995 248.128 168.623 243.497 179.572C239.024 190.143 232.619 199.637 224.463 207.79C216.306 215.943 206.802 222.345 196.226 226.82C185.271 231.448 173.637 233.798 161.647 233.798C149.656 233.798 138.022 231.448 127.067 226.82C117.042 222.578 107.984 216.604 100.12 209.048C99.6877 208.634 99.2595 208.214 98.8352 207.79C90.6779 199.637 84.2728 190.143 79.796 179.572C75.1656 168.623 72.814 156.995 72.814 145.01Z" fill="#333333"/>
<path d="M154.23 75.2239C154.093 73.9862 153.679 72.84 153.055 71.8453C151.627 69.5648 149.092 68.0742 146.233 68.0742H146.232C145.94 68.0742 145.644 68.09 145.352 68.1224H145.346C132.943 69.5028 120.213 75.4089 109.502 84.7535C98.7898 94.0972 91.2132 105.904 88.1686 117.999C87.644 120.082 87.9619 122.244 89.0654 124.088C89.7318 125.202 90.6354 126.119 91.7064 126.785C92.4082 127.223 93.1819 127.551 94.0078 127.759C94.6516 127.921 95.3121 128.003 95.9716 128.003C99.6629 128.003 102.87 125.503 103.771 121.924C105.458 115.222 109.035 108.744 113.814 103.092C116.181 100.29 118.845 97.6902 121.72 95.3673C129.243 89.2881 138.211 85.0969 147.125 84.1051C149.262 83.868 151.177 82.8124 152.519 81.1349C153.86 79.4584 154.469 77.3588 154.23 75.2239ZM100.239 121.036C99.7456 122.994 97.9905 124.363 95.9716 124.363C95.6103 124.363 95.2481 124.317 94.8947 124.229C94.7274 124.186 94.564 124.135 94.4045 124.075C93.4802 123.726 92.7065 123.08 92.1907 122.22C91.5873 121.21 91.4131 120.027 91.7005 118.887C94.5659 107.505 101.739 96.3571 111.897 87.4955C122.055 78.6349 134.077 73.0397 145.748 71.741C145.912 71.7233 146.073 71.7145 146.233 71.7145C147.173 71.7145 148.057 72.0136 148.785 72.5311C149.485 73.0279 150.038 73.7265 150.352 74.5529C150.481 74.8913 150.569 75.2514 150.611 75.6273C150.741 76.7951 150.408 77.9443 149.674 78.8622C148.939 79.7811 147.891 80.3576 146.723 80.4875C126.145 82.7769 105.291 100.966 100.239 121.036Z" fill="#333333"/>
<path d="M211.893 107.112C211.522 106.648 211.122 106.2 210.692 105.77C209.141 104.22 207.331 103.021 205.311 102.203C203.363 101.415 201.305 101.016 199.194 101.016C197.084 101.016 195.027 101.415 193.079 102.203C191.058 103.021 189.248 104.22 187.699 105.769L143.669 149.78L137.997 144.112L135.592 141.708C134.043 140.16 132.234 138.961 130.214 138.144C128.267 137.357 126.21 136.958 124.1 136.958C121.991 136.958 119.933 137.357 117.985 138.144C115.965 138.961 114.154 140.159 112.606 141.707C109.535 144.776 107.844 148.858 107.844 153.2C107.844 157.543 109.535 161.62 112.604 164.688L115.155 167.238L132.428 184.502C135.43 187.502 139.423 189.155 143.669 189.155C147.916 189.155 151.903 187.502 154.906 184.502L210.691 128.745C216.596 122.842 216.996 113.487 211.893 107.112ZM135.003 181.927L117.731 164.664L117.686 164.619L115.18 162.114C112.797 159.732 111.486 156.568 111.486 153.2C111.486 149.833 112.797 146.664 115.18 144.282C117.639 141.826 120.87 140.598 124.1 140.598C127.331 140.598 130.56 141.826 133.017 144.282L135.567 146.832L143.669 154.929L190.274 108.342C192.733 105.885 195.964 104.656 199.194 104.656C202.425 104.656 205.656 105.885 208.116 108.342C208.548 108.774 208.941 109.231 209.297 109.707C212.991 114.641 212.597 121.69 208.116 126.171L152.33 181.927C150.015 184.241 146.939 185.515 143.669 185.515C140.399 185.515 137.318 184.241 135.003 181.927Z" fill="#333333"/>
<path d="M264.977 235.621C264.977 236.626 264.161 237.441 263.156 237.441H60.1335C59.1285 237.441 58.3125 236.626 58.3125 235.621C58.3125 234.615 59.1285 233.801 60.1335 233.801H263.156C264.161 233.801 264.977 234.615 264.977 235.621Z" fill="#333333"/>
<path d="M52.6191 237.441H44.325C43.3189 237.441 42.5039 236.626 42.5039 235.621C42.5039 234.615 43.3189 233.801 44.325 233.801H52.6191C53.6251 233.801 54.4401 234.615 54.4401 235.621C54.4401 236.626 53.6251 237.441 52.6191 237.441Z" fill="#333333"/>
<path d="M93.4355 228.519H85.1414C84.1354 228.519 83.3203 227.705 83.3203 226.699C83.3203 225.694 84.1354 224.879 85.1414 224.879H93.4355C94.4415 224.879 95.2565 225.694 95.2565 226.699C95.2565 227.705 94.4415 228.519 93.4355 228.519Z" fill="#333333"/>
<path d="M77.6347 228.519H69.3406C68.3346 228.519 67.5195 227.705 67.5195 226.699C67.5195 225.694 68.3346 224.879 69.3406 224.879H77.6347C78.6407 224.879 79.4558 225.694 79.4558 226.699C79.4558 227.705 78.6407 228.519 77.6347 228.519Z" fill="#333333"/>
<path d="M238.139 228.519H229.844C228.838 228.519 228.023 227.705 228.023 226.699C228.023 225.694 228.838 224.879 229.844 224.879H238.139C239.145 224.879 239.96 225.694 239.96 226.699C239.96 227.705 239.145 228.519 238.139 228.519Z" fill="#333333"/>
<path d="M253.946 228.519H245.653C244.647 228.519 243.832 227.705 243.832 226.699C243.832 225.694 244.647 224.879 245.653 224.879H253.946C254.952 224.879 255.767 225.694 255.767 226.699C255.767 227.705 254.952 228.519 253.946 228.519Z" fill="#333333"/>
<path d="M278.958 237.441H270.665C269.659 237.441 268.844 236.626 268.844 235.621C268.844 234.615 269.659 233.801 270.665 233.801H278.958C279.964 233.801 280.779 234.615 280.779 235.621C280.779 236.626 279.964 237.441 278.958 237.441Z" fill="#333333"/>
<defs>
<linearGradient id="paint0_linear_1582_11509" x1="320.16" y1="233.912" x2="329.999" y2="233.912" gradientUnits="userSpaceOnUse">
<stop stop-color="#E21876"/>
<stop offset="1" stop-color="#313482"/>
</linearGradient>
<linearGradient id="paint1_linear_1582_11509" x1="60.6642" y1="273.017" x2="70.5031" y2="273.017" gradientUnits="userSpaceOnUse">
<stop stop-color="#E21876"/>
<stop offset="1" stop-color="#313482"/>
</linearGradient>
<linearGradient id="paint2_linear_1582_11509" x1="14.1955" y1="112.127" x2="24.0343" y2="112.127" gradientUnits="userSpaceOnUse">
<stop stop-color="#E21876"/>
<stop offset="1" stop-color="#313482"/>
</linearGradient>
<linearGradient id="paint3_linear_1582_11509" x1="232.777" y1="18.8415" x2="242.616" y2="18.8415" gradientUnits="userSpaceOnUse">
<stop stop-color="#E21876"/>
<stop offset="1" stop-color="#313482"/>
</linearGradient>
<linearGradient id="paint4_linear_1582_11509" x1="196.57" y1="280.857" x2="207.189" y2="280.857" gradientUnits="userSpaceOnUse">
<stop stop-color="#E21876"/>
<stop offset="1" stop-color="#313482"/>
</linearGradient>
<linearGradient id="paint5_linear_1582_11509" x1="296.641" y1="111.756" x2="307.26" y2="111.756" gradientUnits="userSpaceOnUse">
<stop stop-color="#E21876"/>
<stop offset="1" stop-color="#313482"/>
</linearGradient>
<linearGradient id="paint6_linear_1582_11509" x1="74.3634" y1="26.5877" x2="84.9824" y2="26.5877" gradientUnits="userSpaceOnUse">
<stop stop-color="#E21876"/>
<stop offset="1" stop-color="#313482"/>
</linearGradient>
<linearGradient id="paint7_linear_1582_11509" x1="12.5119" y1="192.279" x2="23.1308" y2="192.279" gradientUnits="userSpaceOnUse">
<stop stop-color="#E21876"/>
<stop offset="1" stop-color="#313482"/>
</linearGradient>
<linearGradient id="paint8_linear_1582_11509" x1="109.662" y1="145.074" x2="213.618" y2="145.074" gradientUnits="userSpaceOnUse">
<stop stop-color="#E21876"/>
<stop offset="1" stop-color="#313482"/>
</linearGradient>
</defs>
</svg>
