<svg width="25" height="25" viewBox="0 0 25 25" fill="none" xmlns="http://www.w3.org/2000/svg">
<path d="M8.5 10.3182C8.08579 10.3182 7.75 10.6539 7.75 11.0682C7.75 11.4824 8.08579 11.8182 8.5 11.8182H11.5C11.9142 11.8182 12.25 11.4824 12.25 11.0682C12.25 10.6539 11.9142 10.3182 11.5 10.3182H8.5Z" fill="#F8F8F8" fill-opacity="0.5"/>
<path d="M8.5 6.31816C8.08579 6.31816 7.75 6.65395 7.75 7.06816C7.75 7.48237 8.08579 7.81816 8.5 7.81816L15.5 7.81816C15.9142 7.81816 16.25 7.48238 16.25 7.06816C16.25 6.65395 15.9142 6.31816 15.5 6.31816L8.5 6.31816Z" fill="#F8F8F8" fill-opacity="0.5"/>
<path fill-rule="evenodd" clip-rule="evenodd" d="M12.4463 1.31812L13.3161 1.31812C14.9099 1.31811 16.1651 1.3181 17.1609 1.42189C18.1776 1.52786 19.0137 1.74893 19.7289 2.25284C20.1107 2.52184 20.4512 2.84193 20.7393 3.20414C21.2842 3.88921 21.5245 4.69477 21.6389 5.66694C21.75 6.61136 21.75 7.79885 21.75 9.29274V11.9136C21.75 13.372 21.75 14.5038 21.6898 15.4171C21.6287 16.3429 21.5035 17.0964 21.2283 17.7907C20.3902 19.9056 18.6254 21.5568 16.4101 22.3344C15.0312 22.8185 13.3393 22.8183 10.3739 22.8181L10.0112 22.8181C8.37603 22.8185 7.35703 22.8187 6.51636 22.5236C5.16729 22.05 4.08574 21.0419 3.57072 19.7423C3.39606 19.3015 3.32106 18.8336 3.28512 18.2887C3.24999 17.7561 3.25 17.1006 3.25 16.2763L3.25 10.0086C3.24998 8.1735 3.24997 6.71523 3.41314 5.57297C3.58185 4.39192 3.93801 3.43967 4.73077 2.69354C5.51711 1.95346 6.5099 1.62646 7.74244 1.4705C8.94685 1.31809 10.4883 1.3181 12.4463 1.31812ZM7.93075 2.95863C6.84862 3.09556 6.21728 3.35434 5.75882 3.78584C5.30679 4.21128 5.04055 4.78762 4.89806 5.78509C4.7518 6.80903 4.75 8.16001 4.75 10.0681L4.75 16.2499C4.75 17.1064 4.75038 17.7126 4.78187 18.19C4.81292 18.6607 4.87191 18.9542 4.96521 19.1897C5.31176 20.0641 6.05229 20.7709 7.0132 21.1082C7.58053 21.3074 8.31928 21.3181 10.1818 21.3181C10.5023 21.3181 10.805 21.318 11.0911 21.3174C12.4753 21.269 13.5826 20.1317 13.5826 18.7357C13.5826 18.5886 13.5761 18.4304 13.5678 18.2528L13.5648 18.187C13.5575 18.0321 13.5496 17.8635 13.5461 17.6953C13.5382 17.3152 13.5502 16.8717 13.6649 16.4436C13.8884 15.6096 14.5398 14.9582 15.3737 14.7347C15.8019 14.62 16.2454 14.608 16.6255 14.6159C16.7936 14.6194 16.9622 14.6273 17.1171 14.6346L17.183 14.6377C17.3606 14.6459 17.5188 14.6524 17.6659 14.6524C19.0926 14.6524 20.2492 13.4958 20.2492 12.069C20.2492 12.0575 20.2495 12.0461 20.25 12.0347C20.25 11.9857 20.25 11.9362 20.25 11.8863V9.34084C20.25 7.788 20.2488 6.68881 20.1492 5.84222C20.0516 5.01326 19.8681 4.51859 19.5653 4.13787C19.3677 3.88935 19.1321 3.66725 18.865 3.47906C18.4478 3.18514 17.9023 3.00729 17.0054 2.91381C16.0965 2.81907 14.9194 2.81812 13.2727 2.81812L12.5 2.81812C10.4765 2.81812 9.03002 2.81953 7.93075 2.95863ZM20.1959 15.2744C19.5002 15.8242 18.6214 16.1524 17.6659 16.1524C17.4801 16.1524 17.2905 16.1443 17.1135 16.136L17.0456 16.1329C16.8889 16.1255 16.7414 16.1186 16.5944 16.1156C16.2537 16.1085 15.9812 16.1249 15.762 16.1836C15.4456 16.2684 15.1986 16.5155 15.1138 16.8318C15.0551 17.051 15.0387 17.3236 15.0457 17.6642C15.0488 17.8112 15.0557 17.9587 15.0631 18.1153L15.0662 18.1833C15.0744 18.3603 15.0826 18.5499 15.0826 18.7357C15.0826 19.6783 14.7632 20.5463 14.2268 21.2373C14.9199 21.1805 15.4442 21.0837 15.9132 20.9191C17.7404 20.2777 19.1642 18.9278 19.8338 17.2381C20.0276 16.749 20.1368 16.17 20.193 15.3184C20.194 15.3038 20.1949 15.2891 20.1959 15.2744Z" fill="#F8F8F8" fill-opacity="0.5"/>
</svg>
