<svg width="24" height="25" viewBox="0 0 24 25" fill="none" xmlns="http://www.w3.org/2000/svg">
<path fill-rule="evenodd" clip-rule="evenodd" d="M8.30035 1.83511C8.9364 1.92574 9.50638 2.12567 9.95973 2.60615C10.4073 3.08048 10.588 3.6664 10.6708 4.31915C10.75 4.94372 10.75 5.73274 10.75 6.68939L10.75 9.04675C10.7501 9.44071 10.7501 9.81238 10.7098 10.1016C10.6691 10.3933 10.5568 10.8526 10.106 11.1083C9.63692 11.3743 9.18013 11.2103 8.91251 11.0763C8.65662 10.9482 8.3599 10.7385 8.05396 10.5222L7.90824 10.4192C7.37012 10.039 7.22655 9.94738 7.07819 9.89977C6.93214 9.8529 6.76931 9.84468 6.12223 9.84468H5.0816C4.58857 9.84469 4.17451 9.8447 3.835 9.81745C3.47977 9.78894 3.14356 9.72714 2.82247 9.56845C2.23202 9.27664 1.7676 8.77902 1.50089 8.17284C1.35789 7.8478 1.30159 7.50727 1.27533 7.1397C1.24999 6.78499 1.24999 6.35059 1.25 5.82437V5.77033C1.24999 5.24411 1.24999 4.8097 1.27533 4.45499C1.30159 4.08742 1.35789 3.74688 1.50089 3.42185C1.7676 2.81566 2.23202 2.31805 2.82247 2.02624C3.14356 1.86754 3.47977 1.80574 3.835 1.77723C4.17452 1.74998 4.58856 1.74999 5.0816 1.75L6.05449 1.75C6.95079 1.74997 7.70264 1.74994 8.30035 1.83511ZM8.08874 3.32011C7.60928 3.25179 6.96524 3.25 6 3.25H5.11111C4.58084 3.25 4.22737 3.25057 3.95501 3.27243C3.69161 3.29357 3.56781 3.33106 3.48706 3.37097C3.22521 3.50039 3.00461 3.7288 2.87388 4.02593C2.8295 4.1268 2.7921 4.27381 2.77152 4.56189C2.75045 4.85679 2.75 5.23737 2.75 5.79734C2.75 6.35732 2.75045 6.7379 2.77152 7.0328C2.7921 7.32088 2.8295 7.46789 2.87388 7.56876C3.00461 7.86589 3.22521 8.0943 3.48706 8.22371C3.56781 8.26362 3.69161 8.30112 3.95501 8.32226C4.22737 8.34412 4.58084 8.34468 5.11111 8.34468L6.21256 8.34463C6.72544 8.34421 7.13878 8.34387 7.53652 8.47151C7.93206 8.59843 8.27231 8.83925 8.6987 9.14103L8.87809 9.26784C9.02044 9.36842 9.14066 9.45331 9.24674 9.52558C9.24961 9.38565 9.25 9.21355 9.25 8.99851V6.73944C9.25 5.72016 9.24858 5.02694 9.18274 4.50792C9.1191 4.00621 9.00696 3.78209 8.8687 3.63556C8.73626 3.49519 8.54195 3.38469 8.08874 3.32011Z" fill="#FCFCFC"/>
<path fill-rule="evenodd" clip-rule="evenodd" d="M12.2637 3.5C12.2637 3.08579 12.5994 2.75 13.0137 2.75C17.26 2.75 20.8706 5.4642 22.2087 9.25007C22.5109 10.1052 22.6972 11.0146 22.7489 11.959C22.7715 12.3726 22.4546 12.7262 22.041 12.7489C21.6274 12.7715 21.2738 12.4546 21.2511 12.041C21.2173 11.423 21.1155 10.8237 20.9533 10.25H16.6718C16.7186 10.8123 16.7481 11.3928 16.759 11.9863C16.7665 12.4005 16.4369 12.7423 16.0228 12.7499C15.6086 12.7574 15.2668 12.4278 15.2592 12.0137C15.2481 11.405 15.2163 10.815 15.1663 10.25H13.0137C12.5994 10.25 12.2637 9.91421 12.2637 9.5C12.2637 9.08579 12.5994 8.75 13.0137 8.75H14.9826C14.8295 7.78681 14.6205 6.93072 14.3716 6.22162C14.1181 5.49929 13.8374 4.97039 13.5644 4.63676C13.2867 4.29728 13.0967 4.25 13.0137 4.25C12.5994 4.25 12.2637 3.91421 12.2637 3.5ZM15.2948 4.56943C15.4772 4.91983 15.641 5.30883 15.787 5.72488C16.09 6.58816 16.3325 7.61463 16.5001 8.75H20.3643C19.3356 6.73768 17.5051 5.20403 15.2948 4.56943Z" fill="#FCFCFC"/>
<path fill-rule="evenodd" clip-rule="evenodd" d="M2 11.75C2.41421 11.75 2.75 12.0858 2.75 12.5C2.75 13.2809 2.85829 14.0355 3.06035 14.75H7.34184C7.30863 14.351 7.28412 13.9429 7.26882 13.5276C7.25357 13.1137 7.57676 12.7658 7.99069 12.7505C8.40463 12.7353 8.75255 13.0585 8.7678 13.4724C8.78393 13.9102 8.81078 14.3368 8.84735 14.75H11C11.4142 14.75 11.75 15.0858 11.75 15.5C11.75 15.9142 11.4142 16.25 11 16.25H9.03108C9.19518 17.2828 9.42353 18.1915 9.69569 18.9273C9.94508 19.6016 10.2166 20.0905 10.4772 20.3968C10.7409 20.7067 10.9198 20.75 11 20.75C11.4142 20.75 11.75 21.0858 11.75 21.5C11.75 21.9142 11.4142 22.25 11 22.25C6.75362 22.25 3.1431 19.5358 1.80499 15.75C1.44535 14.7325 1.25 13.6382 1.25 12.5C1.25 12.0858 1.58579 11.75 2 11.75ZM8.71887 20.4306C8.56158 20.1284 8.41846 19.7981 8.28884 19.4477C7.95639 18.5488 7.69231 17.4607 7.5136 16.25H3.64934C4.67802 18.2623 6.5086 19.796 8.71887 20.4306Z" fill="#FCFCFC"/>
<path fill-rule="evenodd" clip-rule="evenodd" d="M17.9455 13.75C17.0492 13.75 16.2974 13.7499 15.6997 13.8351C15.0636 13.9257 14.4936 14.1257 14.0403 14.6062C13.5928 15.0805 13.412 15.6664 13.3292 16.3191C13.25 16.9437 13.25 17.7328 13.25 18.6894L13.25 21.0468C13.2499 21.4407 13.2499 21.8124 13.2902 22.1016C13.3309 22.3933 13.4432 22.8526 13.894 23.1083C14.3631 23.3743 14.8199 23.2103 15.0875 23.0763C15.3434 22.9482 15.6401 22.7385 15.946 22.5222L16.0918 22.4192C16.6299 22.039 16.7735 21.9474 16.9218 21.8998C17.0679 21.8529 17.2307 21.8447 17.8778 21.8447H18.9184C19.4115 21.8447 19.8255 21.8447 20.165 21.8175C20.5202 21.7889 20.8564 21.7271 21.1775 21.5685C21.768 21.2766 22.2324 20.779 22.4991 20.1728C22.6421 19.8478 22.6984 19.5073 22.7247 19.1397C22.75 18.785 22.75 18.3506 22.75 17.8244V17.7703C22.75 17.2441 22.75 16.8097 22.7247 16.455C22.6984 16.0874 22.6421 15.7469 22.4991 15.4219C22.2324 14.8157 21.768 14.318 21.1775 14.0262C20.8564 13.8675 20.5202 13.8057 20.165 13.7772C19.8255 13.75 19.4115 13.75 18.9184 13.75L17.9455 13.75ZM15.1313 15.6356C15.2638 15.4952 15.4581 15.3847 15.9113 15.3201C16.3907 15.2518 17.0348 15.25 18 15.25H18.8889C19.4192 15.25 19.7726 15.2506 20.045 15.2724C20.3084 15.2936 20.4322 15.3311 20.513 15.371C20.7748 15.5004 20.9954 15.7288 21.1261 16.0259C21.1705 16.1268 21.2079 16.2738 21.2285 16.5619C21.2496 16.8568 21.25 17.2374 21.25 17.7973C21.25 18.3573 21.2496 18.7379 21.2285 19.0328C21.2079 19.3209 21.1705 19.4679 21.1261 19.5688C20.9954 19.8659 20.7748 20.0943 20.513 20.2237C20.4322 20.2636 20.3084 20.3011 20.045 20.3223C19.7726 20.3441 19.4192 20.3447 18.8889 20.3447L17.7874 20.3446C17.2746 20.3442 16.8612 20.3439 16.4635 20.4715C16.068 20.5984 15.7277 20.8392 15.3013 21.141L15.1219 21.2678C14.9796 21.3684 14.8594 21.4533 14.7533 21.5256C14.7504 21.3857 14.75 21.2136 14.75 20.9985V18.7394C14.75 17.7202 14.7514 17.0269 14.8173 16.5079C14.8809 16.0062 14.9931 15.7821 15.1313 15.6356Z" fill="#FCFCFC"/>
</svg>
