<svg width="25" height="25" viewBox="0 0 25 25" fill="none" xmlns="http://www.w3.org/2000/svg">
<path d="M17.5 20.5681L7.5 20.5681C4.5 20.5681 2.5 19.0681 2.5 15.5681L2.5 8.56812C2.5 5.06812 4.5 3.56812 7.5 3.56812L17.5 3.56812C20.5 3.56812 22.5 5.06812 22.5 8.56812L22.5 15.5681C22.5 19.0681 20.5 20.5681 17.5 20.5681Z" stroke="white" stroke-opacity="0.5" stroke-width="1.5" stroke-miterlimit="10" stroke-linecap="round" stroke-linejoin="round"/>
<path d="M12.5 15.0681C14.1569 15.0681 15.5 13.725 15.5 12.0681C15.5 10.4113 14.1569 9.06812 12.5 9.06812C10.8431 9.06812 9.5 10.4113 9.5 12.0681C9.5 13.725 10.8431 15.0681 12.5 15.0681Z" stroke="white" stroke-opacity="0.5" stroke-width="1.5" stroke-miterlimit="10" stroke-linecap="round" stroke-linejoin="round"/>
<path d="M19.5 7.06812L16.5 7.06812" stroke="white" stroke-opacity="0.5" stroke-width="1.5" stroke-miterlimit="10" stroke-linecap="round" stroke-linejoin="round"/>
<path d="M8.5 17.0681H5.5" stroke="white" stroke-opacity="0.5" stroke-width="1.5" stroke-miterlimit="10" stroke-linecap="round" stroke-linejoin="round"/>
</svg>
