<svg width="21" height="21" viewBox="0 0 21 21" fill="none" xmlns="http://www.w3.org/2000/svg">
<path fill-rule="evenodd" clip-rule="evenodd" d="M10.4088 1.8161C6.68006 1.8161 3.65384 4.82939 3.65381 8.55074C3.65374 9.41633 3.59567 10.0696 3.19762 10.6568C3.14227 10.7373 3.06883 10.8381 2.98858 10.9482C2.84921 11.1395 2.6893 11.3589 2.56801 11.5489C2.35394 11.8844 2.14479 12.2889 2.07289 12.7602C1.83832 14.2979 2.91966 15.2935 3.99658 15.7396C4.7983 16.0718 5.66459 16.3337 6.56815 16.5254C7.03678 18.1748 8.58747 19.3671 10.408 19.3671C12.2284 19.3671 13.779 18.1749 14.2478 16.5258C15.152 16.334 16.0188 16.072 16.821 15.7396C17.898 15.2935 18.9793 14.2979 18.7447 12.7602C18.6728 12.2889 18.4637 11.8844 18.2496 11.549C18.1283 11.3589 17.9684 11.1395 17.829 10.9482C17.7488 10.8381 17.6754 10.7373 17.6201 10.6569C17.2219 10.0697 17.1639 9.41644 17.1638 8.55079C17.1638 4.82942 14.1376 1.8161 10.4088 1.8161ZM4.8783 8.55079C4.8783 5.5095 7.35248 3.04059 10.4088 3.04059C13.4651 3.04059 15.9393 5.50955 15.9393 8.55085C15.9394 9.43446 15.983 10.4256 16.6079 11.3461L16.6099 11.3489C16.7126 11.4984 16.8028 11.621 16.8878 11.7365C17.0011 11.8903 17.1051 12.0318 17.2174 12.2077C17.3915 12.4805 17.4995 12.7168 17.5342 12.9449C17.6469 13.6831 17.176 14.2672 16.3524 14.6084C12.8594 16.0554 7.95825 16.0554 4.46521 14.6084C3.64163 14.2672 3.17076 13.6831 3.28338 12.9449C3.31817 12.7168 3.42613 12.4805 3.6002 12.2077C3.71249 12.0318 3.81654 11.8904 3.92978 11.7365C4.01467 11.6212 4.10518 11.4982 4.20776 11.3489L4.20971 11.3461C4.83465 10.4256 4.87823 9.43441 4.8783 8.55079ZM12.8275 16.7658C11.2369 16.969 9.579 16.9689 7.9884 16.7656C8.45494 17.5809 9.35783 18.1426 10.408 18.1426C11.4581 18.1426 12.361 17.581 12.8275 16.7658Z" fill="#F8F8F8"/>
</svg>
