<svg width="40" height="30" viewBox="0 0 40 30" fill="none" xmlns="http://www.w3.org/2000/svg">
<path d="M16.8891 3.08481e-05C14.1597 0.0255732 11.551 1.1207 9.63132 3.04684C7.71163 4.97299 6.63649 7.5741 6.64009 10.2836C4.79449 10.6196 3.1237 11.5813 1.91315 13.0044C0.702605 14.4276 0.0274128 16.2238 0.00292595 18.0862C-0.0552 20.2503 0.754702 22.3487 2.25462 23.9203C3.75453 25.4918 5.82171 26.4079 8.00179 26.4671H12.4455C12.7991 26.4671 13.1382 26.3277 13.3883 26.0795C13.6383 25.8313 13.7788 25.4946 13.7788 25.1436C13.7788 24.7926 13.6383 24.4559 13.3883 24.2077C13.1382 23.9595 12.7991 23.82 12.4455 23.82H8.00179C6.56481 23.7662 5.20475 23.1617 4.20729 22.1335C3.20982 21.1053 2.65257 19.7334 2.65257 18.306C2.65257 16.8786 3.20982 15.5067 4.20729 14.4785C5.20475 13.4503 6.56481 12.8458 8.00179 12.792C8.19031 12.7829 8.37502 12.736 8.54468 12.6539C8.71434 12.5718 8.86541 12.4563 8.98871 12.3145C9.11201 12.1726 9.20496 12.0073 9.26191 11.8287C9.31886 11.6501 9.33862 11.4618 9.31999 11.2754C9.18342 10.2038 9.27649 9.11555 9.59311 8.08209C9.90972 7.04863 10.4427 6.09324 11.1572 5.2785C11.8717 4.46376 12.7516 3.80806 13.7391 3.35437C14.7267 2.90067 15.7997 2.65922 16.8878 2.64582C18.2973 2.63011 19.6829 3.00829 20.8861 3.73715C22.0894 4.46601 23.0619 5.51616 23.6924 6.76761C23.8625 7.07044 24.1416 7.29829 24.4738 7.40553C24.806 7.51278 25.1668 7.4915 25.4838 7.34597C26.1553 7.01925 26.8984 6.8645 27.6456 6.89581C28.3927 6.92712 29.1201 7.1435 29.7614 7.52524C30.5017 7.98405 31.1016 8.63483 31.4966 9.40735C31.8915 10.1799 32.0664 11.0448 32.0023 11.9087C32.0129 12.2175 32.1285 12.5137 32.3303 12.7489C32.5321 12.9841 32.8082 13.1446 33.1136 13.2041C34.3198 13.4857 35.394 14.1653 36.1603 15.1319C36.9266 16.0984 37.3397 17.2946 37.3318 18.5245C37.3318 21.4752 35.0461 23.8174 31.1099 23.8174H27.5534C27.1998 23.8174 26.8606 23.9569 26.6106 24.2051C26.3605 24.4533 26.22 24.7899 26.22 25.141C26.22 25.492 26.3605 25.8286 26.6106 26.0769C26.8606 26.3251 27.1998 26.4645 27.5534 26.4645H31.1126C36.214 26.4645 39.9999 22.9224 39.9999 18.5245C40.0118 16.8407 39.4914 15.1955 38.5119 13.8207C37.5325 12.4458 36.1432 11.4106 34.5399 10.8606C34.4415 9.72804 34.0822 8.63306 33.4897 7.66021C32.8973 6.68736 32.0876 5.86265 31.1231 5.24975C30.2707 4.75061 29.3222 4.43448 28.3391 4.32179C27.3559 4.2091 26.3599 4.30234 25.4153 4.5955C24.4956 3.18195 23.2329 2.02038 21.7432 1.21742C20.2534 0.414468 18.5843 -0.00413887 16.8891 3.08481e-05ZM19.8472 20.291C19.5474 20.3279 19.2688 20.4639 19.0563 20.677L15.4971 24.21C15.3624 24.3304 15.2538 24.4769 15.178 24.6404C15.1023 24.8039 15.0609 24.9811 15.0565 25.161C15.0521 25.3409 15.0848 25.5199 15.1524 25.6868C15.2201 25.8538 15.3214 26.0053 15.4501 26.1321C15.5788 26.2589 15.7322 26.3583 15.901 26.4242C16.0697 26.49 16.2502 26.5211 16.4314 26.5153C16.6127 26.5096 16.7908 26.4672 16.955 26.3907C17.1191 26.3142 17.2658 26.2053 17.3861 26.0707L18.6634 24.8027V28.6759C18.6634 29.0269 18.8039 29.3636 19.054 29.6118C19.304 29.86 19.6432 29.9994 19.9968 29.9994C20.3504 29.9994 20.6896 29.86 20.9396 29.6118C21.1897 29.3636 21.3302 29.0269 21.3302 28.6759V24.8027L22.6075 26.0707C22.7299 26.1978 22.8765 26.2995 23.0389 26.3697C23.2014 26.4399 23.3762 26.4773 23.5534 26.4797C23.7305 26.482 23.9063 26.4493 24.0706 26.3834C24.2348 26.3175 24.3842 26.2198 24.5099 26.0959C24.6357 25.972 24.7353 25.8245 24.8029 25.662C24.8706 25.4995 24.9049 25.3252 24.9039 25.1494C24.9029 24.9735 24.8666 24.7997 24.7971 24.6379C24.7276 24.4762 24.6263 24.3298 24.4991 24.2074L20.94 20.6744C20.7976 20.5332 20.6252 20.4252 20.4355 20.3585C20.2458 20.2917 20.0434 20.2677 19.8432 20.2884L19.8472 20.291Z" fill="url(#paint0_linear_2328_34464)"/>
<defs>
<linearGradient id="paint0_linear_2328_34464" x1="0.000573371" y1="14.9984" x2="39.9998" y2="14.9984" gradientUnits="userSpaceOnUse">
<stop stop-color="#E21876"/>
<stop offset="1" stop-color="#313482"/>
</linearGradient>
</defs>
</svg>
