<svg width="24" height="25" viewBox="0 0 24 25" fill="none" xmlns="http://www.w3.org/2000/svg">
<path d="M18 11.4935C17.59 11.4935 17.25 11.1535 17.25 10.7435V8.74353C17.25 5.59353 16.36 3.49353 12 3.49353C7.64 3.49353 6.75 5.59353 6.75 8.74353V10.7435C6.75 11.1535 6.41 11.4935 6 11.4935C5.59 11.4935 5.25 11.1535 5.25 10.7435V8.74353C5.25 5.84353 5.95 1.99353 12 1.99353C18.05 1.99353 18.75 5.84353 18.75 8.74353V10.7435C18.75 11.1535 18.41 11.4935 18 11.4935Z" fill="#929292"/>
<path d="M12 19.9935C10.21 19.9935 8.75 18.5335 8.75 16.7435C8.75 14.9535 10.21 13.4935 12 13.4935C13.79 13.4935 15.25 14.9535 15.25 16.7435C15.25 18.5335 13.79 19.9935 12 19.9935ZM12 14.9935C11.04 14.9935 10.25 15.7835 10.25 16.7435C10.25 17.7035 11.04 18.4935 12 18.4935C12.96 18.4935 13.75 17.7035 13.75 16.7435C13.75 15.7835 12.96 14.9935 12 14.9935Z" fill="#929292"/>
<path d="M17 23.4935H7C2.59 23.4935 1.25 22.1535 1.25 17.7435V15.7435C1.25 11.3335 2.59 9.99353 7 9.99353H17C21.41 9.99353 22.75 11.3335 22.75 15.7435V17.7435C22.75 22.1535 21.41 23.4935 17 23.4935ZM7 11.4935C3.42 11.4935 2.75 12.1735 2.75 15.7435V17.7435C2.75 21.3135 3.42 21.9935 7 21.9935H17C20.58 21.9935 21.25 21.3135 21.25 17.7435V15.7435C21.25 12.1735 20.58 11.4935 17 11.4935H7Z" fill="#929292"/>
</svg>
