<svg width="24" height="25" viewBox="0 0 24 25" fill="none" xmlns="http://www.w3.org/2000/svg">
<path d="M15 23.4935H9C4.59 23.4935 3.25 22.1535 3.25 17.7435V7.74353C3.25 3.33353 4.59 1.99353 9 1.99353H15C19.41 1.99353 20.75 3.33353 20.75 7.74353V17.7435C20.75 22.1535 19.41 23.4935 15 23.4935ZM9 3.49353C5.42 3.49353 4.75 4.17353 4.75 7.74353V17.7435C4.75 21.3135 5.42 21.9935 9 21.9935H15C18.58 21.9935 19.25 21.3135 19.25 17.7435V7.74353C19.25 4.17353 18.58 3.49353 15 3.49353H9Z" fill="#929292"/>
<path d="M14 6.99353H10C9.59 6.99353 9.25 6.65353 9.25 6.24353C9.25 5.83353 9.59 5.49353 10 5.49353H14C14.41 5.49353 14.75 5.83353 14.75 6.24353C14.75 6.65353 14.41 6.99353 14 6.99353Z" fill="#929292"/>
<path d="M12 20.6035C10.73 20.6035 9.69995 19.5735 9.69995 18.3035C9.69995 17.0335 10.73 16.0035 12 16.0035C13.27 16.0035 14.3 17.0335 14.3 18.3035C14.3 19.5735 13.27 20.6035 12 20.6035ZM12 17.4935C11.56 17.4935 11.2 17.8535 11.2 18.2935C11.2 18.7335 11.56 19.0935 12 19.0935C12.44 19.0935 12.8 18.7335 12.8 18.2935C12.8 17.8535 12.44 17.4935 12 17.4935Z" fill="#929292"/>
</svg>
