<svg width="24" height="25" viewBox="0 0 24 25" fill="none" xmlns="http://www.w3.org/2000/svg">
<path d="M17 21.9454H7C3.35 21.9454 1.25 19.8454 1.25 16.1954V9.19543C1.25 5.54543 3.35 3.44543 7 3.44543H17C20.65 3.44543 22.75 5.54543 22.75 9.19543V16.1954C22.75 19.8454 20.65 21.9454 17 21.9454ZM7 4.94543C4.14 4.94543 2.75 6.33543 2.75 9.19543V16.1954C2.75 19.0554 4.14 20.4454 7 20.4454H17C19.86 20.4454 21.25 19.0554 21.25 16.1954V9.19543C21.25 6.33543 19.86 4.94543 17 4.94543H7Z" fill="#929292"/>
<path d="M11.9998 13.5654C11.1598 13.5654 10.3098 13.3054 9.65978 12.7754L6.52978 10.2754C6.20978 10.0154 6.14978 9.5454 6.40978 9.2254C6.66978 8.9054 7.13978 8.84541 7.45978 9.10541L10.5898 11.6054C11.3498 12.2154 12.6398 12.2154 13.3998 11.6054L16.5298 9.10541C16.8498 8.84541 17.3298 8.8954 17.5798 9.2254C17.8398 9.5454 17.7898 10.0254 17.4598 10.2754L14.3298 12.7754C13.6898 13.3054 12.8398 13.5654 11.9998 13.5654Z" fill="#929292"/>
</svg>
