<svg width="24" height="25" viewBox="0 0 24 25" fill="none" xmlns="http://www.w3.org/2000/svg">
<path d="M12 13.4454C8.83 13.4454 6.25 10.8654 6.25 7.69543C6.25 4.52543 8.83 1.94543 12 1.94543C15.17 1.94543 17.75 4.52543 17.75 7.69543C17.75 10.8654 15.17 13.4454 12 13.4454ZM12 3.44543C9.66 3.44543 7.75 5.35543 7.75 7.69543C7.75 10.0354 9.66 11.9454 12 11.9454C14.34 11.9454 16.25 10.0354 16.25 7.69543C16.25 5.35543 14.34 3.44543 12 3.44543Z" fill="#929292"/>
<path d="M20.5901 23.4454C20.1801 23.4454 19.8401 23.1054 19.8401 22.6954C19.8401 19.2454 16.3202 16.4454 12.0002 16.4454C7.68015 16.4454 4.16016 19.2454 4.16016 22.6954C4.16016 23.1054 3.82016 23.4454 3.41016 23.4454C3.00016 23.4454 2.66016 23.1054 2.66016 22.6954C2.66016 18.4254 6.85015 14.9454 12.0002 14.9454C17.1502 14.9454 21.3401 18.4254 21.3401 22.6954C21.3401 23.1054 21.0001 23.4454 20.5901 23.4454Z" fill="#929292"/>
</svg>
