<svg width="22" height="22" viewBox="0 0 22 22" fill="none" xmlns="http://www.w3.org/2000/svg">
<path d="M2.90625 6.82031L11.0004 11.5045L19.0396 6.84778" stroke="#212121" stroke-width="1.5" stroke-linecap="round" stroke-linejoin="round"/>
<path d="M11 19.8103V11.4961" stroke="#212121" stroke-width="1.5" stroke-linecap="round" stroke-linejoin="round"/>
<path d="M9.10305 2.27203L4.20806 4.99456C3.09889 5.60873 2.19141 7.14871 2.19141 8.41371V13.5929C2.19141 14.8579 3.09889 16.3979 4.20806 17.012L9.10305 19.7346C10.1481 20.3121 11.8622 20.3121 12.9072 19.7346L17.8022 17.012C18.9114 16.3979 19.8189 14.8579 19.8189 13.5929V8.41371C19.8189 7.14871 18.9114 5.60873 17.8022 4.99456L12.9072 2.27203C11.853 1.68536 10.1481 1.68536 9.10305 2.27203Z" stroke="#212121" stroke-width="1.5" stroke-linecap="round" stroke-linejoin="round"/>
<path d="M15.582 12.1362V8.78118L6.88281 3.75781" stroke="#212121" stroke-width="1.5" stroke-linecap="round" stroke-linejoin="round"/>
</svg>
