<svg width="33" height="32" viewBox="0 0 33 32" fill="none" xmlns="http://www.w3.org/2000/svg">
<path d="M11.2393 2.66663V6.66663" stroke="#F8F8F8" stroke-width="1.5" stroke-miterlimit="10" stroke-linecap="round" stroke-linejoin="round"/>
<path d="M21.9062 2.66663V6.66663" stroke="#F8F8F8" stroke-width="1.5" stroke-miterlimit="10" stroke-linecap="round" stroke-linejoin="round"/>
<path d="M5.23926 12.12H27.9059" stroke="#F8F8F8" stroke-width="1.5" stroke-miterlimit="10" stroke-linecap="round" stroke-linejoin="round"/>
<path d="M29.9059 25.3333C29.9059 26.3333 29.6259 27.28 29.1326 28.08C28.2126 29.6267 26.5193 30.6667 24.5726 30.6667C23.2259 30.6667 21.9993 30.1733 21.0659 29.3333C20.6526 28.9867 20.2926 28.56 20.0126 28.08C19.5193 27.28 19.2393 26.3333 19.2393 25.3333C19.2393 22.3867 21.6259 20 24.5726 20C26.1726 20 27.5993 20.7066 28.5726 21.8133C29.3993 22.76 29.9059 23.9867 29.9059 25.3333Z" stroke="#F8F8F8" stroke-width="1.5" stroke-miterlimit="10" stroke-linecap="round" stroke-linejoin="round"/>
<path d="M22.4927 25.3333L23.8127 26.6533L26.6527 24.0266" stroke="#F8F8F8" stroke-width="1.5" stroke-linecap="round" stroke-linejoin="round"/>
<path d="M28.5728 11.3333V21.8133C27.5994 20.7066 26.1728 20 24.5728 20C21.6261 20 19.2394 22.3866 19.2394 25.3333C19.2394 26.3333 19.5194 27.28 20.0128 28.08C20.2928 28.56 20.6528 28.9866 21.0661 29.3333H11.2394C6.57275 29.3333 4.57275 26.6666 4.57275 22.6666V11.3333C4.57275 7.33329 6.57275 4.66663 11.2394 4.66663H21.9061C26.5728 4.66663 28.5728 7.33329 28.5728 11.3333Z" stroke="#F8F8F8" stroke-width="1.5" stroke-miterlimit="10" stroke-linecap="round" stroke-linejoin="round"/>
<path d="M16.5666 18.2666H16.5785" stroke="#F8F8F8" stroke-width="2" stroke-linecap="round" stroke-linejoin="round"/>
<path d="M11.632 18.2666H11.644" stroke="#F8F8F8" stroke-width="2" stroke-linecap="round" stroke-linejoin="round"/>
<path d="M11.632 22.2666H11.644" stroke="#F8F8F8" stroke-width="2" stroke-linecap="round" stroke-linejoin="round"/>
</svg>
