<svg width="22" height="22" viewBox="0 0 22 22" fill="none" xmlns="http://www.w3.org/2000/svg">
<path d="M17.4154 9.85287H15.582C13.3637 9.85287 12.1445 8.6337 12.1445 6.41537V4.58203C12.1445 2.3637 13.3637 1.14453 15.582 1.14453H17.4154C19.6337 1.14453 20.8529 2.3637 20.8529 4.58203V6.41537C20.8529 8.6337 19.6337 9.85287 17.4154 9.85287ZM15.582 2.51953C14.1337 2.51953 13.5195 3.1337 13.5195 4.58203V6.41537C13.5195 7.8637 14.1337 8.47787 15.582 8.47787H17.4154C18.8637 8.47787 19.4779 7.8637 19.4779 6.41537V4.58203C19.4779 3.1337 18.8637 2.51953 17.4154 2.51953H15.582Z" fill="#212121"/>
<path d="M6.41537 20.8529H4.58203C2.3637 20.8529 1.14453 19.6337 1.14453 17.4154V15.582C1.14453 13.3637 2.3637 12.1445 4.58203 12.1445H6.41537C8.6337 12.1445 9.85287 13.3637 9.85287 15.582V17.4154C9.85287 19.6337 8.6337 20.8529 6.41537 20.8529ZM4.58203 13.5195C3.1337 13.5195 2.51953 14.1337 2.51953 15.582V17.4154C2.51953 18.8637 3.1337 19.4779 4.58203 19.4779H6.41537C7.8637 19.4779 8.47787 18.8637 8.47787 17.4154V15.582C8.47787 14.1337 7.8637 13.5195 6.41537 13.5195H4.58203Z" fill="#212121"/>
<path d="M5.4987 9.85287C3.09703 9.85287 1.14453 7.90036 1.14453 5.4987C1.14453 3.09703 3.09703 1.14453 5.4987 1.14453C7.90036 1.14453 9.85287 3.09703 9.85287 5.4987C9.85287 7.90036 7.90036 9.85287 5.4987 9.85287ZM5.4987 2.51953C3.85786 2.51953 2.51953 3.85786 2.51953 5.4987C2.51953 7.13953 3.85786 8.47787 5.4987 8.47787C7.13953 8.47787 8.47787 7.13953 8.47787 5.4987C8.47787 3.85786 7.13953 2.51953 5.4987 2.51953Z" fill="#212121"/>
<path d="M16.4987 20.8529C14.097 20.8529 12.1445 18.9004 12.1445 16.4987C12.1445 14.097 14.097 12.1445 16.4987 12.1445C18.9004 12.1445 20.8529 14.097 20.8529 16.4987C20.8529 18.9004 18.9004 20.8529 16.4987 20.8529ZM16.4987 13.5195C14.8579 13.5195 13.5195 14.8579 13.5195 16.4987C13.5195 18.1395 14.8579 19.4779 16.4987 19.4779C18.1395 19.4779 19.4779 18.1395 19.4779 16.4987C19.4779 14.8579 18.1395 13.5195 16.4987 13.5195Z" fill="#212121"/>
</svg>
