<svg width="33" height="32" viewBox="0 0 33 32" fill="none" xmlns="http://www.w3.org/2000/svg">
<path d="M23.2393 27.3333H9.90592C5.90592 27.3333 3.23926 25.3333 3.23926 20.6666V11.3333C3.23926 6.66663 5.90592 4.66663 9.90592 4.66663H23.2393C27.2393 4.66663 29.9059 6.66663 29.9059 11.3333V20.6666C29.9059 25.3333 27.2393 27.3333 23.2393 27.3333Z" stroke="#F8F8F8" stroke-width="1.5" stroke-miterlimit="10" stroke-linecap="round" stroke-linejoin="round"/>
<path d="M16.5728 20C18.7819 20 20.5728 18.2091 20.5728 16C20.5728 13.7909 18.7819 12 16.5728 12C14.3636 12 12.5728 13.7909 12.5728 16C12.5728 18.2091 14.3636 20 16.5728 20Z" stroke="#F8F8F8" stroke-width="1.5" stroke-miterlimit="10" stroke-linecap="round" stroke-linejoin="round"/>
<path d="M25.9063 9.33337H21.9062" stroke="#F8F8F8" stroke-width="1.5" stroke-miterlimit="10" stroke-linecap="round" stroke-linejoin="round"/>
<path d="M11.2393 22.6666H7.23926" stroke="#F8F8F8" stroke-width="1.5" stroke-miterlimit="10" stroke-linecap="round" stroke-linejoin="round"/>
</svg>
