<svg width="22" height="22" viewBox="0 0 22 22" fill="none" xmlns="http://www.w3.org/2000/svg">
<path d="M9.93536 12.4132H8.56036C7.5062 12.4132 6.6537 11.5332 6.6537 10.4424C6.6537 10.0666 6.96536 9.7549 7.3412 9.7549C7.71703 9.7549 8.0287 10.0666 8.0287 10.4424C8.0287 10.7724 8.26703 11.0382 8.56036 11.0382H9.93536C10.1462 11.0382 10.3112 10.8457 10.3112 10.6074C10.3112 10.2866 10.2562 10.2682 10.0454 10.1949L7.8362 9.4249C7.0387 9.1499 6.64453 8.59073 6.64453 7.7199C6.64453 6.7299 7.43286 5.91406 8.39536 5.91406H9.77036C10.8245 5.91406 11.677 6.79406 11.677 7.8849C11.677 8.26073 11.3654 8.5724 10.9895 8.5724C10.6137 8.5724 10.302 8.26073 10.302 7.8849C10.302 7.5549 10.0637 7.28906 9.77036 7.28906H8.39536C8.18453 7.28906 8.01953 7.48156 8.01953 7.7199C8.01953 8.04073 8.07453 8.05906 8.28536 8.1324L10.4945 8.9024C11.292 9.18656 11.677 9.74573 11.677 10.6074C11.6862 11.6066 10.8979 12.4132 9.93536 12.4132Z" fill="#212121"/>
<path d="M9.16797 13.1432C8.79214 13.1432 8.48047 12.8315 8.48047 12.4557V11.7773C8.48047 11.4015 8.79214 11.0898 9.16797 11.0898C9.5438 11.0898 9.85547 11.4015 9.85547 11.7773V12.4557C9.85547 12.8407 9.5438 13.1432 9.16797 13.1432Z" fill="#212121"/>
<path d="M9.16797 7.2775C8.79214 7.2775 8.48047 6.96583 8.48047 6.59V5.875C8.48047 5.49917 8.79214 5.1875 9.16797 5.1875C9.5438 5.1875 9.85547 5.49917 9.85547 5.875V6.59C9.85547 6.96583 9.5438 7.2775 9.16797 7.2775Z" fill="#212121"/>
<path d="M9.1562 17.1601C4.73786 17.1601 1.14453 13.5667 1.14453 9.14839C1.14453 4.73005 4.73786 1.13672 9.1562 1.13672C13.5745 1.13672 17.1679 4.73005 17.1679 9.14839C17.1679 13.5667 13.5654 17.1601 9.1562 17.1601ZM9.1562 2.52089C5.4987 2.52089 2.51953 5.50005 2.51953 9.15755C2.51953 12.8151 5.4987 15.7851 9.1562 15.7851C12.8137 15.7851 15.7929 12.8059 15.7929 9.14839C15.7929 5.49088 12.8137 2.52089 9.1562 2.52089Z" fill="#212121"/>
<path d="M15.6016 20.8284C13.9058 20.8284 12.3108 20.0034 11.3299 18.6101C11.1099 18.2984 11.1833 17.8676 11.4949 17.6476C11.8066 17.4276 12.2374 17.5009 12.4574 17.8126C13.1816 18.8392 14.3549 19.4442 15.6016 19.4442C17.7283 19.4442 19.4516 17.7209 19.4516 15.5942C19.4516 14.3567 18.8466 13.1834 17.8383 12.4592C17.5266 12.2392 17.4624 11.8084 17.6824 11.4967C17.9024 11.1851 18.3333 11.1209 18.6449 11.3409C20.0108 12.3217 20.8266 13.9076 20.8266 15.5942C20.8266 18.4909 18.4891 20.8284 15.6016 20.8284Z" fill="#212121"/>
</svg>
