<svg width="33" height="32" viewBox="0 0 33 32" fill="none" xmlns="http://www.w3.org/2000/svg">
<path d="M20.5726 30.3333H12.5726C5.33259 30.3333 2.23926 27.24 2.23926 20V12C2.23926 4.75996 5.33259 1.66663 12.5726 1.66663H19.2393C19.7859 1.66663 20.2393 2.11996 20.2393 2.66663C20.2393 3.21329 19.7859 3.66663 19.2393 3.66663H12.5726C6.42592 3.66663 4.23926 5.85329 4.23926 12V20C4.23926 26.1466 6.42592 28.3333 12.5726 28.3333H20.5726C26.7193 28.3333 28.9059 26.1466 28.9059 20V13.3333C28.9059 12.7866 29.3593 12.3333 29.9059 12.3333C30.4526 12.3333 30.9059 12.7866 30.9059 13.3333V20C30.9059 27.24 27.8126 30.3333 20.5726 30.3333Z" fill="#F8F8F8"/>
<path d="M19.0498 2.20667C19.2242 2.13196 19.4401 2.16805 19.6006 2.32092L30.2588 12.9801C30.3983 13.1196 30.4434 13.3429 30.3662 13.5231C30.2834 13.7161 30.1021 13.8335 29.9062 13.8336H24.5723C22.3385 13.8336 20.922 13.3952 20.0498 12.5231C19.1776 11.6508 18.7393 10.2337 18.7393 7.99963V2.66663C18.7393 2.46 18.8643 2.27869 19.0352 2.21155L19.043 2.20959L19.0498 2.20667ZM19.7393 7.99963C19.7393 9.71997 19.9516 10.9991 20.7627 11.8102C21.5738 12.6211 22.8522 12.8336 24.5723 12.8336H28.6992L27.8457 11.9801L20.5928 4.7262L19.7393 3.87268V7.99963Z" fill="#292D32" stroke="#F8F8F8"/>
<path d="M9.90625 16.8334H17.9062C18.1768 16.8334 18.4062 17.0628 18.4062 17.3334C18.4062 17.6039 18.1768 17.8334 17.9062 17.8334H9.90625C9.63573 17.8334 9.40625 17.6039 9.40625 17.3334C9.40625 17.0628 9.63573 16.8334 9.90625 16.8334Z" fill="#292D32" stroke="#F8F8F8"/>
<path d="M9.90625 22.1666H15.2393C15.5098 22.1666 15.7393 22.3961 15.7393 22.6666C15.7393 22.9372 15.5098 23.1666 15.2393 23.1666H9.90625C9.63573 23.1666 9.40625 22.9372 9.40625 22.6666C9.40625 22.3961 9.63573 22.1666 9.90625 22.1666Z" fill="#292D32" stroke="#F8F8F8"/>
</svg>
