<svg width="32" height="32" viewBox="0 0 32 32" fill="none" xmlns="http://www.w3.org/2000/svg">
<path d="M23.7198 30.3333H8.27984C4.6265 30.3333 1.6665 27.36 1.6665 23.7067V13.8267C1.6665 12.0133 2.7865 9.73332 4.2265 8.61332L11.4132 3.01332C13.5732 1.33332 17.0265 1.25332 19.2665 2.82665L27.5065 8.59999C29.0932 9.70665 30.3332 12.08 30.3332 14.0133V23.72C30.3332 27.36 27.3732 30.3333 23.7198 30.3333ZM12.6398 4.58665L5.45317 10.1867C4.5065 10.9333 3.6665 12.6267 3.6665 13.8267V23.7067C3.6665 26.2533 5.73317 28.3333 8.27984 28.3333H23.7198C26.2665 28.3333 28.3332 26.2667 28.3332 23.72V14.0133C28.3332 12.7333 27.4132 10.96 26.3598 10.24L18.1198 4.46665C16.5998 3.39999 14.0932 3.45332 12.6398 4.58665Z" fill="#F8F8F8"/>
<path d="M16 19.5C16.2705 19.5 16.5 19.7295 16.5 20V24C16.5 24.2705 16.2705 24.5 16 24.5C15.7295 24.5 15.5 24.2705 15.5 24V20C15.5 19.7295 15.7295 19.5 16 19.5Z" fill="#292D32" stroke="#F8F8F8"/>
</svg>
