<svg width="24" height="24" viewBox="0 0 24 24" fill="none" xmlns="http://www.w3.org/2000/svg">
<path d="M10.2496 3.70696C10.6402 3.5691 10.8451 3.1407 10.7072 2.7501C10.5694 2.3595 10.141 2.15461 9.75039 2.29247L9.04548 2.54126C7.79202 2.98365 6.79178 3.33666 6.01712 3.7125C5.21659 4.10088 4.58919 4.54418 4.12239 5.20395C3.65559 5.86373 3.44637 6.6029 3.34656 7.48705C3.24998 8.34264 3.24999 9.40333 3.25 10.7326L3.25 13.2669C3.24999 14.5961 3.24998 15.6568 3.34656 16.5124C3.44637 17.3965 3.65559 18.1357 4.12239 18.7955C4.58919 19.4553 5.21659 19.8986 6.01712 20.2869C6.79179 20.6628 7.79203 21.0158 9.04552 21.4582L9.75039 21.707C10.141 21.8448 10.5694 21.6399 10.7072 21.2493C10.8451 20.8587 10.6402 20.4303 10.2496 20.2925L9.58706 20.0586C8.2816 19.5979 7.36155 19.272 6.67187 18.9374C5.99935 18.6111 5.61474 18.3077 5.3469 17.9291C5.07906 17.5506 4.92095 17.0869 4.8371 16.3441C4.75111 15.5824 4.75 14.6063 4.75 13.2219L4.75 10.7775C4.75 9.3931 4.75111 8.41704 4.8371 7.65532C4.92095 6.91254 5.07906 6.44888 5.3469 6.07031C5.61474 5.69175 5.99935 5.38834 6.67187 5.06206C7.36155 4.72745 8.2816 4.40155 9.58706 3.9408L10.2496 3.70696Z" fill="#EC2D30"/>
<path d="M18.0227 8.96195C17.7257 8.67324 17.2509 8.67999 16.9622 8.97701C16.6735 9.27404 16.6802 9.74887 16.9773 10.0376C17.1388 10.1946 17.396 10.3969 17.6407 10.5891L17.6976 10.6338C17.9434 10.8267 18.2061 11.033 18.4548 11.2437L18.4619 11.2498L10 11.2498C9.58579 11.2498 9.25 11.5855 9.25 11.9998C9.25 12.414 9.58579 12.7498 10 12.7498L18.4619 12.7498L18.4548 12.7558C18.2062 12.9665 17.9434 13.1728 17.6977 13.3657L17.6407 13.4104C17.396 13.6027 17.1388 13.8049 16.9773 13.9619C16.6802 14.2506 16.6735 14.7255 16.9622 15.0225C17.2509 15.3195 17.7257 15.3263 18.0227 15.0376C18.114 14.9489 18.2958 14.8032 18.5672 14.59L18.6272 14.543C18.8693 14.3529 19.1534 14.1299 19.4245 13.9002C19.715 13.654 20.0168 13.3784 20.2515 13.103C20.369 12.9649 20.485 12.8093 20.5746 12.6419C20.661 12.4805 20.75 12.258 20.75 11.9998C20.75 11.7415 20.661 11.519 20.5746 11.3576C20.485 11.1902 20.369 11.0346 20.2515 10.8965C20.0168 10.6211 19.715 10.3455 19.4245 10.0993C19.1534 9.86956 18.8693 9.6466 18.6272 9.45653L18.5672 9.40946C18.2958 9.19627 18.114 9.05065 18.0227 8.96195Z" fill="#EC2D30"/>
</svg>
