<svg width="22" height="22" viewBox="0 0 22 22" fill="none" xmlns="http://www.w3.org/2000/svg">
<path d="M13.9698 20.4143H13.8506C9.78064 20.4143 7.81898 18.8101 7.47981 15.2168C7.44314 14.8409 7.71814 14.5018 8.10314 14.4651C8.46981 14.4284 8.81814 14.7126 8.85481 15.0884C9.12064 17.9668 10.4773 19.0393 13.8598 19.0393H13.979C17.7098 19.0393 19.0298 17.7193 19.0298 13.9884V8.01177C19.0298 4.28094 17.7098 2.96094 13.979 2.96094H13.8598C10.459 2.96094 9.10231 4.05177 8.85481 6.9851C8.80898 7.36094 8.48814 7.6451 8.10314 7.60844C7.71814 7.58094 7.44314 7.24177 7.47064 6.86594C7.78231 3.2176 9.75314 1.58594 13.8506 1.58594H13.9698C18.4706 1.58594 20.3956 3.51094 20.3956 8.01177V13.9884C20.3956 18.4893 18.4706 20.4143 13.9698 20.4143Z" fill="#ED1C24"/>
<path d="M13.7481 11.6875H3.31641C2.94057 11.6875 2.62891 11.3758 2.62891 11C2.62891 10.6242 2.94057 10.3125 3.31641 10.3125H13.7481C14.1239 10.3125 14.4356 10.6242 14.4356 11C14.4356 11.3758 14.1239 11.6875 13.7481 11.6875Z" fill="#ED1C24"/>
<path d="M5.36151 14.7566C5.18734 14.7566 5.01318 14.6924 4.87568 14.5549L1.80484 11.4841C1.53901 11.2182 1.53901 10.7782 1.80484 10.5124L4.87568 7.44156C5.14151 7.17573 5.58151 7.17573 5.84734 7.44156C6.11318 7.7074 6.11318 8.1474 5.84734 8.41323L3.26234 10.9982L5.84734 13.5832C6.11318 13.8491 6.11318 14.2891 5.84734 14.5549C5.71901 14.6924 5.53568 14.7566 5.36151 14.7566Z" fill="#ED1C24"/>
</svg>
