<svg width="33" height="32" viewBox="0 0 33 32" fill="none" xmlns="http://www.w3.org/2000/svg">
<path d="M29.8126 9.01331L25.3193 27.0533C24.9993 28.4 23.7993 29.3333 22.4126 29.3333H4.8926C2.87927 29.3333 1.43929 27.3599 2.03929 25.4266L7.65261 7.40002C8.03928 6.14669 9.1993 5.27991 10.506 5.27991H26.9059C28.1726 5.27991 29.226 6.05325 29.666 7.11991C29.9193 7.69325 29.9726 8.34664 29.8126 9.01331Z" stroke="#F8F8F8" stroke-width="1.5" stroke-miterlimit="10"/>
<path d="M21.9062 29.3333H28.2796C29.9996 29.3333 31.3462 27.88 31.2262 26.16L29.9062 8" stroke="#F8F8F8" stroke-width="1.5" stroke-miterlimit="10" stroke-linecap="round" stroke-linejoin="round"/>
<path d="M13.4795 8.50663L14.8662 2.7467" stroke="#F8F8F8" stroke-width="1.5" stroke-miterlimit="10" stroke-linecap="round" stroke-linejoin="round"/>
<path d="M22.4126 8.52002L23.6659 2.7334" stroke="#F8F8F8" stroke-width="1.5" stroke-miterlimit="10" stroke-linecap="round" stroke-linejoin="round"/>
<path d="M10.8394 16H21.506" stroke="#F8F8F8" stroke-width="1.5" stroke-miterlimit="10" stroke-linecap="round" stroke-linejoin="round"/>
<path d="M9.50586 21.3334H20.1725" stroke="#F8F8F8" stroke-width="1.5" stroke-miterlimit="10" stroke-linecap="round" stroke-linejoin="round"/>
</svg>
