<svg width="22" height="22" viewBox="0 0 22 22" fill="none" xmlns="http://www.w3.org/2000/svg">
<path d="M7.79036 17.4154H7.33203C3.66536 17.4154 1.83203 16.4987 1.83203 11.9154V7.33203C1.83203 3.66536 3.66536 1.83203 7.33203 1.83203H14.6654C18.332 1.83203 20.1654 3.66536 20.1654 7.33203V11.9154C20.1654 15.582 18.332 17.4154 14.6654 17.4154H14.207C13.9229 17.4154 13.6479 17.5529 13.4737 17.782L12.0987 19.6154C11.4937 20.422 10.5037 20.422 9.8987 19.6154L8.5237 17.782C8.37703 17.5804 8.03786 17.4154 7.79036 17.4154Z" stroke="#212121" stroke-width="1.5" stroke-miterlimit="10" stroke-linecap="round" stroke-linejoin="round"/>
<path d="M14.6642 10.0833H14.6725" stroke="#212121" stroke-width="1.5" stroke-linecap="round" stroke-linejoin="round"/>
<path d="M10.9963 10.0833H11.0045" stroke="#212121" stroke-width="1.5" stroke-linecap="round" stroke-linejoin="round"/>
<path d="M7.3283 10.0833H7.33653" stroke="#212121" stroke-width="1.5" stroke-linecap="round" stroke-linejoin="round"/>
</svg>
