<svg width="22" height="22" viewBox="0 0 22 22" fill="none" xmlns="http://www.w3.org/2000/svg">
<path d="M6.65369 17.3171C6.58036 17.3171 6.50704 17.3079 6.4337 17.2987C5.8837 17.2254 5.4162 16.8771 5.18704 16.3821L4.03203 13.8429C2.19869 12.4862 1.14453 10.4604 1.14453 8.26042C1.14453 4.34625 4.5362 1.15625 8.70703 1.15625C11.6495 1.15625 14.3354 2.76957 15.5545 5.27207C16.022 6.19791 16.2695 7.20625 16.2695 8.26042C16.2695 12.0738 13.052 15.1996 9.03703 15.3554L7.88204 16.7488C7.57037 17.1063 7.12119 17.3171 6.65369 17.3171ZM8.70703 2.52207C5.29703 2.52207 2.51953 5.08874 2.51953 8.25124C2.51953 10.0571 3.41786 11.7254 4.97619 12.8254C5.07702 12.8987 5.15952 12.9904 5.20536 13.1004L6.4337 15.8046C6.47954 15.9054 6.5712 15.9329 6.61703 15.9329C6.66287 15.9421 6.75453 15.9329 6.8187 15.8596L8.17536 14.2279C8.3037 14.0721 8.4962 13.9804 8.70703 13.9804C12.117 13.9804 14.8945 11.4137 14.8945 8.25124C14.8945 7.41707 14.702 6.61955 14.3262 5.87705C13.3362 3.83288 11.127 2.52207 8.70703 2.52207Z" fill="#212121"/>
<path d="M15.3438 20.8524C14.8671 20.8524 14.4271 20.6416 14.1154 20.2749L12.9604 18.8907C10.7421 18.799 8.6521 17.7815 7.31377 16.1315C7.10293 15.8749 7.11211 15.5083 7.32294 15.2607L8.17544 14.2341C8.30377 14.0783 8.49627 13.9866 8.70711 13.9866C12.1171 13.9866 14.8946 11.4199 14.8946 8.2574C14.8946 7.42324 14.7021 6.62571 14.3263 5.88321C14.2071 5.64488 14.2346 5.36072 14.3996 5.14989C14.5646 4.93906 14.8396 4.84737 15.0963 4.90237C18.4879 5.68154 20.8529 8.51406 20.8529 11.7957C20.8529 13.9957 19.7988 16.0216 17.9654 17.3782L16.8104 19.9174C16.5721 20.4307 16.1046 20.7791 15.5454 20.8432C15.4813 20.8524 15.4079 20.8524 15.3438 20.8524ZM8.7621 15.6732C9.90794 16.8374 11.5579 17.5157 13.2904 17.5157C13.4921 17.5157 13.6846 17.6074 13.8221 17.7632L15.1788 19.3949C15.2429 19.4774 15.3254 19.4866 15.3804 19.4774C15.4171 19.4774 15.5179 19.4499 15.5729 19.3399L16.8013 16.6357C16.8563 16.5258 16.9296 16.4249 17.0304 16.3607C18.5888 15.2607 19.4871 13.5924 19.4871 11.7865C19.4871 9.58655 18.1396 7.63409 16.0863 6.67159C16.2146 7.18492 16.2788 7.70739 16.2788 8.24823C16.2788 12.0616 13.0613 15.1874 9.04627 15.3432L8.7621 15.6732Z" fill="#212121"/>
<path d="M11.0013 8.9375H6.41797C6.04214 8.9375 5.73047 8.62583 5.73047 8.25C5.73047 7.87417 6.04214 7.5625 6.41797 7.5625H11.0013C11.3771 7.5625 11.6888 7.87417 11.6888 8.25C11.6888 8.62583 11.3771 8.9375 11.0013 8.9375Z" fill="#212121"/>
</svg>
