<svg width="33" height="32" viewBox="0 0 33 32" fill="none" xmlns="http://www.w3.org/2000/svg">
<path d="M16.5726 19.3333C18.4135 19.3333 19.9059 17.8409 19.9059 16C19.9059 14.159 18.4135 12.6666 16.5726 12.6666C14.7316 12.6666 13.2393 14.159 13.2393 16C13.2393 17.8409 14.7316 19.3333 16.5726 19.3333Z" fill="#F8F8F8"/>
<path d="M25.2393 12.6666V19.3333" stroke="#F8F8F8" stroke-width="1.5" stroke-miterlimit="10" stroke-linecap="round" stroke-linejoin="round"/>
<path d="M7.23958 29.3333C10.1851 29.3333 12.5729 26.9455 12.5729 24C12.5729 21.0544 10.1851 18.6666 7.23958 18.6666C4.29406 18.6666 1.90625 21.0544 1.90625 24C1.90625 26.9455 4.29406 29.3333 7.23958 29.3333Z" stroke="#F8F8F8" stroke-width="1.5" stroke-miterlimit="10" stroke-linecap="round" stroke-linejoin="round"/>
<path d="M7.57292 22.3333V23.5732C7.57292 24.0399 7.33293 24.4799 6.9196 24.7199L5.90625 25.3333" stroke="#F8F8F8" stroke-width="1.5" stroke-miterlimit="10" stroke-linecap="round" stroke-linejoin="round"/>
<path d="M3.23926 20.2667V12C3.23926 7.33337 5.90592 5.33337 9.90592 5.33337H23.2393C27.2393 5.33337 29.9059 7.33337 29.9059 12V20C29.9059 24.6667 27.2393 26.6667 23.2393 26.6667H11.9059" stroke="#F8F8F8" stroke-width="1.5" stroke-miterlimit="10" stroke-linecap="round" stroke-linejoin="round"/>
</svg>
