<svg width="22" height="22" viewBox="0 0 22 22" fill="none" xmlns="http://www.w3.org/2000/svg">
<path d="M13.6494 16.7029H5.59192C5.11526 16.7029 4.66608 16.6571 4.26274 16.5654C4.05191 16.5379 3.79526 16.4646 3.52942 16.3637C2.31025 15.9054 0.871094 14.7779 0.871094 11.9729V7.25205C0.871094 4.25455 2.59442 2.53125 5.59192 2.53125H13.6494C16.1794 2.53125 17.8111 3.74122 18.2511 5.94122C18.3336 6.34456 18.3703 6.77538 18.3703 7.25205V11.9729C18.3703 14.9887 16.6561 16.7029 13.6494 16.7029ZM5.60107 3.9246C3.34607 3.9246 2.25524 5.0154 2.25524 7.2704V11.9913C2.25524 13.6321 2.83275 14.6404 4.01525 15.0896C4.19859 15.1538 4.37276 15.1996 4.53776 15.2271C4.88609 15.3004 5.22524 15.3371 5.60107 15.3371H13.6586C15.9136 15.3371 17.0044 14.2463 17.0044 11.9913V7.2704C17.0044 6.8854 16.9769 6.54623 16.9128 6.23456C16.6011 4.67623 15.5377 3.9246 13.6586 3.9246H5.60107Z" fill="#212121"/>
<path d="M16.3992 19.4507H8.34167C7.5625 19.4507 6.86583 19.3407 6.26999 19.1115C4.92249 18.6073 4.04248 17.544 3.73998 16.0223C3.69415 15.7932 3.7675 15.5548 3.9325 15.399C4.0975 15.234 4.33584 15.1698 4.56501 15.2248C4.86751 15.289 5.20667 15.3257 5.59167 15.3257H13.6492C15.9042 15.3257 16.995 14.2349 16.995 11.9799V7.259C16.995 6.874 16.9675 6.53483 16.9033 6.22316C16.8575 5.994 16.9308 5.76484 17.0867 5.59984C17.2517 5.43484 17.4808 5.36149 17.71 5.41649C19.91 5.86566 21.12 7.49734 21.12 10.009V14.7299C21.12 17.7365 19.4058 19.4507 16.3992 19.4507ZM5.42668 16.7007C5.72001 17.2323 6.16 17.6082 6.765 17.8282C7.205 17.9932 7.73665 18.0757 8.35082 18.0757H16.4083C18.6633 18.0757 19.7542 16.9849 19.7542 14.7299V10.009C19.7542 8.56067 19.305 7.59818 18.3792 7.09401C18.3792 7.14901 18.3792 7.204 18.3792 7.259V11.9799C18.3792 14.9774 16.6558 16.7007 13.6583 16.7007H5.60082C5.53665 16.7007 5.48168 16.7007 5.42668 16.7007Z" fill="#212121"/>
<path d="M9.62314 12.7307C7.90897 12.7307 6.51562 11.3373 6.51562 9.62314C6.51562 7.90897 7.90897 6.51562 9.62314 6.51562C11.3373 6.51562 12.7307 7.90897 12.7307 9.62314C12.7307 11.3373 11.3373 12.7307 9.62314 12.7307ZM9.62314 7.89062C8.66981 7.89062 7.89063 8.66981 7.89063 9.62314C7.89063 10.5765 8.66981 11.3557 9.62314 11.3557C10.5765 11.3557 11.3557 10.5765 11.3557 9.62314C11.3557 8.66981 10.5765 7.89062 9.62314 7.89062Z" fill="#212121"/>
<path d="M4.38281 12.3302C4.00698 12.3302 3.69531 12.0186 3.69531 11.6427V7.60938C3.69531 7.23354 4.00698 6.92188 4.38281 6.92188C4.75865 6.92188 5.07031 7.23354 5.07031 7.60938V11.6427C5.07031 12.0186 4.76781 12.3302 4.38281 12.3302Z" fill="#212121"/>
<path d="M14.8594 12.3302C14.4835 12.3302 14.1719 12.0186 14.1719 11.6427V7.60938C14.1719 7.23354 14.4835 6.92188 14.8594 6.92188C15.2352 6.92188 15.5469 7.23354 15.5469 7.60938V11.6427C15.5469 12.0186 15.2444 12.3302 14.8594 12.3302Z" fill="#212121"/>
</svg>
