<svg width="33" height="32" viewBox="0 0 33 32" fill="none" xmlns="http://www.w3.org/2000/svg">
<path d="M25.9062 11.6666C23.1463 11.6666 20.9062 9.42663 20.9062 6.66663C20.9062 3.90663 23.1463 1.66663 25.9062 1.66663C28.6663 1.66663 30.9062 3.90663 30.9062 6.66663C30.9062 9.42663 28.6663 11.6666 25.9062 11.6666ZM25.9062 3.66663C24.2529 3.66663 22.9062 5.01329 22.9062 6.66663C22.9062 8.31996 24.2529 9.66663 25.9062 9.66663C27.5596 9.66663 28.9062 8.31996 28.9062 6.66663C28.9062 5.01329 27.5596 3.66663 25.9062 3.66663Z" fill="#F8F8F8"/>
<path d="M12.5723 2.16663H19.2393C19.5098 2.16663 19.7393 2.3961 19.7393 2.66663C19.7393 2.93715 19.5098 3.16663 19.2393 3.16663H12.5723C9.46382 3.16666 7.2074 3.71411 5.74707 5.17444C4.28675 6.63476 3.7393 8.89119 3.73926 11.9996V19.9996C3.73926 23.108 4.28694 25.3644 5.74707 26.8248C7.2074 28.2852 9.46382 28.8336 12.5723 28.8336H20.5723C23.6809 28.8336 25.9371 28.2852 27.3975 26.8248C28.8578 25.3645 29.4062 23.1082 29.4062 19.9996V13.3336C29.4062 13.0631 29.6357 12.8336 29.9062 12.8336C30.1766 12.8338 30.4062 13.0632 30.4062 13.3336V19.9996C30.4062 23.5622 29.6428 25.9858 28.1006 27.528C26.5584 29.0702 24.1349 29.8336 20.5723 29.8336H12.5723C9.00996 29.8336 6.58709 29.07 5.04492 27.528C3.50272 25.9858 2.73926 23.5622 2.73926 19.9996V11.9996C2.7393 8.43721 3.50277 6.01445 5.04492 4.47229C6.58708 2.93013 9.00984 2.16667 12.5723 2.16663Z" fill="#292D32" stroke="#F8F8F8"/>
</svg>
