<svg width="33" height="32" viewBox="0 0 33 32" fill="none" xmlns="http://www.w3.org/2000/svg">
<path d="M24.5727 9.54663C24.4927 9.5333 24.3994 9.5333 24.3194 9.54663C22.4794 9.47996 21.0127 7.9733 21.0127 6.10663C21.0127 4.19996 22.546 2.66663 24.4527 2.66663C26.3594 2.66663 27.8927 4.2133 27.8927 6.10663C27.8794 7.9733 26.4127 9.47996 24.5727 9.54663Z" stroke="white" stroke-width="1.5" stroke-linecap="round" stroke-linejoin="round"/>
<path d="M23.1992 19.2533C25.0259 19.5599 27.0392 19.2399 28.4525 18.2933C30.3325 17.0399 30.3325 14.9866 28.4525 13.7333C27.0259 12.7866 24.9858 12.4666 23.1592 12.7866" stroke="white" stroke-width="1.5" stroke-linecap="round" stroke-linejoin="round"/>
<path d="M8.53289 9.54663C8.61289 9.5333 8.70622 9.5333 8.78622 9.54663C10.6262 9.47996 12.0929 7.9733 12.0929 6.10663C12.0929 4.19996 10.5596 2.66663 8.65289 2.66663C6.74623 2.66663 5.21289 4.2133 5.21289 6.10663C5.22622 7.9733 6.69289 9.47996 8.53289 9.54663Z" stroke="white" stroke-width="1.5" stroke-linecap="round" stroke-linejoin="round"/>
<path d="M9.90601 19.2533C8.07934 19.5599 6.06601 19.2399 4.65268 18.2933C2.77268 17.0399 2.77268 14.9866 4.65268 13.7333C6.07934 12.7866 8.11934 12.4666 9.94601 12.7866" stroke="white" stroke-width="1.5" stroke-linecap="round" stroke-linejoin="round"/>
<path d="M16.5727 19.5067C16.4927 19.4934 16.3994 19.4934 16.3194 19.5067C14.4794 19.44 13.0127 17.9334 13.0127 16.0667C13.0127 14.16 14.546 12.6267 16.4527 12.6267C18.3594 12.6267 19.8927 14.1734 19.8927 16.0667C19.8794 17.9334 18.4127 19.4534 16.5727 19.5067Z" stroke="white" stroke-width="1.5" stroke-linecap="round" stroke-linejoin="round"/>
<path d="M12.6927 23.7067C10.8127 24.9601 10.8127 27.0134 12.6927 28.2667C14.826 29.6934 18.3194 29.6934 20.4527 28.2667C22.3327 27.0134 22.3327 24.9601 20.4527 23.7067C18.3327 22.2934 14.826 22.2934 12.6927 23.7067Z" stroke="white" stroke-width="1.5" stroke-linecap="round" stroke-linejoin="round"/>
</svg>
