<svg width="22" height="22" viewBox="0 0 22 22" fill="none" xmlns="http://www.w3.org/2000/svg">
<path d="M15.582 19.9375H6.41536C2.37286 19.9375 1.14453 18.7092 1.14453 14.6667V7.33333C1.14453 3.29083 2.37286 2.0625 6.41536 2.0625H15.582C19.6245 2.0625 20.8529 3.29083 20.8529 7.33333V14.6667C20.8529 18.7092 19.6245 19.9375 15.582 19.9375ZM6.41536 3.4375C3.1337 3.4375 2.51953 4.06083 2.51953 7.33333V14.6667C2.51953 17.9392 3.1337 18.5625 6.41536 18.5625H15.582C18.8637 18.5625 19.4779 17.9392 19.4779 14.6667V7.33333C19.4779 4.06083 18.8637 3.4375 15.582 3.4375H6.41536Z" fill="#212121"/>
<path d="M17.4154 8.01953H12.832C12.4562 8.01953 12.1445 7.70786 12.1445 7.33203C12.1445 6.9562 12.4562 6.64453 12.832 6.64453H17.4154C17.7912 6.64453 18.1029 6.9562 18.1029 7.33203C18.1029 7.70786 17.7912 8.01953 17.4154 8.01953Z" fill="#212121"/>
<path d="M17.4167 11.6875H13.75C13.3742 11.6875 13.0625 11.3758 13.0625 11C13.0625 10.6242 13.3742 10.3125 13.75 10.3125H17.4167C17.7925 10.3125 18.1042 10.6242 18.1042 11C18.1042 11.3758 17.7925 11.6875 17.4167 11.6875Z" fill="#212121"/>
<path d="M17.4154 15.3555H15.582C15.2062 15.3555 14.8945 15.0438 14.8945 14.668C14.8945 14.2921 15.2062 13.9805 15.582 13.9805H17.4154C17.7912 13.9805 18.1029 14.2921 18.1029 14.668C18.1029 15.0438 17.7912 15.3555 17.4154 15.3555Z" fill="#212121"/>
<path d="M7.79198 11.0371C6.49948 11.0371 5.44531 9.98292 5.44531 8.69042C5.44531 7.39792 6.49948 6.34375 7.79198 6.34375C9.08448 6.34375 10.1386 7.39792 10.1386 8.69042C10.1386 9.98292 9.08448 11.0371 7.79198 11.0371ZM7.79198 7.71875C7.26031 7.71875 6.82031 8.15875 6.82031 8.69042C6.82031 9.22208 7.26031 9.66208 7.79198 9.66208C8.32365 9.66208 8.76365 9.22208 8.76365 8.69042C8.76365 8.15875 8.32365 7.71875 7.79198 7.71875Z" fill="#212121"/>
<path d="M10.9994 15.6566C10.6511 15.6566 10.3486 15.3908 10.3119 15.0333C10.2111 14.0433 9.41359 13.2458 8.41443 13.1541C7.99276 13.1174 7.57109 13.1174 7.14943 13.1541C6.15026 13.2458 5.35276 14.0341 5.25193 15.0333C5.21526 15.4091 4.87609 15.6933 4.50026 15.6474C4.12443 15.6108 3.84943 15.2716 3.88609 14.8958C4.05109 13.2458 5.36193 11.9349 7.02109 11.7883C7.52526 11.7424 8.03859 11.7424 8.54276 11.7883C10.1928 11.9441 11.5128 13.2549 11.6778 14.8958C11.7144 15.2716 11.4394 15.6108 11.0636 15.6474C11.0453 15.6566 11.0178 15.6566 10.9994 15.6566Z" fill="#212121"/>
</svg>
