<svg width="22" height="22" viewBox="0 0 22 22" fill="none" xmlns="http://www.w3.org/2000/svg">
<path d="M11.1464 10.6504C11.1189 10.6504 11.1005 10.6504 11.073 10.6504C11.0272 10.6412 10.963 10.6412 10.908 10.6504C8.24969 10.5679 6.24219 8.47786 6.24219 5.90203C6.24219 3.28036 8.37802 1.14453 10.9997 1.14453C13.6214 1.14453 15.7572 3.28036 15.7572 5.90203C15.748 8.47786 13.7314 10.5679 11.1739 10.6504C11.1647 10.6504 11.1555 10.6504 11.1464 10.6504ZM10.9997 2.51953C9.13885 2.51953 7.61719 4.0412 7.61719 5.90203C7.61719 7.73536 9.04719 9.2112 10.8714 9.27536C10.9172 9.2662 11.0455 9.2662 11.1647 9.27536C12.9614 9.19286 14.373 7.71703 14.3822 5.90203C14.3822 4.0412 12.8605 2.51953 10.9997 2.51953Z" fill="#212121"/>
<path d="M11.154 20.6721C9.35734 20.6721 7.55151 20.2138 6.18568 19.2971C4.91151 18.4538 4.21484 17.2988 4.21484 16.043C4.21484 14.7871 4.91151 13.623 6.18568 12.7705C8.93568 10.9463 13.3907 10.9463 16.1223 12.7705C17.3873 13.6138 18.0932 14.7688 18.0932 16.0246C18.0932 17.2805 17.3965 18.4446 16.1223 19.2971C14.7473 20.2138 12.9507 20.6721 11.154 20.6721ZM6.94651 13.9255C6.06651 14.5121 5.58984 15.2638 5.58984 16.0521C5.58984 16.8313 6.07568 17.583 6.94651 18.1605C9.22901 19.6913 13.079 19.6913 15.3615 18.1605C16.2415 17.5738 16.7182 16.8221 16.7182 16.0338C16.7182 15.2546 16.2323 14.503 15.3615 13.9255C13.079 12.4038 9.22901 12.4038 6.94651 13.9255Z" fill="#212121"/>
</svg>
