<svg width="33" height="32" viewBox="0 0 33 32" fill="none" xmlns="http://www.w3.org/2000/svg">
<path d="M25.6818 19.59C25.6818 21.31 27.0951 22.71 28.8151 22.71C28.8151 27.71 27.5618 28.9634 22.5618 28.9634H10.0551C5.05509 28.9634 3.80176 27.71 3.80176 22.71V22.0967C5.52176 22.0967 6.93509 20.6834 6.93509 18.9634C6.93509 17.2434 5.52176 15.83 3.80176 15.83V15.2167C3.81509 10.2167 5.05509 8.96338 10.0551 8.96338H22.5484C27.5484 8.96338 28.8018 10.2167 28.8018 15.2167V16.47C27.0818 16.47 25.6818 17.8567 25.6818 19.59Z" stroke="#F8F8F8" stroke-width="1.5" stroke-linecap="round" stroke-linejoin="round"/>
<path d="M22.0829 8.96329H9.96289L13.8696 5.05663C17.0562 1.86996 18.6562 1.86996 21.8429 5.05663L22.6429 5.85663C21.8029 6.69663 21.6029 7.93663 22.0829 8.96329Z" stroke="#F8F8F8" stroke-width="1.5" stroke-linecap="round" stroke-linejoin="round"/>
<path d="M13.6401 8.9635L13.6401 28.9635" stroke="#292D32" stroke-width="1.5" stroke-linecap="round" stroke-linejoin="round" stroke-dasharray="5 5"/>
</svg>
