<svg width="22" height="22" viewBox="0 0 22 22" fill="none" xmlns="http://www.w3.org/2000/svg">
<path d="M11 14.4375C9.1025 14.4375 7.5625 12.8975 7.5625 11C7.5625 9.1025 9.1025 7.5625 11 7.5625C12.8975 7.5625 14.4375 9.1025 14.4375 11C14.4375 12.8975 12.8975 14.4375 11 14.4375ZM11 8.9375C9.86333 8.9375 8.9375 9.86333 8.9375 11C8.9375 12.1367 9.86333 13.0625 11 13.0625C12.1367 13.0625 13.0625 12.1367 13.0625 11C13.0625 9.86333 12.1367 8.9375 11 8.9375Z" fill="#212121"/>
<path d="M13.9412 20.3398C13.7487 20.3398 13.5562 20.3123 13.3637 20.2665C12.7954 20.1106 12.3187 19.7531 12.0162 19.249L11.9062 19.0656C11.3654 18.1306 10.6229 18.1306 10.082 19.0656L9.9812 19.2398C9.6787 19.7531 9.20203 20.1198 8.6337 20.2665C8.0562 20.4223 7.46036 20.3398 6.9562 20.0373L5.37953 19.1298C4.82036 18.809 4.41703 18.2865 4.24286 17.654C4.07786 17.0215 4.16036 16.3706 4.4812 15.8115C4.74703 15.344 4.82036 14.9223 4.66453 14.6565C4.5087 14.3906 4.11453 14.2348 3.5737 14.2348C2.23536 14.2348 1.14453 13.144 1.14453 11.8056V10.1923C1.14453 8.85396 2.23536 7.76313 3.5737 7.76313C4.11453 7.76313 4.5087 7.60729 4.66453 7.34146C4.82036 7.07563 4.7562 6.65396 4.4812 6.18646C4.16036 5.62729 4.07786 4.96729 4.24286 4.34396C4.40786 3.71146 4.8112 3.18896 5.37953 2.86813L6.96536 1.96063C8.0012 1.34646 9.36703 1.70396 9.99036 2.75813L10.1004 2.94146C10.6412 3.87646 11.3837 3.87646 11.9245 2.94146L12.0254 2.76729C12.6487 1.70396 14.0145 1.34646 15.0595 1.96979L16.6362 2.87729C17.1954 3.19813 17.5987 3.72063 17.7729 4.35313C17.9379 4.98563 17.8554 5.63646 17.5345 6.19563C17.2687 6.66313 17.1954 7.08479 17.3512 7.35063C17.507 7.61646 17.9012 7.77229 18.442 7.77229C19.7804 7.77229 20.8712 8.86313 20.8712 10.2015V11.8148C20.8712 13.1531 19.7804 14.244 18.442 14.244C17.9012 14.244 17.507 14.3998 17.3512 14.6656C17.1954 14.9315 17.2595 15.3531 17.5345 15.8206C17.8554 16.3798 17.947 17.0398 17.7729 17.6631C17.6079 18.2956 17.2045 18.8181 16.6362 19.139L15.0504 20.0465C14.702 20.239 14.3262 20.3398 13.9412 20.3398ZM10.9987 16.9481C11.8145 16.9481 12.5754 17.4615 13.0979 18.369L13.1987 18.5431C13.3087 18.7356 13.492 18.8731 13.712 18.9281C13.932 18.9831 14.152 18.9556 14.3354 18.8456L15.9212 17.929C16.1595 17.7915 16.3429 17.5623 16.4162 17.2873C16.4895 17.0123 16.4529 16.7281 16.3154 16.4898C15.7929 15.5915 15.7287 14.6656 16.132 13.9598C16.5354 13.254 17.3695 12.8506 18.4145 12.8506C19.0012 12.8506 19.4687 12.3831 19.4687 11.7965V10.1831C19.4687 9.60563 19.0012 9.12896 18.4145 9.12896C17.3695 9.12896 16.5354 8.72563 16.132 8.01979C15.7287 7.31396 15.7929 6.38813 16.3154 5.48979C16.4529 5.25146 16.4895 4.96729 16.4162 4.69229C16.3429 4.41729 16.1687 4.19729 15.9304 4.05063L14.3445 3.14313C13.9504 2.90479 13.4279 3.04229 13.1895 3.44563L13.0887 3.61979C12.5662 4.52729 11.8054 5.04063 10.9895 5.04063C10.1737 5.04063 9.41286 4.52729 8.89036 3.61979L8.78953 3.43646C8.56036 3.05146 8.04703 2.91396 7.65286 3.14313L6.06703 4.05979C5.8287 4.19729 5.64536 4.42646 5.57203 4.70146C5.4987 4.97646 5.53536 5.26063 5.67286 5.49896C6.19536 6.39729 6.25953 7.32313 5.8562 8.02896C5.45286 8.73479 4.6187 9.13813 3.5737 9.13813C2.98703 9.13813 2.51953 9.60563 2.51953 10.1923V11.8056C2.51953 12.3831 2.98703 12.8598 3.5737 12.8598C4.6187 12.8598 5.45286 13.2631 5.8562 13.969C6.25953 14.6748 6.19536 15.6006 5.67286 16.499C5.53536 16.7373 5.4987 17.0215 5.57203 17.2965C5.64536 17.5715 5.81953 17.7915 6.05786 17.9381L7.6437 18.8456C7.8362 18.9648 8.06536 18.9923 8.2762 18.9373C8.4962 18.8823 8.67953 18.7356 8.7987 18.5431L8.89953 18.369C9.42203 17.4706 10.1829 16.9481 10.9987 16.9481Z" fill="#212121"/>
</svg>
