<svg width="22" height="22" viewBox="0 0 22 22" fill="none" xmlns="http://www.w3.org/2000/svg">
<path d="M12.5875 3.21938L14.2008 6.44604C14.4208 6.89521 15.0075 7.32604 15.5025 7.40854L18.4266 7.89437C20.2966 8.20604 20.7366 9.56271 19.3891 10.901L17.1158 13.1744C16.7308 13.5594 16.52 14.3019 16.6391 14.8335L17.29 17.6477C17.8033 19.8752 16.6208 20.7369 14.65 19.5727L11.9091 17.9502C11.4141 17.6569 10.5983 17.6569 10.0941 17.9502L7.35329 19.5727C5.39163 20.7369 4.19996 19.866 4.71329 17.6477L5.36413 14.8335C5.48329 14.3019 5.27246 13.5594 4.88746 13.1744L2.61413 10.901C1.27579 9.56271 1.70663 8.20604 3.57663 7.89437L6.50079 7.40854C6.98663 7.32604 7.57329 6.89521 7.79329 6.44604L9.40663 3.21938C10.2866 1.46854 11.7166 1.46854 12.5875 3.21938Z" stroke="#212121" stroke-width="1.5" stroke-linecap="round" stroke-linejoin="round"/>
</svg>
