<svg width="33" height="32" viewBox="0 0 33 32" fill="none" xmlns="http://www.w3.org/2000/svg">
<path d="M24.1194 30.2267C23.4127 30.2267 22.5061 30 21.3727 29.3333L17.3861 26.9733C16.9727 26.7333 16.1727 26.7333 15.7727 26.9733L11.7727 29.3333C9.41275 30.7333 8.02608 30.1733 7.39941 29.72C6.78608 29.2667 5.82608 28.1067 6.45275 25.44L7.39941 21.3467C7.50608 20.92 7.29275 20.1867 6.97275 19.8667L3.66608 16.56C2.01275 14.9067 2.14608 13.4933 2.37275 12.8C2.59941 12.1067 3.31941 10.88 5.61275 10.4933L9.86608 9.78668C10.2661 9.72001 10.8394 9.29334 11.0127 8.93334L13.3727 4.22668C14.4394 2.08001 15.8394 1.76001 16.5727 1.76001C17.3061 1.76001 18.7061 2.08001 19.7727 4.22668L22.1194 8.92001C22.3061 9.28001 22.8794 9.70668 23.2794 9.77334L27.5327 10.48C29.8394 10.8667 30.5594 12.0933 30.7727 12.7867C30.9861 13.48 31.1194 14.8933 29.4794 16.5467L26.1727 19.8667C25.8527 20.1867 25.6527 20.9067 25.7461 21.3467L26.6927 25.44C27.3061 28.1067 26.3594 29.2667 25.7461 29.72C25.4127 29.96 24.8794 30.2267 24.1194 30.2267ZM16.5727 24.7867C17.2261 24.7867 17.8794 24.9467 18.3994 25.2533L22.3861 27.6133C23.5461 28.3067 24.2794 28.3067 24.5594 28.1067C24.8394 27.9067 25.0394 27.2 24.7461 25.8933L23.7994 21.8C23.5461 20.6933 23.9594 19.2667 24.7594 18.4533L28.0661 15.1467C28.7194 14.4933 29.0127 13.8533 28.8794 13.4133C28.7327 12.9733 28.1194 12.6133 27.2127 12.4667L22.9594 11.76C21.9327 11.5867 20.8127 10.76 20.3461 9.82668L17.9994 5.13334C17.5727 4.28001 17.0394 3.77334 16.5727 3.77334C16.1061 3.77334 15.5727 4.28001 15.1594 5.13334L12.7994 9.82668C12.3327 10.76 11.2127 11.5867 10.1861 11.76L5.94608 12.4667C5.03941 12.6133 4.42608 12.9733 4.27941 13.4133C4.13275 13.8533 4.43941 14.5067 5.09275 15.1467L8.39941 18.4533C9.19941 19.2533 9.61275 20.6933 9.35941 21.8L8.41275 25.8933C8.10608 27.2133 8.31941 27.9067 8.59941 28.1067C8.87941 28.3067 9.59941 28.2933 10.7727 27.6133L14.7594 25.2533C15.2661 24.9467 15.9194 24.7867 16.5727 24.7867Z" fill="#F8F8F8"/>
</svg>
