<svg width="27" height="30" viewBox="0 0 27 30" fill="none" xmlns="http://www.w3.org/2000/svg">
<path d="M2.55312 17.4706C2.44481 16.929 1.91798 16.5778 1.37642 16.6861C0.834861 16.7944 0.483644 17.3213 0.591956 17.8628L1.87321 24.2691L0.623854 28.0171C0.449206 28.5411 0.732366 29.1074 1.25631 29.282C1.78025 29.4567 2.34657 29.1735 2.52122 28.6496L3.62663 25.3334H6.44303C6.5656 25.3334 6.65399 25.3373 6.71748 25.3427C6.73332 25.4044 6.75168 25.491 6.77183 25.6119L7.25281 28.4978C7.34361 29.0425 7.85883 29.4106 8.4036 29.3198C8.94837 29.229 9.31639 28.7137 9.2256 28.169L8.74462 25.2831C8.6698 24.8342 8.54135 24.2036 8.04133 23.78C7.54131 23.3564 6.89814 23.3334 6.44303 23.3334H3.72567L2.55312 17.4706Z" fill="white" fill-opacity="0.8"/>
<path d="M24.5921 17.4706C24.7004 16.929 25.2272 16.5778 25.7688 16.6861C26.3103 16.7944 26.6615 17.3213 26.5532 17.8628L25.272 24.2691L26.5213 28.0171C26.696 28.5411 26.4128 29.1074 25.8889 29.282C25.3649 29.4567 24.7986 29.1735 24.624 28.6496L23.5186 25.3334L20.7021 25.3334C20.5796 25.3334 20.4912 25.3373 20.4277 25.3427C20.4119 25.4044 20.3935 25.491 20.3734 25.6119L19.8924 28.4978C19.8016 29.0425 19.2864 29.4106 18.7416 29.3198C18.1968 29.229 17.8288 28.7137 17.9196 28.169L18.4006 25.2831C18.4754 24.8342 18.6038 24.2036 19.1039 23.78C19.6039 23.3564 20.247 23.3334 20.7021 23.3334L23.4195 23.3334L24.5921 17.4706Z" fill="white" fill-opacity="0.8"/>
<path fill-rule="evenodd" clip-rule="evenodd" d="M12.5726 19.9998L12.5726 27.3332H12.2393C11.687 27.3332 11.2393 27.7809 11.2393 28.3332C11.2393 28.8855 11.687 29.3332 12.2393 29.3332H14.9059C15.4582 29.3332 15.9059 28.8855 15.9059 28.3332C15.9059 27.7809 15.4582 27.3332 14.9059 27.3332H14.5726L14.5726 19.9998H17.5726C18.1249 19.9998 18.5726 19.5521 18.5726 18.9998C18.5726 18.4476 18.1249 17.9998 17.5726 17.9998H14.5726V13.3332L24.6486 13.3332C25.3136 13.3332 26.0797 13.1023 26.4235 12.3344C26.7133 11.6871 26.5273 10.9955 26.322 10.518C26.0583 9.90462 25.7391 9.39266 25.3156 8.96225C24.8925 8.53229 24.406 8.22495 23.8627 7.97056C21.2219 6.73405 18.5386 4.75324 16.5609 2.77772L16.5262 2.74305C15.9489 2.16636 15.4685 1.68646 15.074 1.35529C14.7211 1.05899 14.2023 0.666504 13.5726 0.666504C12.9429 0.666504 12.4241 1.05899 12.0711 1.35529C11.6766 1.68648 11.1963 2.1663 10.619 2.74302L10.5842 2.77772C8.60656 4.75324 5.92324 6.73405 3.28246 7.97056C2.73917 8.22495 2.25261 8.53229 1.82957 8.96226C1.40608 9.39266 1.08681 9.90462 0.823147 10.518C0.617896 10.9955 0.431851 11.6871 0.721624 12.3344C1.06543 13.1023 1.83154 13.3332 2.4965 13.3332L12.5726 13.3332V17.9998H9.57259C9.02031 17.9998 8.57259 18.4476 8.57259 18.9998C8.57259 19.5521 9.02031 19.9998 9.57259 19.9998H12.5726ZM2.64989 11.3332L2.66058 11.3078C2.85053 10.8659 3.04437 10.5792 3.2552 10.365C3.46647 10.1502 3.73542 9.96686 4.13056 9.78184C7.00887 8.43411 9.87893 6.30914 11.9977 4.19271C12.6187 3.57242 13.0373 3.1555 13.3571 2.88707C13.4508 2.80839 13.5217 2.75545 13.5726 2.72024C13.6234 2.75545 13.6943 2.80839 13.7881 2.88707C14.1078 3.1555 14.5265 3.57242 15.1475 4.19271C17.2662 6.30914 20.1363 8.43411 23.0146 9.78184C23.4097 9.96685 23.6787 10.1502 23.89 10.365C24.1008 10.5792 24.2946 10.8659 24.4846 11.3078L24.4953 11.3332L2.64989 11.3332Z" fill="white" fill-opacity="0.8"/>
</svg>
