<svg width="33" height="32" viewBox="0 0 33 32" fill="none" xmlns="http://www.w3.org/2000/svg">
<path d="M20.8927 30.3333H12.2527C9.73268 30.3333 7.89268 29.28 7.18601 27.4666C6.45268 25.5733 7.13268 23.2266 8.89268 21.64L15.0793 16L8.89268 10.36C7.13268 8.77329 6.45268 6.42663 7.18601 4.53329C7.89268 2.70663 9.73268 1.66663 12.2527 1.66663H20.8927C23.4127 1.66663 25.2527 2.71996 25.9593 4.53329C26.6927 6.42663 26.0127 8.77329 24.2527 10.36L18.066 16L24.266 21.64C26.0127 23.2266 26.706 25.5733 25.9727 27.4666C25.2527 29.28 23.4127 30.3333 20.8927 30.3333ZM16.5727 17.3466L10.2393 23.1066C9.11935 24.1333 8.62601 25.6266 9.05268 26.7333C9.45268 27.76 10.586 28.3333 12.2527 28.3333H20.8927C22.5593 28.3333 23.6927 27.7733 24.0927 26.7333C24.5193 25.6266 24.0393 24.1333 22.906 23.1066L16.5727 17.3466ZM12.2527 3.66663C10.586 3.66663 9.45268 4.22663 9.05268 5.26663C8.62601 6.37329 9.10601 7.86663 10.2393 8.89329L16.5727 14.6533L22.906 8.89329C24.026 7.86663 24.5193 6.37329 24.0927 5.26663C23.6927 4.23996 22.5593 3.66663 20.8927 3.66663H12.2527Z" fill="#F8F8F8"/>
</svg>
