<svg width="33" height="32" viewBox="0 0 33 32" fill="none" xmlns="http://www.w3.org/2000/svg">
<path d="M14.9084 22.4805V25.1872C14.9084 27.4805 12.775 29.3338 10.1484 29.3338C7.52169 29.3338 5.375 27.4805 5.375 25.1872V22.4805C5.375 24.7738 7.50836 26.4005 10.1484 26.4005C12.775 26.4005 14.9084 24.7605 14.9084 22.4805Z" fill="#F8F8F8"/>
<path d="M14.906 18.8134C14.906 19.48 14.7193 20.0933 14.3993 20.6267C13.6127 21.92 11.9993 22.7334 10.1326 22.7334C8.26598 22.7334 6.65263 21.9067 5.86597 20.6267C5.54597 20.0933 5.35938 19.48 5.35938 18.8134C5.35938 17.6667 5.89268 16.64 6.74601 15.8934C7.61268 15.1334 8.7993 14.6801 10.1193 14.6801C11.4393 14.6801 12.626 15.1467 13.4927 15.8934C14.3727 16.6267 14.906 17.6667 14.906 18.8134Z" stroke="#F8F8F8" stroke-width="1.5" stroke-linecap="round" stroke-linejoin="round"/>
<path d="M14.9084 18.8133V22.4799C14.9084 24.7733 12.775 26.3999 10.1484 26.3999C7.52169 26.3999 5.375 24.7599 5.375 22.4799V18.8133C5.375 16.5199 7.50836 14.6666 10.1484 14.6666C11.4684 14.6666 12.6551 15.1333 13.5217 15.8799C14.3751 16.6266 14.9084 17.6666 14.9084 18.8133Z" stroke="#F8F8F8" stroke-width="1.5" stroke-linecap="round" stroke-linejoin="round"/>
<path d="M29.9062 14.6267V17.3734C29.9062 18.1067 29.3195 18.7067 28.5729 18.7334H25.9595C24.5195 18.7334 23.1995 17.68 23.0795 16.24C22.9995 15.4 23.3195 14.6134 23.8795 14.0667C24.3728 13.56 25.0529 13.2667 25.7995 13.2667H28.5729C29.3195 13.2934 29.9062 13.8933 29.9062 14.6267Z" stroke="#F8F8F8" stroke-width="1.5" stroke-linecap="round" stroke-linejoin="round"/>
<path d="M3.23926 14V11.3333C3.23926 7.70663 5.42593 5.17329 8.82593 4.74662C9.17259 4.69329 9.53259 4.66663 9.90592 4.66663H21.9059C22.2526 4.66663 22.5859 4.67994 22.9059 4.73328C26.3459 5.13328 28.5726 7.67996 28.5726 11.3333V13.2666H25.7992C25.0526 13.2666 24.3726 13.5599 23.8792 14.0666C23.3192 14.6133 22.9993 15.3999 23.0793 16.2399C23.1993 17.6799 24.5192 18.7333 25.9592 18.7333H28.5726V20.6666C28.5726 24.6666 25.9059 27.3333 21.9059 27.3333H18.5726" stroke="#F8F8F8" stroke-width="1.5" stroke-linecap="round" stroke-linejoin="round"/>
</svg>
